<?xml version="1.0" encoding="utf-8"?>
<!-- Generator: Adobe Illustrator 17.0.0, SVG Export Plug-In . SVG Version: 6.00 Build 0)  -->
<!DOCTYPE svg PUBLIC "-//W3C//DTD SVG 1.1//EN" "http://www.w3.org/Graphics/SVG/1.1/DTD/svg11.dtd">
<svg version="1.1" id="Layer_1" xmlns="http://www.w3.org/2000/svg" xmlns:xlink="http://www.w3.org/1999/xlink" x="0px" y="0px"
	 width="1786.6px" height="300.7px" viewBox="0 0 1786.6 300.7" enable-background="new 0 0 1786.6 300.7" xml:space="preserve">
<g>
	<g>
		<path fill="#603813" d="M412.2,146.4c0-37.5,0-75,0-112.5c0-1.3-0.1-2.7,0.1-4c0.3-2.2,2.1-3.7,4.1-3.6c1.8,0.1,3.4,1.5,3.7,3.4
			c0.1,1,0.1,2,0.1,3c0,76,0,152,0,228c0,1.2,0.1,2.4-0.1,3.5c-0.3,2.1-1.4,3.1-3.2,3.2c-2.2,0.1-4.2-1.1-4.5-3.1
			c-0.3-1.5-0.1-3-0.1-4.5C412.2,222,412.2,184.2,412.2,146.4z"/>
		<path fill="#603813" d="M408,156.3c0,33.5,0,67,0,100.5c0,1.3,0.1,2.7,0,4c-0.3,2.4-2,3.7-4.5,3.6c-2-0.1-3-1.1-3.3-3.6
			c-0.1-1.1,0-2.3,0-3.5c0-67.3,0-134.6,0-201.9c0-1.8,0.2-3.6,0.6-5.4c0.3-1.3,1.1-2.6,2.6-2.6c1.7,0,3.3,0.7,3.9,2.5
			c0.4,1.4,0.6,2.9,0.7,4.4c0.1,9.7,0,19.3,0,29C408,107.7,408,132,408,156.3z"/>
		<path fill="#603813" d="M432.1,160.4c0,35,0,70,0,105c0,1.3,0.1,2.7,0,4c-0.1,1.9-2.3,3.8-3.9,3.7c-1.2,0-2.8-1.8-3-3.5
			c-0.1-1,0-2,0-3c0-71.2,0-142.3,0-213.5c0-1.2-0.3-2.5,0.1-3.5c0.6-1.2,1.7-2.6,2.9-3c0.8-0.2,2.3,1,3.1,1.9
			c0.6,0.7,0.8,1.8,0.9,2.8c0.1,1.1,0,2.3,0,3.5C432.1,90.1,432.1,125.3,432.1,160.4z"/>
		<path fill="#603813" d="M18.1,163.5c0,35,0,70,0,105c0,1.3,0.1,2.7,0,4c-0.1,1.6-1.7,3.5-2.9,3.7c-1.7,0.2-3.9-1.7-4.1-3.6
			c-0.1-1.2,0-2.3,0-3.5c0-70.2,0-140.3,0-210.5c0-1.3-0.1-2.7,0.1-4c0.3-2,2.4-3.5,4.4-3.2c1.7,0.2,2.4,1.2,2.6,3.6
			c0.1,1.2,0,2.3,0,3.5C18.1,93.5,18.1,128.5,18.1,163.5z"/>
		<path fill="#603813" d="M254.2,143.4c0-27.3,0-54.7,0-82c0-1.8,0.3-3.6,0.6-5.4c0.3-1.3,1.1-2.6,2.7-2.6c1.7,0.1,3.2,0.8,3.9,2.5
			c0.3,0.8,0.5,1.6,0.6,2.4c0.1,1,0,2,0,3c0,54.3,0,108.6,0,163c0,1.8-0.3,3.6-0.6,5.4c-0.4,1.8-1.6,2.9-3.6,2.7
			c-1.8-0.2-3.3-1.6-3.6-3.6c-0.2-1.3-0.1-2.7-0.1-4C254.2,197.7,254.2,170.5,254.2,143.4z"/>
		<path fill="#603813" d="M30.6,154.4c0,10,0,20,0,30c-0.1,10-0.3,20-0.3,30c0,8.6,0.2,17.2,0.2,25.8c0,1.3-0.2,2.6-0.3,3.9
			c-0.3,2.5-0.9,3.3-2.8,3.4c-1.8,0.1-3.7-1.2-4.1-2.9c-0.2-1-0.1-2-0.1-3c0-58.3,0-116.6,0-175c0-1.3,0-2.7,0.4-3.9
			c0.6-1.7,2.9-2.6,4.6-2.1c1.4,0.5,2.8,2.6,2.6,4.4c-0.9,10.5-0.3,21-0.3,31.4c0,10-0.2,20-0.3,30c-0.1,9.4,0,18.7,0,28.1
			C30.4,154.4,30.5,154.4,30.6,154.4z"/>
		<path fill="#603813" d="M103.2,157.7c0,29.5,0,59,0,88.5c0,1.2,0,2.3,0,3.5c-0.1,2.7-0.9,3.7-2.9,3.8c-2,0.1-3.7-1.4-4.1-3.6
			c-0.1-0.8,0-1.7,0-2.5c0-59.6,0-119.3,0-178.9c0-1.3,0.1-2.7,0.4-3.9c0.4-1.5,2.5-3,3.6-2.9c1.2,0.1,2.8,2,2.9,3.6
			c0.1,1.3,0,2.7,0,4C103.2,98.7,103.2,128.2,103.2,157.7z"/>
		<path fill="#603813" d="M437.1,146.9c0-29.2,0-58.3,0-87.5c0-1.2,0-2.3,0-3.5c0.2-2.8,1-3.6,3.6-3.6c2.4,0,3.2,0.8,3.4,3.3
			c0.1,1.2,0,2.3,0,3.5c0,59,0,117.9,0,176.9c0,1,0,2,0,3c-0.1,2.3-1.6,4.2-3.4,4.3c-1.7,0.1-3.5-1.7-3.6-4c-0.1-1.2,0-2.3,0-3.5
			C437.1,206.2,437.1,176.5,437.1,146.9z"/>
		<path fill="#603813" d="M364.1,164.4c0-28.7,0-57.3,0-86c0-1.2,0-2.3,0-3.5c0.1-2,1.6-3.4,3.4-3.5c1.4,0,3.2,1.4,3.5,3
			c0.2,1,0.1,2,0.1,3c0,58,0,116,0,173.9c0,1,0.1,2-0.1,3c-0.3,1.6-2.2,3-3.6,3c-1.8-0.1-3.2-1.5-3.4-3.5c-0.1-1.2,0-2.3,0-3.5
			C364.1,221.7,364.1,193,364.1,164.4z"/>
		<path fill="#603813" d="M230.1,151.9c0-28.3,0-56.6,0-85c0-1.2-0.1-2.3,0-3.5c0.2-2.3,1.9-4.1,3.6-4c1.6,0.1,3.1,1.8,3.3,3.8
			c0.1,0.8,0,1.7,0,2.5c0,57.6,0,115.3,0,172.9c0,0.7,0,1.3,0,2c-0.2,3.1-1.5,4.2-4.4,3.8c-1.5-0.2-2.5-1-2.6-2.6
			c-0.1-1.3-0.1-2.7-0.1-4C230.1,209.2,230.1,180.5,230.1,151.9z"/>
		<path fill="#603813" d="M266.2,154.9c0-23.8,0-47.6,0-71.4c0-1.2-0.1-2.3,0-3.5c0.3-2.4,2-3.7,4.5-3.7c2,0.1,3,1.1,3.3,3.6
			c0.1,1.1,0,2.3,0,3.5c0,48.1,0,96.2,0,144.3c0,1.6-0.2,3.3-0.6,4.9c-0.4,1.6-1.8,2.6-3.3,2.6c-1.7,0-3.2-1.1-3.6-2.9
			c-0.3-1.4-0.4-2.9-0.4-4.4c0-22.5,0-44.9,0-67.4C266.2,158.5,266.2,156.7,266.2,154.9z"/>
		<path fill="#603813" d="M225.1,155.9c0,27,0,54,0,81c0,1.3,0.1,2.7-0.1,4c-0.2,1.6-2,3.1-3.4,3.2c-1.4,0-3.3-1.6-3.5-3
			c-0.1-1.1-0.1-2.3-0.1-3.5c0-54.6,0-109.3,0-163.9c0-0.8,0-1.7,0-2.5c0.2-3.1,1.5-4.2,4.4-3.7c1.5,0.2,2.4,1.1,2.5,2.6
			c0.1,1.3,0.1,2.7,0.1,4C225.1,101.2,225.1,128.6,225.1,155.9z"/>
		<path fill="#603813" d="M108.2,145.9c0-23.3,0-46.6,0-70c0-1.8,0.4-3.6,0.8-5.3c0.3-1.4,1.4-2.2,2.9-2.2c1.5,0,2.6,0.6,3.1,2
			c0.4,1.1,0.7,2.2,0.9,3.3c0.1,1,0,2,0,3c0,46.1,0,92.3,0,138.4c0,1,0,2,0,3c-0.2,2.9-1.7,5-3.8,5.1c-2,0.1-3.8-2-4-4.9
			c-0.1-1.2,0-2.3,0-3.5C108.2,191.9,108.2,168.9,108.2,145.9C108.2,145.9,108.2,145.9,108.2,145.9z"/>
		<path fill="#603813" d="M201.1,149.5c0,23.3,0,46.7,0,70c0,1.6,0,3.4-0.5,4.9c-0.4,1.1-1.7,2.3-2.7,2.4c-1,0.1-2.5-0.8-3.3-1.8
			c-0.8-1-1-2.4-1.3-3.7c-0.2-1,0-2,0-3c0-45.7,0-91.3,0-137c0-2.1,0.5-4.2,0.8-6.4c0.2-1.8,1.2-2.6,3-2.7c1.8,0,3.6,1.3,3.9,3.2
			c0.2,1.3,0.1,2.7,0.1,4C201.1,102.8,201.1,126.2,201.1,149.5z"/>
		<path fill="#603813" d="M91.1,145.6c0,26.6,0,53.3,0,79.9c0,1.2,0.1,2.3,0,3.5c-0.2,2.6-0.9,3.3-3.2,3.5c-2.1,0.1-3.3-0.8-3.7-3.1
			c-0.2-1.1-0.1-2.3-0.1-3.5c0-53.6,0-107.2,0-160.8c0-1.3-0.1-2.7,0.2-4c0.4-2.1,1.8-3,4-2.7c2,0.2,2.7,1,2.8,3.4
			c0.1,1.2,0,2.3,0,3.5C91.1,92,91.1,118.8,91.1,145.6z"/>
		<path fill="#603813" d="M72.1,156.4c0-26.3,0-52.6,0-79c0-1.2-0.1-2.3,0-3.5c0.2-2.8,1-3.6,3.6-3.6c2.5,0,3.3,0.9,3.4,3.8
			c0,1,0,2,0,3c0,53,0,106,0,158.9c0,1.3,0.1,2.7-0.1,4c-0.2,1.6-1.9,3.2-3.3,3.3c-1.6,0.1-3.4-1.6-3.6-3.5c-0.1-1.3-0.1-2.7-0.1-4
			C72.1,209.4,72.1,182.9,72.1,156.4z"/>
		<path fill="#603813" d="M335,148.4c0,22.1,0,44.3,0,66.4c0,1.2,0.1,2.3,0,3.5c-0.3,3-2.2,5.1-4.5,4.9c-1.7-0.1-3.1-2.2-3.3-5
			c-0.1-1.2,0-2.3,0-3.5c0-41.3,0-82.6,0-123.9c0-3.8,0-7.7,0-11.5c0-1-0.1-2,0.1-3c0.4-2.1,1.5-3,3.2-3.1c2.3-0.1,4.1,1.1,4.4,3.2
			c0.2,1.3,0.1,2.7,0.1,4C335,103.1,335,125.8,335,148.4z"/>
		<path fill="#603813" d="M249.2,158.9c0,25.6,0,51.3,0,76.9c0,1.3,0.1,2.7,0,4c-0.1,2-1.5,3.4-3.4,3.5c-1.4,0-3.2-1.5-3.5-3
			c-0.2-1-0.1-2-0.1-3c0-52.6,0-105.3,0-157.9c0-1.8-0.4-3.7,1.6-4.9c2.3-1.4,4.8-0.6,5.3,2c0.3,1.3,0.1,2.7,0.1,4
			C249.2,106.6,249.2,132.8,249.2,158.9z"/>
		<path fill="#603813" d="M48,150.6c0-25.7,0-51.3,0-77c0-1.2,0-2.3,0-3.5c0.1-2.7,0.9-3.7,2.9-3.8c2-0.1,3.8,1.4,4.1,3.6
			c0.1,0.8,0,1.7,0,2.5c0,52,0,104,0,155.9c0,1.6-0.2,3.4-0.9,4.7c-0.5,1-2.3,2.1-3,1.9c-1.2-0.4-2.3-1.8-2.9-3
			c-0.5-1.1-0.2-2.6-0.2-4C48,202.3,48,176.4,48,150.6z"/>
		<path fill="#603813" d="M189,159.9c0,22,0,44,0,66c0,1.8-0.4,3.6-0.8,5.3c-0.3,1.4-1.4,2.2-2.9,2.2c-1.8,0.1-2.9-0.7-3.3-2.4
			c-0.4-1.6-0.7-3.2-0.8-4.8c-0.1-12.7,0-25.3,0-38c0-31.2,0-62.3,0-93.5c0-1.3-0.1-2.7,0.1-4c0.4-2.9,1.9-4.4,4-4.3
			c2,0.1,3.4,1.7,3.8,4.5c0.1,1.1,0,2.3,0,3.5C189,116.2,189,138,189,159.9z"/>
		<path fill="#603813" d="M43,149.7c0,22,0,44,0,66c0,1.5,0,3-0.3,4.4c-0.4,1.8-1.8,3-3.5,3c-1.7,0.1-3.1-1.1-3.6-2.9
			c-0.3-0.9-0.3-1.9-0.4-2.9c-0.1-1.7,0-3.3,0-5c0-42.6,0-85.3,0-127.9c0-1.3-0.1-2.7,0-4c0.2-2.6,1.9-4.2,4.1-4.1
			c2,0.1,3.5,1.6,3.7,3.9c0.1,1.2,0,2.3,0,3.5C43,105.7,43,127.7,43,149.7z"/>
		<path fill="#603813" d="M347,158.4c0,21.6,0,43.3,0,64.9c0,1.2,0.1,2.3,0,3.5c-0.2,2-1.7,3.4-3.5,3.6c-2,0.2-3.2-0.8-3.6-2.6
			c-0.4-1.8-0.6-3.6-0.6-5.4c0-36.5,0-72.9,0-109.4c0-7,0-14,0-21c0-1.4,0.2-3,0.8-4.3c1.3-2.8,4.8-2.9,6.1-0.1
			c0.7,1.6,0.9,3.5,0.9,5.3C347.1,114.8,347,136.6,347,158.4z"/>
		<path fill="#603813" d="M121,144.9c0-24.8,0-49.6,0-74.5c0-1.2-0.1-2.3,0-3.5c0.1-2.5,0.8-3.3,2.6-3.5c1.7-0.2,3.8,1.1,4.2,2.8
			c0.2,0.9,0.1,2,0.1,3c0,50.8,0,101.6,0,152.4c0,1.6,0.2,3.3-1.2,4.6c-1.3,1.2-2.7,1.6-4.1,0.8c-0.8-0.5-1.4-1.7-1.6-2.8
			c-0.3-1.3-0.1-2.7-0.1-4C121,195.2,121,170,121,144.9z"/>
		<path fill="#603813" d="M133.1,149.4c0-24.8,0-49.6,0-74.5c0-1.3-0.1-2.7,0.1-4c0.2-1.7,1.9-3.4,3.1-3.4c1.6,0.1,3.6,1.8,3.8,3.4
			c0.1,1.2,0,2.3,0,3.5c0,49.6,0,99.3,0,148.9c0,1.3,0.1,2.7-0.1,4c-0.4,2.3-1.6,3.2-3.8,3c-2.3-0.1-3-0.9-3.1-3.5
			c-0.1-1.2,0-2.3,0-3.5C133.1,198.7,133.1,174,133.1,149.4z"/>
		<path fill="#603813" d="M164.1,143.9c0,24.5,0,48.9,0,73.4c0,1.3,0.1,2.7,0,4c-0.2,2.3-0.9,3-3,3.1c-2.1,0.2-3.2-0.5-3.7-2.5
			c-0.3-1.1-0.3-2.3-0.3-3.5c0-49.8,0-99.6,0-149.3c0-1.6-0.2-3.3,1.2-4.6c1.3-1.2,2.7-1.6,4.1-0.8c0.8,0.5,1.4,1.7,1.6,2.8
			c0.3,1.3,0.1,2.6,0.1,4C164.1,94.9,164.1,119.4,164.1,143.9z"/>
		<path fill="#603813" d="M60.1,143.4c0-23.8,0-47.7,0-71.5c0-1.3-0.1-2.7,0.1-4c0.2-1.7,1.9-3.4,3.2-3.3c1.7,0.1,3.6,1.8,3.7,3.4
			c0.1,1.2,0,2.3,0,3.5c0,48.3,0,96.6,0,145c0,1.2,0.1,2.3-0.1,3.5c-0.2,1.7-1.9,3.2-3.3,3.3c-1.6,0.1-3.4-1.5-3.6-3.4
			c-0.1-1.3-0.1-2.7-0.1-4C60.1,191.7,60.1,167.5,60.1,143.4z"/>
		<path fill="#603813" d="M145.1,145.3c0-23,0-45.9,0-68.9c0-1.2-0.1-2.3,0-3.5c0.2-2.7,0.8-3.4,3.1-3.6c2.2-0.1,3.4,0.7,3.8,3
			c0.2,1.1,0.1,2.3,0.1,3.5c0,46.9,0,93.9,0,140.8c0,1.2,0.1,2.3-0.1,3.5c-0.2,1.6-2,3.2-3.4,3.2c-1.4,0-3.2-1.5-3.4-3.1
			c-0.2-1.3-0.1-2.7-0.1-4C145.1,192.6,145.1,168.9,145.1,145.3z"/>
		<path fill="#603813" d="M206,160.8c0-22.6,0-45.3,0-67.9c0-1.3-0.1-2.7,0.1-4c0.2-1.9,2.1-3.6,3.6-3.4c1.4,0.1,3,1.7,3.3,3.3
			c0.1,1,0.1,2,0.1,3c0,46.1,0,92.2,0,138.3c0,1.3,0,2.7-0.3,3.9c-0.5,2-1.6,2.6-3.7,2.4c-2.1-0.2-2.8-0.9-2.9-3.2
			c-0.1-1.2,0-2.3,0-3.5C206.1,206.7,206.1,183.7,206,160.8z"/>
		<path fill="#603813" d="M376.1,146.4c0-22.2,0-44.3,0-66.5c0-1,0-2,0-3c0.2-2.8,1-3.6,3.6-3.6c2.5,0,3.3,0.9,3.4,3.8c0,1,0,2,0,3
			c0,44.6,0,89.3,0,133.9c0,1.3,0.1,2.7-0.1,4c-0.2,1.5-2.2,3-3.5,3c-1.4,0-3.2-1.6-3.4-3.2c-0.1-1.3-0.1-2.7-0.1-4
			C376.1,191.3,376.1,168.9,376.1,146.4z"/>
		<path fill="#603813" d="M352,146.2c0-22,0-43.9,0-65.9c0-1.2-0.1-2.3,0-3.5c0.2-2.6,0.9-3.3,3.2-3.4c2.1-0.1,3.3,0.8,3.7,3.1
			c0.2,1.1,0.1,2.3,0.1,3.5c0,44.6,0,89.2,0,133.8c0,1.2,0.1,2.4-0.1,3.5c-0.3,1.6-2.2,3.1-3.5,3c-1.4-0.1-3.1-1.6-3.3-3.2
			c-0.2-1.3-0.1-2.7-0.1-4C352,190.8,352,168.5,352,146.2z"/>
		<path fill="#603813" d="M291.1,149.9c0-21.8,0-43.6,0-65.5c0-1.2,0-2.3,0-3.5c0.1-2,1.5-3.4,3.4-3.5c1.4-0.1,3.2,1.4,3.5,3
			c0.2,1,0.1,2,0.1,3c0,44.3,0,88.6,0,132.9c0,1,0.1,2-0.1,3c-0.3,1.6-2.2,3.1-3.5,3c-1.9-0.1-3.3-1.5-3.4-3.5c-0.1-1.2,0-2.3,0-3.5
			C291.1,193.5,291.1,171.7,291.1,149.9z"/>
		<path fill="#603813" d="M279,152.9c0-21.5,0-43,0-64.5c0-1.2-0.1-2.3,0-3.5c0.2-2.7,0.8-3.4,3.1-3.5c2.2-0.1,3.4,0.7,3.8,3
			c0.2,1.1,0.1,2.3,0.1,3.5c0,44,0,88,0,131.9c0,1,0.1,2,0,3c-0.2,1.6-2.2,3.3-3.8,3.4c-1.2,0-3-1.7-3.1-3.4c-0.1-1.3-0.1-2.7-0.1-4
			C279,196.8,279,174.9,279,152.9z"/>
		<path fill="#603813" d="M322.2,152.3c0,21.2,0,42.3,0,63.5c0,1.2,0.1,2.3,0,3.5c-0.1,2-1.7,3.9-3.1,3.9c-1.7,0-3.7-1.9-3.9-3.8
			c-0.1-0.7,0-1.3,0-2c0-43,0-86,0-129c0-1.3,0.1-2.7,0.4-3.9c0.4-1.5,2.6-3,3.7-2.9c1.2,0.2,2.7,2,2.9,3.7c0.1,1.2,0,2.3,0,3.5
			C322.2,109.9,322.2,131.1,322.2,152.3z"/>
		<path fill="#603813" d="M395.1,148.3c0,20.3,0,40.6,0,60.9c0,1.2,0,2.3,0,3.5c-0.1,2.5-0.8,3.4-2.6,3.6c-2,0.3-4-1.2-4.4-3.2
			c-0.2-0.8-0.1-1.7-0.1-2.5c0-41.5,0-82.9,0-124.4c0-1.8-0.2-3.6,1.5-5c1.2-1,2.6-1.2,3.7-0.6c0.8,0.5,1.5,1.7,1.7,2.7
			c0.3,1.3,0.1,2.6,0.1,4C395.2,107.7,395.2,128,395.1,148.3z"/>
		<path fill="#603813" d="M310.1,154.4c0,20.3,0,40.6,0,60.9c0,1.2,0.1,2.3,0,3.5c-0.1,2.5-0.8,3.3-2.6,3.5c-2,0.2-3.9-1.2-4.3-3.3
			c-0.1-0.8-0.1-1.7-0.1-2.5c0-41.5,0-82.9,0-124.4c0-1.8-0.3-3.9,1.6-4.9c1.1-0.6,2.6-0.9,3.7-0.6c0.8,0.2,1.4,1.7,1.7,2.7
			c0.3,1.3,0.1,2.6,0.1,4C310.1,113.7,310.1,134,310.1,154.4z"/>
		<path fill="#603813" d="M176.2,152.8c0,20.1,0,40.3,0,60.4c0,1.2,0,2.3,0,3.5c-0.1,2-1.5,3.4-3.3,3.5c-1.4,0.1-3.2-1.4-3.6-3
			c-0.2-1-0.1-2-0.1-3c0-40.9,0-81.9,0-122.8c0-1-0.1-2,0.1-3c0.3-1.6,2.1-3.1,3.5-3.1c1.9,0,3.3,1.5,3.4,3.5c0.1,1.2,0,2.3,0,3.5
			C176.2,112.5,176.2,132.7,176.2,152.8z"/>
		<path fill="#603813" d="M7.1,149.6c0,19.1,0,38.3,0,57.4c0,1.3,0.1,2.7-0.1,4c-0.2,1.7-1.9,3.2-3.3,3.3c-1.6,0.1-3.4-1.5-3.6-3.5
			c-0.1-1.1-0.1-2.3-0.1-3.5c0-38.6,0-77.2,0-115.9c0-1.2-0.1-2.3,0-3.5c0.2-1.6,1.8-3.1,3.3-3.2C5,84.7,6.8,86.4,7,88.2
			c0.1,1.2,0,2.3,0,3.5C7.1,111,7.1,130.3,7.1,149.6C7.1,149.6,7.1,149.6,7.1,149.6z"/>
	</g>
	<g>
		<path fill="#603813" d="M859.3,146.4c0-37.5,0-75,0-112.5c0-1.3-0.1-2.7,0.1-4c0.3-2.2,2.1-3.7,4.1-3.6c1.8,0.1,3.4,1.5,3.7,3.4
			c0.1,1,0.1,2,0.1,3c0,76,0,152,0,228c0,1.2,0.1,2.4-0.1,3.5c-0.3,2.1-1.4,3.1-3.2,3.2c-2.2,0.1-4.2-1.1-4.5-3.1
			c-0.3-1.5-0.1-3-0.1-4.5C859.3,222,859.3,184.2,859.3,146.4z"/>
		<path fill="#603813" d="M855.1,156.3c0,33.5,0,67,0,100.5c0,1.3,0.1,2.7,0,4c-0.3,2.4-2,3.7-4.5,3.6c-2-0.1-3-1.1-3.3-3.6
			c-0.1-1.1,0-2.3,0-3.5c0-67.3,0-134.6,0-201.9c0-1.8,0.2-3.6,0.6-5.4c0.3-1.3,1.1-2.6,2.6-2.6c1.7,0,3.3,0.7,3.9,2.5
			c0.4,1.4,0.6,2.9,0.7,4.4c0.1,9.7,0,19.3,0,29C855.1,107.7,855.1,132,855.1,156.3z"/>
		<path fill="#603813" d="M879.2,160.4c0,35,0,70,0,105c0,1.3,0.1,2.7,0,4c-0.1,1.9-2.3,3.8-3.9,3.7c-1.2,0-2.8-1.8-3-3.5
			c-0.1-1,0-2,0-3c0-71.2,0-142.3,0-213.5c0-1.2-0.3-2.5,0.1-3.5c0.6-1.2,1.7-2.6,2.9-3c0.8-0.2,2.3,1,3.1,1.9
			c0.6,0.7,0.8,1.8,0.9,2.8c0.1,1.1,0,2.3,0,3.5C879.2,90.1,879.2,125.3,879.2,160.4z"/>
		<path fill="#603813" d="M465.3,163.5c0,35,0,70,0,105c0,1.3,0.1,2.7,0,4c-0.1,1.6-1.7,3.5-2.9,3.7c-1.7,0.2-3.9-1.7-4.1-3.6
			c-0.1-1.2,0-2.3,0-3.5c0-70.2,0-140.3,0-210.5c0-1.3-0.1-2.7,0.1-4c0.3-2,2.4-3.5,4.4-3.2c1.7,0.2,2.4,1.2,2.6,3.6
			c0.1,1.2,0,2.3,0,3.5C465.3,93.5,465.3,128.5,465.3,163.5z"/>
		<path fill="#603813" d="M701.3,143.4c0-27.3,0-54.7,0-82c0-1.8,0.3-3.6,0.6-5.4c0.3-1.3,1.1-2.6,2.7-2.6c1.7,0.1,3.2,0.8,3.9,2.5
			c0.3,0.8,0.5,1.6,0.6,2.4c0.1,1,0,2,0,3c0,54.3,0,108.6,0,163c0,1.8-0.3,3.6-0.6,5.4c-0.4,1.8-1.6,2.9-3.6,2.7
			c-1.8-0.2-3.3-1.6-3.6-3.6c-0.2-1.3-0.1-2.7-0.1-4C701.3,197.7,701.3,170.5,701.3,143.4z"/>
		<path fill="#603813" d="M477.7,154.4c0,10,0,20,0,30c-0.1,10-0.3,20-0.3,30c0,8.6,0.2,17.2,0.2,25.8c0,1.3-0.2,2.6-0.3,3.9
			c-0.3,2.5-0.9,3.3-2.8,3.4c-1.8,0.1-3.7-1.2-4.1-2.9c-0.2-1-0.1-2-0.1-3c0-58.3,0-116.6,0-175c0-1.3,0-2.7,0.4-3.9
			c0.6-1.7,2.9-2.6,4.6-2.1c1.4,0.5,2.8,2.6,2.6,4.4c-0.9,10.5-0.3,21-0.3,31.4c0,10-0.2,20-0.3,30c-0.1,9.4,0,18.7,0,28.1
			C477.5,154.4,477.6,154.4,477.7,154.4z"/>
		<path fill="#603813" d="M550.3,157.7c0,29.5,0,59,0,88.5c0,1.2,0,2.3,0,3.5c-0.1,2.7-0.9,3.7-2.9,3.8c-2,0.1-3.7-1.4-4.1-3.6
			c-0.1-0.8,0-1.7,0-2.5c0-59.6,0-119.3,0-178.9c0-1.3,0.1-2.7,0.4-3.9c0.4-1.5,2.5-3,3.6-2.9c1.2,0.1,2.8,2,2.9,3.6
			c0.1,1.3,0,2.7,0,4C550.3,98.7,550.3,128.2,550.3,157.7z"/>
		<path fill="#603813" d="M884.2,146.9c0-29.2,0-58.3,0-87.5c0-1.2,0-2.3,0-3.5c0.2-2.8,1-3.6,3.6-3.6c2.4,0,3.2,0.8,3.4,3.3
			c0.1,1.2,0,2.3,0,3.5c0,59,0,117.9,0,176.9c0,1,0,2,0,3c-0.1,2.3-1.6,4.2-3.4,4.3c-1.7,0.1-3.5-1.7-3.6-4c-0.1-1.2,0-2.3,0-3.5
			C884.2,206.2,884.2,176.5,884.2,146.9z"/>
		<path fill="#603813" d="M811.2,164.4c0-28.7,0-57.3,0-86c0-1.2,0-2.3,0-3.5c0.1-2,1.6-3.4,3.4-3.5c1.4,0,3.2,1.4,3.5,3
			c0.2,1,0.1,2,0.1,3c0,58,0,116,0,173.9c0,1,0.1,2-0.1,3c-0.3,1.6-2.2,3-3.6,3c-1.8-0.1-3.2-1.5-3.4-3.5c-0.1-1.2,0-2.3,0-3.5
			C811.2,221.7,811.2,193,811.2,164.4z"/>
		<path fill="#603813" d="M677.2,151.9c0-28.3,0-56.6,0-85c0-1.2-0.1-2.3,0-3.5c0.2-2.3,1.9-4.1,3.6-4c1.6,0.1,3.1,1.8,3.3,3.8
			c0.1,0.8,0,1.7,0,2.5c0,57.6,0,115.3,0,172.9c0,0.7,0,1.3,0,2c-0.2,3.1-1.5,4.2-4.4,3.8c-1.5-0.2-2.5-1-2.6-2.6
			c-0.1-1.3-0.1-2.7-0.1-4C677.2,209.2,677.2,180.5,677.2,151.9z"/>
		<path fill="#603813" d="M713.3,154.9c0-23.8,0-47.6,0-71.4c0-1.2-0.1-2.3,0-3.5c0.3-2.4,2-3.7,4.5-3.7c2,0.1,3,1.1,3.3,3.6
			c0.1,1.1,0,2.3,0,3.5c0,48.1,0,96.2,0,144.3c0,1.6-0.2,3.3-0.6,4.9c-0.4,1.6-1.8,2.6-3.3,2.6c-1.7,0-3.2-1.1-3.6-2.9
			c-0.3-1.4-0.4-2.9-0.4-4.4c0-22.5,0-44.9,0-67.4C713.3,158.5,713.3,156.7,713.3,154.9z"/>
		<path fill="#603813" d="M672.2,155.9c0,27,0,54,0,81c0,1.3,0.1,2.7-0.1,4c-0.2,1.6-2,3.1-3.4,3.2c-1.4,0-3.3-1.6-3.5-3
			c-0.1-1.1-0.1-2.3-0.1-3.5c0-54.6,0-109.3,0-163.9c0-0.8,0-1.7,0-2.5c0.2-3.1,1.5-4.2,4.4-3.7c1.5,0.2,2.4,1.1,2.5,2.6
			c0.1,1.3,0.1,2.7,0.1,4C672.2,101.2,672.2,128.6,672.2,155.9z"/>
		<path fill="#603813" d="M555.3,145.9c0-23.3,0-46.6,0-70c0-1.8,0.4-3.6,0.8-5.3c0.3-1.4,1.4-2.2,2.9-2.2c1.5,0,2.6,0.6,3.1,2
			c0.4,1.1,0.7,2.2,0.9,3.3c0.1,1,0,2,0,3c0,46.1,0,92.3,0,138.4c0,1,0,2,0,3c-0.2,2.9-1.7,5-3.8,5.1c-2,0.1-3.8-2-4-4.9
			c-0.1-1.2,0-2.3,0-3.5C555.3,191.9,555.3,168.9,555.3,145.9C555.3,145.9,555.3,145.9,555.3,145.9z"/>
		<path fill="#603813" d="M648.2,149.5c0,23.3,0,46.7,0,70c0,1.6,0,3.4-0.5,4.9c-0.4,1.1-1.7,2.3-2.7,2.4c-1,0.1-2.5-0.8-3.3-1.8
			c-0.8-1-1-2.4-1.3-3.7c-0.2-1,0-2,0-3c0-45.7,0-91.3,0-137c0-2.1,0.5-4.2,0.8-6.4c0.2-1.8,1.2-2.6,3-2.7c1.8,0,3.6,1.3,3.9,3.2
			c0.2,1.3,0.1,2.7,0.1,4C648.2,102.8,648.2,126.2,648.2,149.5z"/>
		<path fill="#603813" d="M538.3,145.6c0,26.6,0,53.3,0,79.9c0,1.2,0.1,2.3,0,3.5c-0.2,2.6-0.9,3.3-3.2,3.5
			c-2.1,0.1-3.3-0.8-3.7-3.1c-0.2-1.1-0.1-2.3-0.1-3.5c0-53.6,0-107.2,0-160.8c0-1.3-0.1-2.7,0.2-4c0.4-2.1,1.8-3,4-2.7
			c2,0.2,2.7,1,2.8,3.4c0.1,1.2,0,2.3,0,3.5C538.3,92,538.3,118.8,538.3,145.6z"/>
		<path fill="#603813" d="M519.2,156.4c0-26.3,0-52.6,0-79c0-1.2-0.1-2.3,0-3.5c0.2-2.8,1-3.6,3.6-3.6c2.5,0,3.3,0.9,3.4,3.8
			c0,1,0,2,0,3c0,53,0,106,0,158.9c0,1.3,0.1,2.7-0.1,4c-0.2,1.6-1.9,3.2-3.3,3.3c-1.6,0.1-3.4-1.6-3.6-3.5c-0.1-1.3-0.1-2.7-0.1-4
			C519.2,209.4,519.2,182.9,519.2,156.4z"/>
		<path fill="#603813" d="M782.1,148.4c0,22.1,0,44.3,0,66.4c0,1.2,0.1,2.3,0,3.5c-0.3,3-2.2,5.1-4.5,4.9c-1.7-0.1-3.1-2.2-3.3-5
			c-0.1-1.2,0-2.3,0-3.5c0-41.3,0-82.6,0-123.9c0-3.8,0-7.7,0-11.5c0-1-0.1-2,0.1-3c0.4-2.1,1.5-3,3.2-3.1c2.3-0.1,4.1,1.1,4.4,3.2
			c0.2,1.3,0.1,2.7,0.1,4C782.1,103.1,782.1,125.8,782.1,148.4z"/>
		<path fill="#603813" d="M696.3,158.9c0,25.6,0,51.3,0,76.9c0,1.3,0.1,2.7,0,4c-0.1,2-1.5,3.4-3.4,3.5c-1.4,0-3.2-1.5-3.5-3
			c-0.2-1-0.1-2-0.1-3c0-52.6,0-105.3,0-157.9c0-1.8-0.4-3.7,1.6-4.9c2.3-1.4,4.8-0.6,5.3,2c0.3,1.3,0.1,2.7,0.1,4
			C696.3,106.6,696.3,132.8,696.3,158.9z"/>
		<path fill="#603813" d="M495.1,150.6c0-25.7,0-51.3,0-77c0-1.2,0-2.3,0-3.5c0.1-2.7,0.9-3.7,2.9-3.8c2-0.1,3.8,1.4,4.1,3.6
			c0.1,0.8,0,1.7,0,2.5c0,52,0,104,0,155.9c0,1.6-0.2,3.4-0.9,4.7c-0.5,1-2.3,2.1-3,1.9c-1.2-0.4-2.3-1.8-2.9-3
			c-0.5-1.1-0.2-2.6-0.2-4C495.1,202.3,495.1,176.4,495.1,150.6z"/>
		<path fill="#603813" d="M636.1,159.9c0,22,0,44,0,66c0,1.8-0.4,3.6-0.8,5.3c-0.3,1.4-1.4,2.2-2.9,2.2c-1.8,0.1-2.9-0.7-3.3-2.4
			c-0.4-1.6-0.7-3.2-0.8-4.8c-0.1-12.7,0-25.3,0-38c0-31.2,0-62.3,0-93.5c0-1.3-0.1-2.7,0.1-4c0.4-2.9,1.9-4.4,4-4.3
			c2,0.1,3.4,1.7,3.8,4.5c0.1,1.1,0,2.3,0,3.5C636.1,116.2,636.1,138,636.1,159.9z"/>
		<path fill="#603813" d="M490.1,149.7c0,22,0,44,0,66c0,1.5,0,3-0.3,4.4c-0.4,1.8-1.8,3-3.5,3c-1.7,0.1-3.1-1.1-3.6-2.9
			c-0.3-0.9-0.3-1.9-0.4-2.9c-0.1-1.7,0-3.3,0-5c0-42.6,0-85.3,0-127.9c0-1.3-0.1-2.7,0-4c0.2-2.6,1.9-4.2,4.1-4.1
			c2,0.1,3.5,1.6,3.7,3.9c0.1,1.2,0,2.3,0,3.5C490.1,105.7,490.1,127.7,490.1,149.7z"/>
		<path fill="#603813" d="M794.2,158.4c0,21.6,0,43.3,0,64.9c0,1.2,0.1,2.3,0,3.5c-0.2,2-1.7,3.4-3.5,3.6c-2,0.2-3.2-0.8-3.6-2.6
			c-0.4-1.8-0.6-3.6-0.6-5.4c0-36.5,0-72.9,0-109.4c0-7,0-14,0-21c0-1.4,0.2-3,0.8-4.3c1.3-2.8,4.8-2.9,6.1-0.1
			c0.7,1.6,0.9,3.5,0.9,5.3C794.2,114.8,794.2,136.6,794.2,158.4z"/>
		<path fill="#603813" d="M568.1,144.9c0-24.8,0-49.6,0-74.5c0-1.2-0.1-2.3,0-3.5c0.1-2.5,0.8-3.3,2.6-3.5c1.7-0.2,3.8,1.1,4.2,2.8
			c0.2,0.9,0.1,2,0.1,3c0,50.8,0,101.6,0,152.4c0,1.6,0.2,3.3-1.2,4.6c-1.3,1.2-2.7,1.6-4.1,0.8c-0.8-0.5-1.4-1.7-1.6-2.8
			c-0.3-1.3-0.1-2.7-0.1-4C568.1,195.2,568.1,170,568.1,144.9z"/>
		<path fill="#603813" d="M580.2,149.4c0-24.8,0-49.6,0-74.5c0-1.3-0.1-2.7,0.1-4c0.2-1.7,1.9-3.4,3.1-3.4c1.6,0.1,3.6,1.8,3.8,3.4
			c0.1,1.2,0,2.3,0,3.5c0,49.6,0,99.3,0,148.9c0,1.3,0.1,2.7-0.1,4c-0.4,2.3-1.6,3.2-3.8,3c-2.3-0.1-3-0.9-3.1-3.5
			c-0.1-1.2,0-2.3,0-3.5C580.2,198.7,580.2,174,580.2,149.4z"/>
		<path fill="#603813" d="M611.3,143.9c0,24.5,0,48.9,0,73.4c0,1.3,0.1,2.7,0,4c-0.2,2.3-0.9,3-3,3.1c-2.1,0.2-3.2-0.5-3.7-2.5
			c-0.3-1.1-0.3-2.3-0.3-3.5c0-49.8,0-99.6,0-149.3c0-1.6-0.2-3.3,1.2-4.6c1.3-1.2,2.7-1.6,4.1-0.8c0.8,0.5,1.4,1.7,1.6,2.8
			c0.3,1.3,0.1,2.6,0.1,4C611.3,94.9,611.3,119.4,611.3,143.9z"/>
		<path fill="#603813" d="M507.2,143.4c0-23.8,0-47.7,0-71.5c0-1.3-0.1-2.7,0.1-4c0.2-1.7,1.9-3.4,3.2-3.3c1.7,0.1,3.6,1.8,3.7,3.4
			c0.1,1.2,0,2.3,0,3.5c0,48.3,0,96.6,0,145c0,1.2,0.1,2.3-0.1,3.5c-0.2,1.7-1.9,3.2-3.3,3.3c-1.6,0.1-3.4-1.5-3.6-3.4
			c-0.1-1.3-0.1-2.7-0.1-4C507.2,191.7,507.2,167.5,507.2,143.4z"/>
		<path fill="#603813" d="M592.2,145.3c0-23,0-45.9,0-68.9c0-1.2-0.1-2.3,0-3.5c0.2-2.7,0.8-3.4,3.1-3.6c2.2-0.1,3.4,0.7,3.8,3
			c0.2,1.1,0.1,2.3,0.1,3.5c0,46.9,0,93.9,0,140.8c0,1.2,0.1,2.3-0.1,3.5c-0.2,1.6-2,3.2-3.4,3.2c-1.4,0-3.2-1.5-3.4-3.1
			c-0.2-1.3-0.1-2.7-0.1-4C592.2,192.6,592.2,168.9,592.2,145.3z"/>
		<path fill="#603813" d="M653.2,160.8c0-22.6,0-45.3,0-67.9c0-1.3-0.1-2.7,0.1-4c0.2-1.9,2.1-3.6,3.6-3.4c1.4,0.1,3,1.7,3.3,3.3
			c0.1,1,0.1,2,0.1,3c0,46.1,0,92.2,0,138.3c0,1.3,0,2.7-0.3,3.9c-0.5,2-1.6,2.6-3.7,2.4c-2.1-0.2-2.8-0.9-2.9-3.2
			c-0.1-1.2,0-2.3,0-3.5C653.2,206.7,653.2,183.7,653.2,160.8z"/>
		<path fill="#603813" d="M823.2,146.4c0-22.2,0-44.3,0-66.5c0-1,0-2,0-3c0.2-2.8,1-3.6,3.6-3.6c2.5,0,3.3,0.9,3.4,3.8c0,1,0,2,0,3
			c0,44.6,0,89.3,0,133.9c0,1.3,0.1,2.7-0.1,4c-0.2,1.5-2.2,3-3.5,3c-1.4,0-3.2-1.6-3.4-3.2c-0.1-1.3-0.1-2.7-0.1-4
			C823.2,191.3,823.2,168.9,823.2,146.4z"/>
		<path fill="#603813" d="M799.2,146.2c0-22,0-43.9,0-65.9c0-1.2-0.1-2.3,0-3.5c0.2-2.6,0.9-3.3,3.2-3.4c2.1-0.1,3.3,0.8,3.7,3.1
			c0.2,1.1,0.1,2.3,0.1,3.5c0,44.6,0,89.2,0,133.8c0,1.2,0.1,2.4-0.1,3.5c-0.3,1.6-2.2,3.1-3.5,3c-1.4-0.1-3.1-1.6-3.3-3.2
			c-0.2-1.3-0.1-2.7-0.1-4C799.2,190.8,799.2,168.5,799.2,146.2z"/>
		<path fill="#603813" d="M738.2,149.9c0-21.8,0-43.6,0-65.5c0-1.2,0-2.3,0-3.5c0.1-2,1.5-3.4,3.4-3.5c1.4-0.1,3.2,1.4,3.5,3
			c0.2,1,0.1,2,0.1,3c0,44.3,0,88.6,0,132.9c0,1,0.1,2-0.1,3c-0.3,1.6-2.2,3.1-3.5,3c-1.9-0.1-3.3-1.5-3.4-3.5c-0.1-1.2,0-2.3,0-3.5
			C738.2,193.5,738.2,171.7,738.2,149.9z"/>
		<path fill="#603813" d="M726.2,152.9c0-21.5,0-43,0-64.5c0-1.2-0.1-2.3,0-3.5c0.2-2.7,0.8-3.4,3.1-3.5c2.2-0.1,3.4,0.7,3.8,3
			c0.2,1.1,0.1,2.3,0.1,3.5c0,44,0,88,0,131.9c0,1,0.1,2,0,3c-0.2,1.6-2.2,3.3-3.8,3.4c-1.2,0-3-1.7-3.1-3.4c-0.1-1.3-0.1-2.7-0.1-4
			C726.2,196.8,726.2,174.9,726.2,152.9z"/>
		<path fill="#603813" d="M769.3,152.3c0,21.2,0,42.3,0,63.5c0,1.2,0.1,2.3,0,3.5c-0.1,2-1.7,3.9-3.1,3.9c-1.7,0-3.7-1.9-3.9-3.8
			c-0.1-0.7,0-1.3,0-2c0-43,0-86,0-129c0-1.3,0.1-2.7,0.4-3.9c0.4-1.5,2.6-3,3.7-2.9c1.2,0.2,2.7,2,2.9,3.7c0.1,1.2,0,2.3,0,3.5
			C769.3,109.9,769.3,131.1,769.3,152.3z"/>
		<path fill="#603813" d="M842.3,148.3c0,20.3,0,40.6,0,60.9c0,1.2,0,2.3,0,3.5c-0.1,2.5-0.8,3.4-2.6,3.6c-2,0.3-4-1.2-4.4-3.2
			c-0.2-0.8-0.1-1.7-0.1-2.5c0-41.5,0-82.9,0-124.4c0-1.8-0.2-3.6,1.5-5c1.2-1,2.6-1.2,3.7-0.6c0.8,0.5,1.5,1.7,1.7,2.7
			c0.3,1.3,0.1,2.6,0.1,4C842.3,107.7,842.3,128,842.3,148.3z"/>
		<path fill="#603813" d="M757.2,154.4c0,20.3,0,40.6,0,60.9c0,1.2,0.1,2.3,0,3.5c-0.1,2.5-0.8,3.3-2.6,3.5c-2,0.2-3.9-1.2-4.3-3.3
			c-0.1-0.8-0.1-1.7-0.1-2.5c0-41.5,0-82.9,0-124.4c0-1.8-0.3-3.9,1.6-4.9c1.1-0.6,2.6-0.9,3.7-0.6c0.8,0.2,1.4,1.7,1.7,2.7
			c0.3,1.3,0.1,2.6,0.1,4C757.2,113.7,757.2,134,757.2,154.4z"/>
		<path fill="#603813" d="M623.3,152.8c0,20.1,0,40.3,0,60.4c0,1.2,0,2.3,0,3.5c-0.1,2-1.5,3.4-3.3,3.5c-1.4,0.1-3.2-1.4-3.6-3
			c-0.2-1-0.1-2-0.1-3c0-40.9,0-81.9,0-122.8c0-1-0.1-2,0.1-3c0.3-1.6,2.1-3.1,3.5-3.1c1.9,0,3.3,1.5,3.4,3.5c0.1,1.2,0,2.3,0,3.5
			C623.3,112.5,623.3,132.7,623.3,152.8z"/>
		<path fill="#603813" d="M454.2,149.6c0,19.1,0,38.3,0,57.4c0,1.3,0.1,2.7-0.1,4c-0.2,1.7-1.9,3.2-3.3,3.3
			c-1.6,0.1-3.4-1.5-3.6-3.5c-0.1-1.1-0.1-2.3-0.1-3.5c0-38.6,0-77.2,0-115.9c0-1.2-0.1-2.3,0-3.5c0.2-1.6,1.8-3.1,3.3-3.2
			c1.6-0.1,3.5,1.6,3.6,3.4c0.1,1.2,0,2.3,0,3.5C454.2,111,454.2,130.3,454.2,149.6C454.2,149.6,454.2,149.6,454.2,149.6z"/>
	</g>
</g>
<g>
	<g>
		<path fill="#603813" d="M1307.5,146.4c0-37.5,0-75,0-112.5c0-1.3-0.1-2.7,0.1-4c0.3-2.2,2.1-3.7,4.1-3.6c1.8,0.1,3.4,1.5,3.7,3.4
			c0.1,1,0.1,2,0.1,3c0,76,0,152,0,228c0,1.2,0.1,2.4-0.1,3.5c-0.3,2.1-1.4,3.1-3.2,3.2c-2.2,0.1-4.2-1.1-4.5-3.1
			c-0.3-1.5-0.1-3-0.1-4.5C1307.5,222,1307.5,184.2,1307.5,146.4z"/>
		<path fill="#603813" d="M1303.4,156.3c0,33.5,0,67,0,100.5c0,1.3,0.1,2.7,0,4c-0.3,2.4-2,3.7-4.5,3.6c-2-0.1-3-1.1-3.3-3.6
			c-0.1-1.1,0-2.3,0-3.5c0-67.3,0-134.6,0-201.9c0-1.8,0.2-3.6,0.6-5.4c0.3-1.3,1.1-2.6,2.6-2.6c1.7,0,3.3,0.7,3.9,2.5
			c0.4,1.4,0.6,2.9,0.7,4.4c0.1,9.7,0,19.3,0,29C1303.4,107.7,1303.4,132,1303.4,156.3z"/>
		<path fill="#603813" d="M1327.4,160.4c0,35,0,70,0,105c0,1.3,0.1,2.7,0,4c-0.1,1.9-2.3,3.8-3.9,3.7c-1.2,0-2.8-1.8-3-3.5
			c-0.1-1,0-2,0-3c0-71.2,0-142.3,0-213.5c0-1.2-0.3-2.5,0.1-3.5c0.6-1.2,1.7-2.6,2.9-3c0.8-0.2,2.3,1,3.1,1.9
			c0.6,0.7,0.8,1.8,0.9,2.8c0.1,1.1,0,2.3,0,3.5C1327.4,90.1,1327.4,125.3,1327.4,160.4z"/>
		<path fill="#603813" d="M913.5,163.5c0,35,0,70,0,105c0,1.3,0.1,2.7,0,4c-0.1,1.6-1.7,3.5-2.9,3.7c-1.7,0.2-3.9-1.7-4.1-3.6
			c-0.1-1.2,0-2.3,0-3.5c0-70.2,0-140.3,0-210.5c0-1.3-0.1-2.7,0.1-4c0.3-2,2.4-3.5,4.4-3.2c1.7,0.2,2.4,1.2,2.6,3.6
			c0.1,1.2,0,2.3,0,3.5C913.5,93.5,913.5,128.5,913.5,163.5z"/>
		<path fill="#603813" d="M1149.5,143.4c0-27.3,0-54.7,0-82c0-1.8,0.3-3.6,0.6-5.4c0.3-1.3,1.1-2.6,2.7-2.6c1.7,0.1,3.2,0.8,3.9,2.5
			c0.3,0.8,0.5,1.6,0.6,2.4c0.1,1,0,2,0,3c0,54.3,0,108.6,0,163c0,1.8-0.3,3.6-0.6,5.4c-0.4,1.8-1.6,2.9-3.6,2.7
			c-1.8-0.2-3.3-1.6-3.6-3.6c-0.2-1.3-0.1-2.7-0.1-4C1149.5,197.7,1149.5,170.5,1149.5,143.4z"/>
		<path fill="#603813" d="M925.9,154.4c0,10,0,20,0,30c-0.1,10-0.3,20-0.3,30c0,8.6,0.2,17.2,0.2,25.8c0,1.3-0.2,2.6-0.3,3.9
			c-0.3,2.5-0.9,3.3-2.8,3.4c-1.8,0.1-3.7-1.2-4.1-2.9c-0.2-1-0.1-2-0.1-3c0-58.3,0-116.6,0-175c0-1.3,0-2.7,0.4-3.9
			c0.6-1.7,2.9-2.6,4.6-2.1c1.4,0.5,2.8,2.6,2.6,4.4c-0.9,10.5-0.3,21-0.3,31.4c0,10-0.2,20-0.3,30c-0.1,9.4,0,18.7,0,28.1
			C925.7,154.4,925.8,154.4,925.9,154.4z"/>
		<path fill="#603813" d="M998.5,157.7c0,29.5,0,59,0,88.5c0,1.2,0,2.3,0,3.5c-0.1,2.7-0.9,3.7-2.9,3.8c-2,0.1-3.7-1.4-4.1-3.6
			c-0.1-0.8,0-1.7,0-2.5c0-59.6,0-119.3,0-178.9c0-1.3,0.1-2.7,0.4-3.9c0.4-1.5,2.5-3,3.6-2.9c1.2,0.1,2.8,2,2.9,3.6
			c0.1,1.3,0,2.7,0,4C998.5,98.7,998.5,128.2,998.5,157.7z"/>
		<path fill="#603813" d="M1332.4,146.9c0-29.2,0-58.3,0-87.5c0-1.2,0-2.3,0-3.5c0.2-2.8,1-3.6,3.6-3.6c2.4,0,3.2,0.8,3.4,3.3
			c0.1,1.2,0,2.3,0,3.5c0,59,0,117.9,0,176.9c0,1,0,2,0,3c-0.1,2.3-1.6,4.2-3.4,4.3c-1.7,0.1-3.5-1.7-3.6-4c-0.1-1.2,0-2.3,0-3.5
			C1332.4,206.2,1332.4,176.5,1332.4,146.9z"/>
		<path fill="#603813" d="M1259.4,164.4c0-28.7,0-57.3,0-86c0-1.2,0-2.3,0-3.5c0.1-2,1.6-3.4,3.4-3.5c1.4,0,3.2,1.4,3.5,3
			c0.2,1,0.1,2,0.1,3c0,58,0,116,0,173.9c0,1,0.1,2-0.1,3c-0.3,1.6-2.2,3-3.6,3c-1.8-0.1-3.2-1.5-3.4-3.5c-0.1-1.2,0-2.3,0-3.5
			C1259.4,221.7,1259.4,193,1259.4,164.4z"/>
		<path fill="#603813" d="M1125.5,151.9c0-28.3,0-56.6,0-85c0-1.2-0.1-2.3,0-3.5c0.2-2.3,1.9-4.1,3.6-4c1.6,0.1,3.1,1.8,3.3,3.8
			c0.1,0.8,0,1.7,0,2.5c0,57.6,0,115.3,0,172.9c0,0.7,0,1.3,0,2c-0.2,3.1-1.5,4.2-4.4,3.8c-1.5-0.2-2.5-1-2.6-2.6
			c-0.1-1.3-0.1-2.7-0.1-4C1125.5,209.2,1125.5,180.5,1125.5,151.9z"/>
		<path fill="#603813" d="M1161.5,154.9c0-23.8,0-47.6,0-71.4c0-1.2-0.1-2.3,0-3.5c0.3-2.4,2-3.7,4.5-3.7c2,0.1,3,1.1,3.3,3.6
			c0.1,1.1,0,2.3,0,3.5c0,48.1,0,96.2,0,144.3c0,1.6-0.2,3.3-0.6,4.9c-0.4,1.6-1.8,2.6-3.3,2.6c-1.7,0-3.2-1.1-3.6-2.9
			c-0.3-1.4-0.4-2.9-0.4-4.4c0-22.5,0-44.9,0-67.4C1161.5,158.5,1161.5,156.7,1161.5,154.9z"/>
		<path fill="#603813" d="M1120.5,155.9c0,27,0,54,0,81c0,1.3,0.1,2.7-0.1,4c-0.2,1.6-2,3.1-3.4,3.2c-1.4,0-3.3-1.6-3.5-3
			c-0.1-1.1-0.1-2.3-0.1-3.5c0-54.6,0-109.3,0-163.9c0-0.8,0-1.7,0-2.5c0.2-3.1,1.5-4.2,4.4-3.7c1.5,0.2,2.4,1.1,2.5,2.6
			c0.1,1.3,0.1,2.7,0.1,4C1120.5,101.2,1120.5,128.6,1120.5,155.9z"/>
		<path fill="#603813" d="M1003.5,145.9c0-23.3,0-46.6,0-70c0-1.8,0.4-3.6,0.8-5.3c0.3-1.4,1.4-2.2,2.9-2.2c1.5,0,2.6,0.6,3.1,2
			c0.4,1.1,0.7,2.2,0.9,3.3c0.1,1,0,2,0,3c0,46.1,0,92.3,0,138.4c0,1,0,2,0,3c-0.2,2.9-1.7,5-3.8,5.1c-2,0.1-3.8-2-4-4.9
			c-0.1-1.2,0-2.3,0-3.5C1003.5,191.9,1003.5,168.9,1003.5,145.9C1003.5,145.9,1003.5,145.9,1003.5,145.9z"/>
		<path fill="#603813" d="M1096.4,149.5c0,23.3,0,46.7,0,70c0,1.6,0,3.4-0.5,4.9c-0.4,1.1-1.7,2.3-2.7,2.4c-1,0.1-2.5-0.8-3.3-1.8
			c-0.8-1-1-2.4-1.3-3.7c-0.2-1,0-2,0-3c0-45.7,0-91.3,0-137c0-2.1,0.5-4.2,0.8-6.4c0.2-1.8,1.2-2.6,3-2.7c1.8,0,3.6,1.3,3.9,3.2
			c0.2,1.3,0.1,2.7,0.1,4C1096.4,102.8,1096.4,126.2,1096.4,149.5z"/>
		<path fill="#603813" d="M986.5,145.6c0,26.6,0,53.3,0,79.9c0,1.2,0.1,2.3,0,3.5c-0.2,2.6-0.9,3.3-3.2,3.5
			c-2.1,0.1-3.3-0.8-3.7-3.1c-0.2-1.1-0.1-2.3-0.1-3.5c0-53.6,0-107.2,0-160.8c0-1.3-0.1-2.7,0.2-4c0.4-2.1,1.8-3,4-2.7
			c2,0.2,2.7,1,2.8,3.4c0.1,1.2,0,2.3,0,3.5C986.5,92,986.5,118.8,986.5,145.6z"/>
		<path fill="#603813" d="M967.4,156.4c0-26.3,0-52.6,0-79c0-1.2-0.1-2.3,0-3.5c0.2-2.8,1-3.6,3.6-3.6c2.5,0,3.3,0.9,3.4,3.8
			c0,1,0,2,0,3c0,53,0,106,0,158.9c0,1.3,0.1,2.7-0.1,4c-0.2,1.6-1.9,3.2-3.3,3.3c-1.6,0.1-3.4-1.6-3.6-3.5c-0.1-1.3-0.1-2.7-0.1-4
			C967.4,209.4,967.4,182.9,967.4,156.4z"/>
		<path fill="#603813" d="M1230.4,148.4c0,22.1,0,44.3,0,66.4c0,1.2,0.1,2.3,0,3.5c-0.3,3-2.2,5.1-4.5,4.9c-1.7-0.1-3.1-2.2-3.3-5
			c-0.1-1.2,0-2.3,0-3.5c0-41.3,0-82.6,0-123.9c0-3.8,0-7.7,0-11.5c0-1-0.1-2,0.1-3c0.4-2.1,1.5-3,3.2-3.1c2.3-0.1,4.1,1.1,4.4,3.2
			c0.2,1.3,0.1,2.7,0.1,4C1230.4,103.1,1230.4,125.8,1230.4,148.4z"/>
		<path fill="#603813" d="M1144.5,158.9c0,25.6,0,51.3,0,76.9c0,1.3,0.1,2.7,0,4c-0.1,2-1.5,3.4-3.4,3.5c-1.4,0-3.2-1.5-3.5-3
			c-0.2-1-0.1-2-0.1-3c0-52.6,0-105.3,0-157.9c0-1.8-0.4-3.7,1.6-4.9c2.3-1.4,4.8-0.6,5.3,2c0.3,1.3,0.1,2.7,0.1,4
			C1144.5,106.6,1144.5,132.8,1144.5,158.9z"/>
		<path fill="#603813" d="M943.4,150.6c0-25.7,0-51.3,0-77c0-1.2,0-2.3,0-3.5c0.1-2.7,0.9-3.7,2.9-3.8c2-0.1,3.8,1.4,4.1,3.6
			c0.1,0.8,0,1.7,0,2.5c0,52,0,104,0,155.9c0,1.6-0.2,3.4-0.9,4.7c-0.5,1-2.3,2.1-3,1.9c-1.2-0.4-2.3-1.8-2.9-3
			c-0.5-1.1-0.2-2.6-0.2-4C943.4,202.3,943.4,176.4,943.4,150.6z"/>
		<path fill="#603813" d="M1084.4,159.9c0,22,0,44,0,66c0,1.8-0.4,3.6-0.8,5.3c-0.3,1.4-1.4,2.2-2.9,2.2c-1.8,0.1-2.9-0.7-3.3-2.4
			c-0.4-1.6-0.7-3.2-0.8-4.8c-0.1-12.7,0-25.3,0-38c0-31.2,0-62.3,0-93.5c0-1.3-0.1-2.7,0.1-4c0.4-2.9,1.9-4.4,4-4.3
			c2,0.1,3.4,1.7,3.8,4.5c0.1,1.1,0,2.3,0,3.5C1084.4,116.2,1084.4,138,1084.4,159.9z"/>
		<path fill="#603813" d="M938.4,149.7c0,22,0,44,0,66c0,1.5,0,3-0.3,4.4c-0.4,1.8-1.8,3-3.5,3c-1.7,0.1-3.1-1.1-3.6-2.9
			c-0.3-0.9-0.3-1.9-0.4-2.9c-0.1-1.7,0-3.3,0-5c0-42.6,0-85.3,0-127.9c0-1.3-0.1-2.7,0-4c0.2-2.6,1.9-4.2,4.1-4.1
			c2,0.1,3.5,1.6,3.7,3.9c0.1,1.2,0,2.3,0,3.5C938.4,105.7,938.4,127.7,938.4,149.7z"/>
		<path fill="#603813" d="M1242.4,158.4c0,21.6,0,43.3,0,64.9c0,1.2,0.1,2.3,0,3.5c-0.2,2-1.7,3.4-3.5,3.6c-2,0.2-3.2-0.8-3.6-2.6
			c-0.4-1.8-0.6-3.6-0.6-5.4c0-36.5,0-72.9,0-109.4c0-7,0-14,0-21c0-1.4,0.2-3,0.8-4.3c1.3-2.8,4.8-2.9,6.1-0.1
			c0.7,1.6,0.9,3.5,0.9,5.3C1242.4,114.8,1242.4,136.6,1242.4,158.4z"/>
		<path fill="#603813" d="M1016.4,144.9c0-24.8,0-49.6,0-74.5c0-1.2-0.1-2.3,0-3.5c0.1-2.5,0.8-3.3,2.6-3.5c1.7-0.2,3.8,1.1,4.2,2.8
			c0.2,0.9,0.1,2,0.1,3c0,50.8,0,101.6,0,152.4c0,1.6,0.2,3.3-1.2,4.6c-1.3,1.2-2.7,1.6-4.1,0.8c-0.8-0.5-1.4-1.7-1.6-2.8
			c-0.3-1.3-0.1-2.7-0.1-4C1016.4,195.2,1016.4,170,1016.4,144.9z"/>
		<path fill="#603813" d="M1028.4,149.4c0-24.8,0-49.6,0-74.5c0-1.3-0.1-2.7,0.1-4c0.2-1.7,1.9-3.4,3.1-3.4c1.6,0.1,3.6,1.8,3.8,3.4
			c0.1,1.2,0,2.3,0,3.5c0,49.6,0,99.3,0,148.9c0,1.3,0.1,2.7-0.1,4c-0.4,2.3-1.6,3.2-3.8,3c-2.3-0.1-3-0.9-3.1-3.5
			c-0.1-1.2,0-2.3,0-3.5C1028.4,198.7,1028.4,174,1028.4,149.4z"/>
		<path fill="#603813" d="M1059.5,143.9c0,24.5,0,48.9,0,73.4c0,1.3,0.1,2.7,0,4c-0.2,2.3-0.9,3-3,3.1c-2.1,0.2-3.2-0.5-3.7-2.5
			c-0.3-1.1-0.3-2.3-0.3-3.5c0-49.8,0-99.6,0-149.3c0-1.6-0.2-3.3,1.2-4.6c1.3-1.2,2.7-1.6,4.1-0.8c0.8,0.5,1.4,1.7,1.6,2.8
			c0.3,1.3,0.1,2.6,0.1,4C1059.5,94.9,1059.5,119.4,1059.5,143.9z"/>
		<path fill="#603813" d="M955.4,143.4c0-23.8,0-47.7,0-71.5c0-1.3-0.1-2.7,0.1-4c0.2-1.7,1.9-3.4,3.2-3.3c1.7,0.1,3.6,1.8,3.7,3.4
			c0.1,1.2,0,2.3,0,3.5c0,48.3,0,96.6,0,145c0,1.2,0.1,2.3-0.1,3.5c-0.2,1.7-1.9,3.2-3.3,3.3c-1.6,0.1-3.4-1.5-3.6-3.4
			c-0.1-1.3-0.1-2.7-0.1-4C955.4,191.7,955.4,167.5,955.4,143.4z"/>
		<path fill="#603813" d="M1040.4,145.3c0-23,0-45.9,0-68.9c0-1.2-0.1-2.3,0-3.5c0.2-2.7,0.8-3.4,3.1-3.6c2.2-0.1,3.4,0.7,3.8,3
			c0.2,1.1,0.1,2.3,0.1,3.5c0,46.9,0,93.9,0,140.8c0,1.2,0.1,2.3-0.1,3.5c-0.2,1.6-2,3.2-3.4,3.2c-1.4,0-3.2-1.5-3.4-3.1
			c-0.2-1.3-0.1-2.7-0.1-4C1040.4,192.6,1040.4,168.9,1040.4,145.3z"/>
		<path fill="#603813" d="M1101.4,160.8c0-22.6,0-45.3,0-67.9c0-1.3-0.1-2.7,0.1-4c0.2-1.9,2.1-3.6,3.6-3.4c1.4,0.1,3,1.7,3.3,3.3
			c0.1,1,0.1,2,0.1,3c0,46.1,0,92.2,0,138.3c0,1.3,0,2.7-0.3,3.9c-0.5,2-1.6,2.6-3.7,2.4c-2.1-0.2-2.8-0.9-2.9-3.2
			c-0.1-1.2,0-2.3,0-3.5C1101.4,206.7,1101.4,183.7,1101.4,160.8z"/>
		<path fill="#603813" d="M1271.5,146.4c0-22.2,0-44.3,0-66.5c0-1,0-2,0-3c0.2-2.8,1-3.6,3.6-3.6c2.5,0,3.3,0.9,3.4,3.8c0,1,0,2,0,3
			c0,44.6,0,89.3,0,133.9c0,1.3,0.1,2.7-0.1,4c-0.2,1.5-2.2,3-3.5,3c-1.4,0-3.2-1.6-3.4-3.2c-0.1-1.3-0.1-2.7-0.1-4
			C1271.5,191.3,1271.5,168.9,1271.5,146.4z"/>
		<path fill="#603813" d="M1247.4,146.2c0-22,0-43.9,0-65.9c0-1.2-0.1-2.3,0-3.5c0.2-2.6,0.9-3.3,3.2-3.4c2.1-0.1,3.3,0.8,3.7,3.1
			c0.2,1.1,0.1,2.3,0.1,3.5c0,44.6,0,89.2,0,133.8c0,1.2,0.1,2.4-0.1,3.5c-0.3,1.6-2.2,3.1-3.5,3c-1.4-0.1-3.1-1.6-3.3-3.2
			c-0.2-1.3-0.1-2.7-0.1-4C1247.4,190.8,1247.4,168.5,1247.4,146.2z"/>
		<path fill="#603813" d="M1186.4,149.9c0-21.8,0-43.6,0-65.5c0-1.2,0-2.3,0-3.5c0.1-2,1.5-3.4,3.4-3.5c1.4-0.1,3.2,1.4,3.5,3
			c0.2,1,0.1,2,0.1,3c0,44.3,0,88.6,0,132.9c0,1,0.1,2-0.1,3c-0.3,1.6-2.2,3.1-3.5,3c-1.9-0.1-3.3-1.5-3.4-3.5c-0.1-1.2,0-2.3,0-3.5
			C1186.4,193.5,1186.4,171.7,1186.4,149.9z"/>
		<path fill="#603813" d="M1174.4,152.9c0-21.5,0-43,0-64.5c0-1.2-0.1-2.3,0-3.5c0.2-2.7,0.8-3.4,3.1-3.5c2.2-0.1,3.4,0.7,3.8,3
			c0.2,1.1,0.1,2.3,0.1,3.5c0,44,0,88,0,131.9c0,1,0.1,2,0,3c-0.2,1.6-2.2,3.3-3.8,3.4c-1.2,0-3-1.7-3.1-3.4c-0.1-1.3-0.1-2.7-0.1-4
			C1174.4,196.8,1174.4,174.9,1174.4,152.9z"/>
		<path fill="#603813" d="M1217.5,152.3c0,21.2,0,42.3,0,63.5c0,1.2,0.1,2.3,0,3.5c-0.1,2-1.7,3.9-3.1,3.9c-1.7,0-3.7-1.9-3.9-3.8
			c-0.1-0.7,0-1.3,0-2c0-43,0-86,0-129c0-1.3,0.1-2.7,0.4-3.9c0.4-1.5,2.6-3,3.7-2.9c1.2,0.2,2.7,2,2.9,3.7c0.1,1.2,0,2.3,0,3.5
			C1217.5,109.9,1217.5,131.1,1217.5,152.3z"/>
		<path fill="#603813" d="M1290.5,148.3c0,20.3,0,40.6,0,60.9c0,1.2,0,2.3,0,3.5c-0.1,2.5-0.8,3.4-2.6,3.6c-2,0.3-4-1.2-4.4-3.2
			c-0.2-0.8-0.1-1.7-0.1-2.5c0-41.5,0-82.9,0-124.4c0-1.8-0.2-3.6,1.5-5c1.2-1,2.6-1.2,3.7-0.6c0.8,0.5,1.5,1.7,1.7,2.7
			c0.3,1.3,0.1,2.6,0.1,4C1290.5,107.7,1290.5,128,1290.5,148.3z"/>
		<path fill="#603813" d="M1205.5,154.4c0,20.3,0,40.6,0,60.9c0,1.2,0.1,2.3,0,3.5c-0.1,2.5-0.8,3.3-2.6,3.5c-2,0.2-3.9-1.2-4.3-3.3
			c-0.1-0.8-0.1-1.7-0.1-2.5c0-41.5,0-82.9,0-124.4c0-1.8-0.3-3.9,1.6-4.9c1.1-0.6,2.6-0.9,3.7-0.6c0.8,0.2,1.4,1.7,1.7,2.7
			c0.3,1.3,0.1,2.6,0.1,4C1205.5,113.7,1205.5,134,1205.5,154.4z"/>
		<path fill="#603813" d="M1071.5,152.8c0,20.1,0,40.3,0,60.4c0,1.2,0,2.3,0,3.5c-0.1,2-1.5,3.4-3.3,3.5c-1.4,0.1-3.2-1.4-3.6-3
			c-0.2-1-0.1-2-0.1-3c0-40.9,0-81.9,0-122.8c0-1-0.1-2,0.1-3c0.3-1.6,2.1-3.1,3.5-3.1c1.9,0,3.3,1.5,3.4,3.5c0.1,1.2,0,2.3,0,3.5
			C1071.5,112.5,1071.5,132.7,1071.5,152.8z"/>
		<path fill="#603813" d="M902.4,149.6c0,19.1,0,38.3,0,57.4c0,1.3,0.1,2.7-0.1,4c-0.2,1.7-1.9,3.2-3.3,3.3
			c-1.6,0.1-3.4-1.5-3.6-3.5c-0.1-1.1-0.1-2.3-0.1-3.5c0-38.6,0-77.2,0-115.9c0-1.2-0.1-2.3,0-3.5c0.2-1.6,1.8-3.1,3.3-3.2
			c1.6-0.1,3.5,1.6,3.6,3.4c0.1,1.2,0,2.3,0,3.5C902.4,111,902.4,130.3,902.4,149.6C902.4,149.6,902.4,149.6,902.4,149.6z"/>
	</g>
	<g>
		<path fill="#603813" d="M1754.7,146.4c0-37.5,0-75,0-112.5c0-1.3-0.1-2.7,0.1-4c0.3-2.2,2.1-3.7,4.1-3.6c1.8,0.1,3.4,1.5,3.7,3.4
			c0.1,1,0.1,2,0.1,3c0,76,0,152,0,228c0,1.2,0.1,2.4-0.1,3.5c-0.3,2.1-1.4,3.1-3.2,3.2c-2.2,0.1-4.2-1.1-4.5-3.1
			c-0.3-1.5-0.1-3-0.1-4.5C1754.7,222,1754.7,184.2,1754.7,146.4z"/>
		<path fill="#603813" d="M1750.5,156.3c0,33.5,0,67,0,100.5c0,1.3,0.1,2.7,0,4c-0.3,2.4-2,3.7-4.5,3.6c-2-0.1-3-1.1-3.3-3.6
			c-0.1-1.1,0-2.3,0-3.5c0-67.3,0-134.6,0-201.9c0-1.8,0.2-3.6,0.6-5.4c0.3-1.3,1.1-2.6,2.6-2.6c1.7,0,3.3,0.7,3.9,2.5
			c0.4,1.4,0.6,2.9,0.7,4.4c0.1,9.7,0,19.3,0,29C1750.5,107.7,1750.5,132,1750.5,156.3z"/>
		<path fill="#603813" d="M1774.5,160.4c0,35,0,70,0,105c0,1.3,0.1,2.7,0,4c-0.1,1.9-2.3,3.8-3.9,3.7c-1.2,0-2.8-1.8-3-3.5
			c-0.1-1,0-2,0-3c0-71.2,0-142.3,0-213.5c0-1.2-0.3-2.5,0.1-3.5c0.6-1.2,1.7-2.6,2.9-3c0.8-0.2,2.3,1,3.1,1.9
			c0.6,0.7,0.8,1.8,0.9,2.8c0.1,1.1,0,2.3,0,3.5C1774.5,90.1,1774.5,125.3,1774.5,160.4z"/>
		<path fill="#603813" d="M1360.6,163.5c0,35,0,70,0,105c0,1.3,0.1,2.7,0,4c-0.1,1.6-1.7,3.5-2.9,3.7c-1.7,0.2-3.9-1.7-4.1-3.6
			c-0.1-1.2,0-2.3,0-3.5c0-70.2,0-140.3,0-210.5c0-1.3-0.1-2.7,0.1-4c0.3-2,2.4-3.5,4.4-3.2c1.7,0.2,2.4,1.2,2.6,3.6
			c0.1,1.2,0,2.3,0,3.5C1360.6,93.5,1360.6,128.5,1360.6,163.5z"/>
		<path fill="#603813" d="M1596.6,143.4c0-27.3,0-54.7,0-82c0-1.8,0.3-3.6,0.6-5.4c0.3-1.3,1.1-2.6,2.7-2.6c1.7,0.1,3.2,0.8,3.9,2.5
			c0.3,0.8,0.5,1.6,0.6,2.4c0.1,1,0,2,0,3c0,54.3,0,108.6,0,163c0,1.8-0.3,3.6-0.6,5.4c-0.4,1.8-1.6,2.9-3.6,2.7
			c-1.8-0.2-3.3-1.6-3.6-3.6c-0.2-1.3-0.1-2.7-0.1-4C1596.6,197.7,1596.6,170.5,1596.6,143.4z"/>
		<path fill="#603813" d="M1373.1,154.4c0,10,0,20,0,30c-0.1,10-0.3,20-0.3,30c0,8.6,0.2,17.2,0.2,25.8c0,1.3-0.2,2.6-0.3,3.9
			c-0.3,2.5-0.9,3.3-2.8,3.4c-1.8,0.1-3.7-1.2-4.1-2.9c-0.2-1-0.1-2-0.1-3c0-58.3,0-116.6,0-175c0-1.3,0-2.7,0.4-3.9
			c0.6-1.7,2.9-2.6,4.6-2.1c1.4,0.5,2.8,2.6,2.6,4.4c-0.9,10.5-0.3,21-0.3,31.4c0,10-0.2,20-0.3,30c-0.1,9.4,0,18.7,0,28.1
			C1372.8,154.4,1372.9,154.4,1373.1,154.4z"/>
		<path fill="#603813" d="M1445.6,157.7c0,29.5,0,59,0,88.5c0,1.2,0,2.3,0,3.5c-0.1,2.7-0.9,3.7-2.9,3.8c-2,0.1-3.7-1.4-4.1-3.6
			c-0.1-0.8,0-1.7,0-2.5c0-59.6,0-119.3,0-178.9c0-1.3,0.1-2.7,0.4-3.9c0.4-1.5,2.5-3,3.6-2.9c1.2,0.1,2.8,2,2.9,3.6
			c0.1,1.3,0,2.7,0,4C1445.6,98.7,1445.6,128.2,1445.6,157.7z"/>
		<path fill="#603813" d="M1779.5,146.9c0-29.2,0-58.3,0-87.5c0-1.2,0-2.3,0-3.5c0.2-2.8,1-3.6,3.6-3.6c2.4,0,3.2,0.8,3.4,3.3
			c0.1,1.2,0,2.3,0,3.5c0,59,0,117.9,0,176.9c0,1,0,2,0,3c-0.1,2.3-1.6,4.2-3.4,4.3c-1.7,0.1-3.5-1.7-3.6-4c-0.1-1.2,0-2.3,0-3.5
			C1779.5,206.2,1779.5,176.5,1779.5,146.9z"/>
		<path fill="#603813" d="M1706.5,164.4c0-28.7,0-57.3,0-86c0-1.2,0-2.3,0-3.5c0.1-2,1.6-3.4,3.4-3.5c1.4,0,3.2,1.4,3.5,3
			c0.2,1,0.1,2,0.1,3c0,58,0,116,0,173.9c0,1,0.1,2-0.1,3c-0.3,1.6-2.2,3-3.6,3c-1.8-0.1-3.2-1.5-3.4-3.5c-0.1-1.2,0-2.3,0-3.5
			C1706.5,221.7,1706.5,193,1706.5,164.4z"/>
		<path fill="#603813" d="M1572.6,151.9c0-28.3,0-56.6,0-85c0-1.2-0.1-2.3,0-3.5c0.2-2.3,1.9-4.1,3.6-4c1.6,0.1,3.1,1.8,3.3,3.8
			c0.1,0.8,0,1.7,0,2.5c0,57.6,0,115.3,0,172.9c0,0.7,0,1.3,0,2c-0.2,3.1-1.5,4.2-4.4,3.8c-1.5-0.2-2.5-1-2.6-2.6
			c-0.1-1.3-0.1-2.7-0.1-4C1572.6,209.2,1572.6,180.5,1572.6,151.9z"/>
		<path fill="#603813" d="M1608.7,154.9c0-23.8,0-47.6,0-71.4c0-1.2-0.1-2.3,0-3.5c0.3-2.4,2-3.7,4.5-3.7c2,0.1,3,1.1,3.3,3.6
			c0.1,1.1,0,2.3,0,3.5c0,48.1,0,96.2,0,144.3c0,1.6-0.2,3.3-0.6,4.9c-0.4,1.6-1.8,2.6-3.3,2.6c-1.7,0-3.2-1.1-3.6-2.9
			c-0.3-1.4-0.4-2.9-0.4-4.4c0-22.5,0-44.9,0-67.4C1608.7,158.5,1608.7,156.7,1608.7,154.9z"/>
		<path fill="#603813" d="M1567.6,155.9c0,27,0,54,0,81c0,1.3,0.1,2.7-0.1,4c-0.2,1.6-2,3.1-3.4,3.2c-1.4,0-3.3-1.6-3.5-3
			c-0.1-1.1-0.1-2.3-0.1-3.5c0-54.6,0-109.3,0-163.9c0-0.8,0-1.7,0-2.5c0.2-3.1,1.5-4.2,4.4-3.7c1.5,0.2,2.4,1.1,2.5,2.6
			c0.1,1.3,0.1,2.7,0.1,4C1567.6,101.2,1567.6,128.6,1567.6,155.9z"/>
		<path fill="#603813" d="M1450.7,145.9c0-23.3,0-46.6,0-70c0-1.8,0.4-3.6,0.8-5.3c0.3-1.4,1.4-2.2,2.9-2.2c1.5,0,2.6,0.6,3.1,2
			c0.4,1.1,0.7,2.2,0.9,3.3c0.1,1,0,2,0,3c0,46.1,0,92.3,0,138.4c0,1,0,2,0,3c-0.2,2.9-1.7,5-3.8,5.1c-2,0.1-3.8-2-4-4.9
			c-0.1-1.2,0-2.3,0-3.5C1450.6,191.9,1450.6,168.9,1450.7,145.9C1450.6,145.9,1450.6,145.9,1450.7,145.9z"/>
		<path fill="#603813" d="M1543.5,149.5c0,23.3,0,46.7,0,70c0,1.6,0,3.4-0.5,4.9c-0.4,1.1-1.7,2.3-2.7,2.4c-1,0.1-2.5-0.8-3.3-1.8
			c-0.8-1-1-2.4-1.3-3.7c-0.2-1,0-2,0-3c0-45.7,0-91.3,0-137c0-2.1,0.5-4.2,0.8-6.4c0.2-1.8,1.2-2.6,3-2.7c1.8,0,3.6,1.3,3.9,3.2
			c0.2,1.3,0.1,2.7,0.1,4C1543.5,102.8,1543.5,126.2,1543.5,149.5z"/>
		<path fill="#603813" d="M1433.6,145.6c0,26.6,0,53.3,0,79.9c0,1.2,0.1,2.3,0,3.5c-0.2,2.6-0.9,3.3-3.2,3.5
			c-2.1,0.1-3.3-0.8-3.7-3.1c-0.2-1.1-0.1-2.3-0.1-3.5c0-53.6,0-107.2,0-160.8c0-1.3-0.1-2.7,0.2-4c0.4-2.1,1.8-3,4-2.7
			c2,0.2,2.7,1,2.8,3.4c0.1,1.2,0,2.3,0,3.5C1433.6,92,1433.6,118.8,1433.6,145.6z"/>
		<path fill="#603813" d="M1414.6,156.4c0-26.3,0-52.6,0-79c0-1.2-0.1-2.3,0-3.5c0.2-2.8,1-3.6,3.6-3.6c2.5,0,3.3,0.9,3.4,3.8
			c0,1,0,2,0,3c0,53,0,106,0,158.9c0,1.3,0.1,2.7-0.1,4c-0.2,1.6-1.9,3.2-3.3,3.3c-1.6,0.1-3.4-1.6-3.6-3.5c-0.1-1.3-0.1-2.7-0.1-4
			C1414.6,209.4,1414.6,182.9,1414.6,156.4z"/>
		<path fill="#603813" d="M1677.5,148.4c0,22.1,0,44.3,0,66.4c0,1.2,0.1,2.3,0,3.5c-0.3,3-2.2,5.1-4.5,4.9c-1.7-0.1-3.1-2.2-3.3-5
			c-0.1-1.2,0-2.3,0-3.5c0-41.3,0-82.6,0-123.9c0-3.8,0-7.7,0-11.5c0-1-0.1-2,0.1-3c0.4-2.1,1.5-3,3.2-3.1c2.3-0.1,4.1,1.1,4.4,3.2
			c0.2,1.3,0.1,2.7,0.1,4C1677.5,103.1,1677.5,125.8,1677.5,148.4z"/>
		<path fill="#603813" d="M1591.6,158.9c0,25.6,0,51.3,0,76.9c0,1.3,0.1,2.7,0,4c-0.1,2-1.5,3.4-3.4,3.5c-1.4,0-3.2-1.5-3.5-3
			c-0.2-1-0.1-2-0.1-3c0-52.6,0-105.3,0-157.9c0-1.8-0.4-3.7,1.6-4.9c2.3-1.4,4.8-0.6,5.3,2c0.3,1.3,0.1,2.7,0.1,4
			C1591.6,106.6,1591.6,132.8,1591.6,158.9z"/>
		<path fill="#603813" d="M1390.5,150.6c0-25.7,0-51.3,0-77c0-1.2,0-2.3,0-3.5c0.1-2.7,0.9-3.7,2.9-3.8c2-0.1,3.8,1.4,4.1,3.6
			c0.1,0.8,0,1.7,0,2.5c0,52,0,104,0,155.9c0,1.6-0.2,3.4-0.9,4.7c-0.5,1-2.3,2.1-3,1.9c-1.2-0.4-2.3-1.8-2.9-3
			c-0.5-1.1-0.2-2.6-0.2-4C1390.5,202.3,1390.5,176.4,1390.5,150.6z"/>
		<path fill="#603813" d="M1531.5,159.9c0,22,0,44,0,66c0,1.8-0.4,3.6-0.8,5.3c-0.3,1.4-1.4,2.2-2.9,2.2c-1.8,0.1-2.9-0.7-3.3-2.4
			c-0.4-1.6-0.7-3.2-0.8-4.8c-0.1-12.7,0-25.3,0-38c0-31.2,0-62.3,0-93.5c0-1.3-0.1-2.7,0.1-4c0.4-2.9,1.9-4.4,4-4.3
			c2,0.1,3.4,1.7,3.8,4.5c0.1,1.1,0,2.3,0,3.5C1531.5,116.2,1531.5,138,1531.5,159.9z"/>
		<path fill="#603813" d="M1385.5,149.7c0,22,0,44,0,66c0,1.5,0,3-0.3,4.4c-0.4,1.8-1.8,3-3.5,3c-1.7,0.1-3.1-1.1-3.6-2.9
			c-0.3-0.9-0.3-1.9-0.4-2.9c-0.1-1.7,0-3.3,0-5c0-42.6,0-85.3,0-127.9c0-1.3-0.1-2.7,0-4c0.2-2.6,1.9-4.2,4.1-4.1
			c2,0.1,3.5,1.6,3.7,3.9c0.1,1.2,0,2.3,0,3.5C1385.5,105.7,1385.5,127.7,1385.5,149.7z"/>
		<path fill="#603813" d="M1689.5,158.4c0,21.6,0,43.3,0,64.9c0,1.2,0.1,2.3,0,3.5c-0.2,2-1.7,3.4-3.5,3.6c-2,0.2-3.2-0.8-3.6-2.6
			c-0.4-1.8-0.6-3.6-0.6-5.4c0-36.5,0-72.9,0-109.4c0-7,0-14,0-21c0-1.4,0.2-3,0.8-4.3c1.3-2.8,4.8-2.9,6.1-0.1
			c0.7,1.6,0.9,3.5,0.9,5.3C1689.5,114.8,1689.5,136.6,1689.5,158.4z"/>
		<path fill="#603813" d="M1463.5,144.9c0-24.8,0-49.6,0-74.5c0-1.2-0.1-2.3,0-3.5c0.1-2.5,0.8-3.3,2.6-3.5c1.7-0.2,3.8,1.1,4.2,2.8
			c0.2,0.9,0.1,2,0.1,3c0,50.8,0,101.6,0,152.4c0,1.6,0.2,3.3-1.2,4.6c-1.3,1.2-2.7,1.6-4.1,0.8c-0.8-0.5-1.4-1.7-1.6-2.8
			c-0.3-1.3-0.1-2.7-0.1-4C1463.5,195.2,1463.5,170,1463.5,144.9z"/>
		<path fill="#603813" d="M1475.5,149.4c0-24.8,0-49.6,0-74.5c0-1.3-0.1-2.7,0.1-4c0.2-1.7,1.9-3.4,3.1-3.4c1.6,0.1,3.6,1.8,3.8,3.4
			c0.1,1.2,0,2.3,0,3.5c0,49.6,0,99.3,0,148.9c0,1.3,0.1,2.7-0.1,4c-0.4,2.3-1.6,3.2-3.8,3c-2.3-0.1-3-0.9-3.1-3.5
			c-0.1-1.2,0-2.3,0-3.5C1475.5,198.7,1475.5,174,1475.5,149.4z"/>
		<path fill="#603813" d="M1506.6,143.9c0,24.5,0,48.9,0,73.4c0,1.3,0.1,2.7,0,4c-0.2,2.3-0.9,3-3,3.1c-2.1,0.2-3.2-0.5-3.7-2.5
			c-0.3-1.1-0.3-2.3-0.3-3.5c0-49.8,0-99.6,0-149.3c0-1.6-0.2-3.3,1.2-4.6c1.3-1.2,2.7-1.6,4.1-0.8c0.8,0.5,1.4,1.7,1.6,2.8
			c0.3,1.3,0.1,2.6,0.1,4C1506.6,94.9,1506.6,119.4,1506.6,143.9z"/>
		<path fill="#603813" d="M1402.5,143.4c0-23.8,0-47.7,0-71.5c0-1.3-0.1-2.7,0.1-4c0.2-1.7,1.9-3.4,3.2-3.3c1.7,0.1,3.6,1.8,3.7,3.4
			c0.1,1.2,0,2.3,0,3.5c0,48.3,0,96.6,0,145c0,1.2,0.1,2.3-0.1,3.5c-0.2,1.7-1.9,3.2-3.3,3.3c-1.6,0.1-3.4-1.5-3.6-3.4
			c-0.1-1.3-0.1-2.7-0.1-4C1402.5,191.7,1402.5,167.5,1402.5,143.4z"/>
		<path fill="#603813" d="M1487.6,145.3c0-23,0-45.9,0-68.9c0-1.2-0.1-2.3,0-3.5c0.2-2.7,0.8-3.4,3.1-3.6c2.2-0.1,3.4,0.7,3.8,3
			c0.2,1.1,0.1,2.3,0.1,3.5c0,46.9,0,93.9,0,140.8c0,1.2,0.1,2.3-0.1,3.5c-0.2,1.6-2,3.2-3.4,3.2c-1.4,0-3.2-1.5-3.4-3.1
			c-0.2-1.3-0.1-2.7-0.1-4C1487.6,192.6,1487.6,168.9,1487.6,145.3z"/>
		<path fill="#603813" d="M1548.5,160.8c0-22.6,0-45.3,0-67.9c0-1.3-0.1-2.7,0.1-4c0.2-1.9,2.1-3.6,3.6-3.4c1.4,0.1,3,1.7,3.3,3.3
			c0.1,1,0.1,2,0.1,3c0,46.1,0,92.2,0,138.3c0,1.3,0,2.7-0.3,3.9c-0.5,2-1.6,2.6-3.7,2.4c-2.1-0.2-2.8-0.9-2.9-3.2
			c-0.1-1.2,0-2.3,0-3.5C1548.5,206.7,1548.5,183.7,1548.5,160.8z"/>
		<path fill="#603813" d="M1718.6,146.4c0-22.2,0-44.3,0-66.5c0-1,0-2,0-3c0.2-2.8,1-3.6,3.6-3.6c2.5,0,3.3,0.9,3.4,3.8c0,1,0,2,0,3
			c0,44.6,0,89.3,0,133.9c0,1.3,0.1,2.7-0.1,4c-0.2,1.5-2.2,3-3.5,3c-1.4,0-3.2-1.6-3.4-3.2c-0.1-1.3-0.1-2.7-0.1-4
			C1718.6,191.3,1718.6,168.9,1718.6,146.4z"/>
		<path fill="#603813" d="M1694.5,146.2c0-22,0-43.9,0-65.9c0-1.2-0.1-2.3,0-3.5c0.2-2.6,0.9-3.3,3.2-3.4c2.1-0.1,3.3,0.8,3.7,3.1
			c0.2,1.1,0.1,2.3,0.1,3.5c0,44.6,0,89.2,0,133.8c0,1.2,0.1,2.4-0.1,3.5c-0.3,1.6-2.2,3.1-3.5,3c-1.4-0.1-3.1-1.6-3.3-3.2
			c-0.2-1.3-0.1-2.7-0.1-4C1694.5,190.8,1694.5,168.5,1694.5,146.2z"/>
		<path fill="#603813" d="M1633.5,149.9c0-21.8,0-43.6,0-65.5c0-1.2,0-2.3,0-3.5c0.1-2,1.5-3.4,3.4-3.5c1.4-0.1,3.2,1.4,3.5,3
			c0.2,1,0.1,2,0.1,3c0,44.3,0,88.6,0,132.9c0,1,0.1,2-0.1,3c-0.3,1.6-2.2,3.1-3.5,3c-1.9-0.1-3.3-1.5-3.4-3.5c-0.1-1.2,0-2.3,0-3.5
			C1633.5,193.5,1633.5,171.7,1633.5,149.9z"/>
		<path fill="#603813" d="M1621.5,152.9c0-21.5,0-43,0-64.5c0-1.2-0.1-2.3,0-3.5c0.2-2.7,0.8-3.4,3.1-3.5c2.2-0.1,3.4,0.7,3.8,3
			c0.2,1.1,0.1,2.3,0.1,3.5c0,44,0,88,0,131.9c0,1,0.1,2,0,3c-0.2,1.6-2.2,3.3-3.8,3.4c-1.2,0-3-1.7-3.1-3.4c-0.1-1.3-0.1-2.7-0.1-4
			C1621.5,196.8,1621.5,174.9,1621.5,152.9z"/>
		<path fill="#603813" d="M1664.6,152.3c0,21.2,0,42.3,0,63.5c0,1.2,0.1,2.3,0,3.5c-0.1,2-1.7,3.9-3.1,3.9c-1.7,0-3.7-1.9-3.9-3.8
			c-0.1-0.7,0-1.3,0-2c0-43,0-86,0-129c0-1.3,0.1-2.7,0.4-3.9c0.4-1.5,2.6-3,3.7-2.9c1.2,0.2,2.7,2,2.9,3.7c0.1,1.2,0,2.3,0,3.5
			C1664.6,109.9,1664.6,131.1,1664.6,152.3z"/>
		<path fill="#603813" d="M1737.6,148.3c0,20.3,0,40.6,0,60.9c0,1.2,0,2.3,0,3.5c-0.1,2.5-0.8,3.4-2.6,3.6c-2,0.3-4-1.2-4.4-3.2
			c-0.2-0.8-0.1-1.7-0.1-2.5c0-41.5,0-82.9,0-124.4c0-1.8-0.2-3.6,1.5-5c1.2-1,2.6-1.2,3.7-0.6c0.8,0.5,1.5,1.7,1.7,2.7
			c0.3,1.3,0.1,2.6,0.1,4C1737.6,107.7,1737.6,128,1737.6,148.3z"/>
		<path fill="#603813" d="M1652.6,154.4c0,20.3,0,40.6,0,60.9c0,1.2,0.1,2.3,0,3.5c-0.1,2.5-0.8,3.3-2.6,3.5c-2,0.2-3.9-1.2-4.3-3.3
			c-0.1-0.8-0.1-1.7-0.1-2.5c0-41.5,0-82.9,0-124.4c0-1.8-0.3-3.9,1.6-4.9c1.1-0.6,2.6-0.9,3.7-0.6c0.8,0.2,1.4,1.7,1.7,2.7
			c0.3,1.3,0.1,2.6,0.1,4C1652.6,113.7,1652.6,134,1652.6,154.4z"/>
		<path fill="#603813" d="M1518.6,152.8c0,20.1,0,40.3,0,60.4c0,1.2,0,2.3,0,3.5c-0.1,2-1.5,3.4-3.3,3.5c-1.4,0.1-3.2-1.4-3.6-3
			c-0.2-1-0.1-2-0.1-3c0-40.9,0-81.9,0-122.8c0-1-0.1-2,0.1-3c0.3-1.6,2.1-3.1,3.5-3.1c1.9,0,3.3,1.5,3.4,3.5c0.1,1.2,0,2.3,0,3.5
			C1518.6,112.5,1518.6,132.7,1518.6,152.8z"/>
		<path fill="#603813" d="M1349.5,149.6c0,19.1,0,38.3,0,57.4c0,1.3,0.1,2.7-0.1,4c-0.2,1.7-1.9,3.2-3.3,3.3
			c-1.6,0.1-3.4-1.5-3.6-3.5c-0.1-1.1-0.1-2.3-0.1-3.5c0-38.6,0-77.2,0-115.9c0-1.2-0.1-2.3,0-3.5c0.2-1.6,1.8-3.1,3.3-3.2
			c1.6-0.1,3.5,1.6,3.6,3.4c0.1,1.2,0,2.3,0,3.5C1349.5,111,1349.5,130.3,1349.5,149.6C1349.5,149.6,1349.5,149.6,1349.5,149.6z"/>
	</g>
</g>
<line fill="none" stroke="#42210B" stroke-width="8.5039" stroke-miterlimit="10" x1="0" y1="149.6" x2="1789.6" y2="149.6"/>
</svg>
