<?xml version="1.0" encoding="utf-8"?>
<!-- Generator: Adobe Illustrator 17.0.0, SVG Export Plug-In . SVG Version: 6.00 Build 0)  -->
<!DOCTYPE svg PUBLIC "-//W3C//DTD SVG 1.1//EN" "http://www.w3.org/Graphics/SVG/1.1/DTD/svg11.dtd">
<svg version="1.1" id="Layer_1" xmlns="http://www.w3.org/2000/svg" xmlns:xlink="http://www.w3.org/1999/xlink" x="0px" y="0px"
	 width="100.7px" height="102.4px" viewBox="0 0 100.7 102.4" enable-background="new 0 0 100.7 102.4" xml:space="preserve">
<g>
	<path fill="#754C24" d="M191,1.8h-90.2v-90.2c0-4.5-3.1-8.2-7-8.2H7.1c-3.9,0-7,3.7-7,8.2V1.8h-90.2c-4.5,0-8.2,3.1-8.2,7v86.6
		c0,3.9,3.7,7,8.2,7H0.1v90.2c0,4.5,3.1,8.2,7,8.2h86.6c3.9,0,7-3.7,7-8.2v-90.2H191c4.5,0,8.2-3.1,8.2-7V8.8
		C199.2,4.9,195.5,1.8,191,1.8z"/>
	<g>
		<path fill="#EFE8D8" d="M7,197.6c-3.1,0-5.6-3-5.6-6.8V99.2h-91.7c-3.7,0-6.8-2.5-6.8-5.6V7c0-3.1,3-5.6,6.8-5.6H1.4v-91.7
			C1.4-94,3.9-97,7-97h86.6c3.1,0,5.6,3,5.6,6.8V1.4h91.7c3.7,0,6.8,2.5,6.8,5.6v86.6c0,3.1-3,5.6-6.8,5.6H99.2v91.7
			c0,3.7-2.5,6.8-5.6,6.8H7z"/>
		<path fill="#754C24" d="M93.6-95.6c2.3,0,4.2,2.5,4.2,5.4V0v2.8h2.8h90.2c2.9,0,5.4,1.9,5.4,4.2v86.6c0,2.3-2.5,4.2-5.4,4.2h-90.2
			h-2.8v2.8v90.2c0,2.9-1.9,5.4-4.2,5.4H7c-2.3,0-4.2-2.5-4.2-5.4v-90.2v-2.8H0h-90.2c-2.9,0-5.4-1.9-5.4-4.2V7
			c0-2.3,2.5-4.2,5.4-4.2H0h2.8V0v-90.2c0-2.9,1.9-5.4,4.2-5.4H93.6 M93.6-98.5H7c-3.9,0-7,3.7-7,8.2V0h-90.2c-4.5,0-8.2,3.1-8.2,7
			v86.6c0,3.9,3.7,7,8.2,7H0v90.2c0,4.5,3.1,8.2,7,8.2h86.6c3.9,0,7-3.7,7-8.2v-90.2h90.2c4.5,0,8.2-3.1,8.2-7V7c0-3.9-3.7-7-8.2-7
			h-90.2v-90.2C100.6-94.8,97.5-98.5,93.6-98.5L93.6-98.5z"/>
	</g>
	<circle fill="none" stroke="#EAD8AA" stroke-width="5.6693" stroke-miterlimit="10" cx="50.3" cy="50.3" r="61.7"/>
	<g>
		<rect x="7.7" y="24.9" fill="none" width="85.4" height="51.3"/>
		<path fill="#754C24" d="M56.3,31c0,3-2.3,5.5-5.9,5.5c-3.5,0-5.8-2.4-5.7-5.5c-0.1-3.2,2.2-5.5,5.8-5.5S56.2,27.9,56.3,31z M45,76
			V40.8h10.9V76H45z"/>
	</g>
</g>
</svg>
