<?xml version="1.0" encoding="utf-8"?>
<!-- Generator: Adobe Illustrator 17.0.0, SVG Export Plug-In . SVG Version: 6.00 Build 0)  -->
<!DOCTYPE svg PUBLIC "-//W3C//DTD SVG 1.1//EN" "http://www.w3.org/Graphics/SVG/1.1/DTD/svg11.dtd">
<svg version="1.1" id="Layer_1" xmlns="http://www.w3.org/2000/svg" xmlns:xlink="http://www.w3.org/1999/xlink" x="0px" y="0px"
	 width="640.4px" height="431.6px" viewBox="0 0 640.4 431.6" enable-background="new 0 0 640.4 431.6" xml:space="preserve">
<g>
	<rect x="0" y="-0.4" fill="#DCDFE2" width="640" height="432"/>
	<g>
		<path fill="#848688" d="M122,93.6c0,4.4-3.6,8-8,8H78c-4.4,0-8-3.6-8-8v-60c0-4.4,3.6-8,8-8h36c4.4,0,8,3.6,8,8V93.6z"/>
		<path fill="#FFFFFF" d="M122,91.6c0,4.4-3.6,8-8,8H78c-4.4,0-8-3.6-8-8v-60c0-4.4,3.6-8,8-8h36c4.4,0,8,3.6,8,8V91.6z"/>
		<g>
			<rect x="70" y="45.6" fill="none" width="52" height="41.7"/>
			<path d="M79.3,45.6l7.1,27.5h0.1l7.7-27.5h3.7l7.7,27.5h0.1l7.2-27.5h3L107.2,77H104l-8-28.1h-0.1L88,77h-3.3L76,45.6H79.3z"/>
		</g>
	</g>
	<g>
		<path fill="#848688" d="M58,93.6c0,4.4-3.6,8-8,8H14c-4.4,0-8-3.6-8-8v-60c0-4.4,3.6-8,8-8h36c4.4,0,8,3.6,8,8V93.6z"/>
		<path fill="#FFFFFF" d="M58,91.6c0,4.4-3.6,8-8,8H14c-4.4,0-8-3.6-8-8v-60c0-4.4,3.6-8,8-8h36c4.4,0,8,3.6,8,8V91.6z"/>
		<g>
			<rect x="6" y="45.6" fill="none" width="52" height="41.7"/>
			<path d="M40.2,75.3c-2.1,1.5-4.9,2.3-8.1,2.3c-2.5,0-4.6-0.4-6.5-1.3c-1.9-0.9-3.4-2.1-4.6-3.6c-1.2-1.5-2.2-3.2-2.8-5.2
				c-0.6-2-0.9-4-0.9-6.2s0.3-4.2,0.9-6.2c0.6-2,1.5-3.7,2.8-5.2c1.2-1.5,2.8-2.7,4.6-3.6c1.9-0.9,4-1.3,6.5-1.3s4.6,0.4,6.5,1.3
				c1.8,0.9,3.4,2.1,4.6,3.6c1.2,1.5,2.2,3.2,2.8,5.2c0.6,2,0.9,4,0.9,6.2c0,2.5-0.4,4.8-1.2,6.9c-0.8,2.2-2,4-3.6,5.5l4.5,3.4
				L45,79L40.2,75.3z M42.9,67.2c0.6-1.9,0.9-3.9,0.9-5.9c0-1.7-0.2-3.4-0.7-5.1S42,53.1,41,51.8c-1-1.3-2.2-2.4-3.7-3.1
				c-1.5-0.8-3.3-1.2-5.3-1.2c-2.1,0-3.9,0.4-5.4,1.2s-2.7,1.8-3.7,3.1c-1,1.3-1.7,2.8-2.1,4.4c-0.5,1.6-0.7,3.3-0.7,5.1
				c0,1.7,0.2,3.4,0.7,5c0.5,1.7,1.2,3.1,2.1,4.4c1,1.3,2.2,2.4,3.7,3.1s3.3,1.2,5.4,1.2c2.2,0,4.2-0.5,5.8-1.5l-4.1-3.1l1.5-1.9
				l4.6,3.5C41.2,70.7,42.2,69.1,42.9,67.2z"/>
		</g>
	</g>
	<g>
		<path fill="#848688" d="M186,93.6c0,4.4-3.6,8-8,8h-36c-4.4,0-8-3.6-8-8v-60c0-4.4,3.6-8,8-8h36c4.4,0,8,3.6,8,8V93.6z"/>
		<path fill="#FFFFFF" d="M186,91.6c0,4.4-3.6,8-8,8h-36c-4.4,0-8-3.6-8-8v-60c0-4.4,3.6-8,8-8h36c4.4,0,8,3.6,8,8V91.6z"/>
		<g>
			<rect x="134" y="45.6" fill="none" width="52" height="41.7"/>
			<path d="M171.8,45.6v2.6h-18.7v11.4h17.5V62h-17.5v12.4H172V77h-21.9V45.6H171.8z"/>
		</g>
	</g>
	<g>
		<path fill="#848688" d="M250,93.6c0,4.4-3.6,8-8,8h-36c-4.4,0-8-3.6-8-8v-60c0-4.4,3.6-8,8-8h36c4.4,0,8,3.6,8,8V93.6z"/>
		<path fill="#FFFFFF" d="M250,91.6c0,4.4-3.6,8-8,8h-36c-4.4,0-8-3.6-8-8v-60c0-4.4,3.6-8,8-8h36c4.4,0,8,3.6,8,8V91.6z"/>
		<g>
			<rect x="198" y="45.6" fill="none" width="52" height="41.7"/>
			<path d="M226.9,45.6c1.3,0,2.5,0.2,3.7,0.5c1.2,0.3,2.2,0.8,3,1.5s1.6,1.5,2.1,2.6c0.5,1,0.8,2.3,0.8,3.7c0,2-0.5,3.7-1.5,5.2
				c-1,1.5-2.6,2.4-4.6,2.8v0.1c1,0.1,1.9,0.4,2.6,0.8c0.7,0.4,1.2,0.9,1.7,1.5c0.4,0.6,0.7,1.3,0.9,2.1c0.2,0.8,0.3,1.7,0.4,2.6
				c0,0.5,0.1,1.2,0.1,1.9c0,0.8,0.1,1.5,0.2,2.3s0.2,1.5,0.4,2.2c0.2,0.7,0.4,1.2,0.8,1.6H234c-0.2-0.3-0.3-0.7-0.4-1.1
				c-0.1-0.4-0.2-0.9-0.2-1.3c0-0.5-0.1-0.9-0.1-1.3c0-0.4-0.1-0.8-0.1-1.1c-0.1-1.1-0.2-2.2-0.3-3.3c-0.1-1.1-0.4-2.1-0.8-2.9
				c-0.4-0.9-1-1.6-1.8-2.1s-1.9-0.8-3.3-0.7h-11.4V77h-3V45.6H226.9z M226.7,60.5c0.9,0,1.8-0.1,2.6-0.4c0.8-0.3,1.5-0.7,2.2-1.2
				s1.1-1.2,1.5-1.9c0.4-0.7,0.6-1.6,0.6-2.6c0-1.9-0.6-3.5-1.7-4.6c-1.1-1.1-2.8-1.7-5.1-1.7h-11.2v12.4H226.7z"/>
		</g>
	</g>
	<g>
		<path fill="#848688" d="M314,93.6c0,4.4-3.6,8-8,8h-36c-4.4,0-8-3.6-8-8v-60c0-4.4,3.6-8,8-8h36c4.4,0,8,3.6,8,8V93.6z"/>
		<path fill="#FFFFFF" d="M314,91.6c0,4.4-3.6,8-8,8h-36c-4.4,0-8-3.6-8-8v-60c0-4.4,3.6-8,8-8h36c4.4,0,8,3.6,8,8V91.6z"/>
		<g>
			<rect x="262" y="45.6" fill="none" width="52" height="41.7"/>
			<path d="M300.5,45.6v2.6h-11V77h-3V48.1h-10.9v-2.6H300.5z"/>
		</g>
	</g>
	<g>
		<path fill="#848688" d="M378,93.6c0,4.4-3.6,8-8,8h-36c-4.4,0-8-3.6-8-8v-60c0-4.4,3.6-8,8-8h36c4.4,0,8,3.6,8,8V93.6z"/>
		<path fill="#FFFFFF" d="M378,91.6c0,4.4-3.6,8-8,8h-36c-4.4,0-8-3.6-8-8v-60c0-4.4,3.6-8,8-8h36c4.4,0,8,3.6,8,8V91.6z"/>
		<g>
			<rect x="326" y="45.6" fill="none" width="52" height="41.7"/>
			<path d="M338.2,45.6h3.5L352,61.5l10.3-15.9h3.6l-12.4,18.5V77h-3V64.1L338.2,45.6z"/>
		</g>
	</g>
	<g>
		<path fill="#848688" d="M442,93.6c0,4.4-3.6,8-8,8h-36c-4.4,0-8-3.6-8-8v-60c0-4.4,3.6-8,8-8h36c4.4,0,8,3.6,8,8V93.6z"/>
		<path fill="#FFFFFF" d="M442,91.6c0,4.4-3.6,8-8,8h-36c-4.4,0-8-3.6-8-8v-60c0-4.4,3.6-8,8-8h36c4.4,0,8,3.6,8,8V91.6z"/>
		<g>
			<rect x="390" y="45.6" fill="none" width="52" height="41.7"/>
			<path d="M406.8,45.6V65c0,1.8,0.2,3.4,0.6,4.6c0.4,1.3,1,2.3,1.8,3.1c0.8,0.8,1.8,1.4,2.9,1.8c1.1,0.4,2.4,0.6,3.9,0.6
				c1.5,0,2.8-0.2,3.9-0.6c1.1-0.4,2.1-1,2.9-1.8c0.8-0.8,1.4-1.8,1.8-3.1c0.4-1.3,0.6-2.8,0.6-4.6V45.6h3v20.1
				c0,1.6-0.2,3.1-0.7,4.6s-1.2,2.7-2.2,3.8c-1,1.1-2.2,1.9-3.8,2.6c-1.5,0.6-3.4,0.9-5.6,0.9c-2.2,0-4-0.3-5.6-0.9
				c-1.5-0.6-2.8-1.5-3.8-2.6c-1-1.1-1.7-2.4-2.2-3.8c-0.5-1.5-0.7-3-0.7-4.6V45.6H406.8z"/>
		</g>
	</g>
	<g>
		<path fill="#848688" d="M506,93.6c0,4.4-3.6,8-8,8h-36c-4.4,0-8-3.6-8-8v-60c0-4.4,3.6-8,8-8h36c4.4,0,8,3.6,8,8V93.6z"/>
		<path fill="#FFFFFF" d="M506,91.6c0,4.4-3.6,8-8,8h-36c-4.4,0-8-3.6-8-8v-60c0-4.4,3.6-8,8-8h36c4.4,0,8,3.6,8,8V91.6z"/>
		<g>
			<rect x="454" y="45.6" fill="none" width="52" height="41.7"/>
			<path d="M481.5,45.6V77h-3V45.6H481.5z"/>
		</g>
	</g>
	<g>
		<path fill="#848688" d="M570,93.6c0,4.4-3.6,8-8,8h-36c-4.4,0-8-3.6-8-8v-60c0-4.4,3.6-8,8-8h36c4.4,0,8,3.6,8,8V93.6z"/>
		<path fill="#FFFFFF" d="M570,91.6c0,4.4-3.6,8-8,8h-36c-4.4,0-8-3.6-8-8v-60c0-4.4,3.6-8,8-8h36c4.4,0,8,3.6,8,8V91.6z"/>
		<g>
			<rect x="518" y="45.6" fill="none" width="52" height="41.7"/>
			<path d="M530.1,55.1c0.6-2,1.5-3.7,2.8-5.2c1.2-1.5,2.8-2.7,4.6-3.6c1.9-0.9,4-1.3,6.5-1.3s4.6,0.4,6.5,1.3
				c1.8,0.9,3.4,2.1,4.6,3.6c1.2,1.5,2.2,3.2,2.8,5.2c0.6,2,0.9,4,0.9,6.2s-0.3,4.2-0.9,6.2c-0.6,2-1.5,3.7-2.8,5.2
				c-1.2,1.5-2.8,2.7-4.6,3.6c-1.8,0.9-4,1.3-6.5,1.3s-4.6-0.4-6.5-1.3c-1.9-0.9-3.4-2.1-4.6-3.6c-1.2-1.5-2.2-3.2-2.8-5.2
				c-0.6-2-0.9-4-0.9-6.2S529.5,57,530.1,55.1z M532.9,66.3c0.5,1.7,1.2,3.1,2.1,4.4c1,1.3,2.2,2.4,3.7,3.1s3.3,1.2,5.4,1.2
				c2.1,0,3.9-0.4,5.3-1.2c1.5-0.8,2.7-1.8,3.7-3.1c1-1.3,1.7-2.8,2.1-4.4s0.7-3.3,0.7-5c0-1.7-0.2-3.4-0.7-5.1s-1.2-3.1-2.1-4.4
				c-1-1.3-2.2-2.4-3.7-3.1c-1.5-0.8-3.3-1.2-5.3-1.2c-2.1,0-3.9,0.4-5.4,1.2s-2.7,1.8-3.7,3.1c-1,1.3-1.7,2.8-2.1,4.4
				c-0.5,1.6-0.7,3.3-0.7,5.1C532.2,63,532.4,64.7,532.9,66.3z"/>
		</g>
	</g>
	<g>
		<path fill="#848688" d="M634,93.6c0,4.4-3.6,8-8,8h-36c-4.4,0-8-3.6-8-8v-60c0-4.4,3.6-8,8-8h36c4.4,0,8,3.6,8,8V93.6z"/>
		<path fill="#FFFFFF" d="M634,91.6c0,4.4-3.6,8-8,8h-36c-4.4,0-8-3.6-8-8v-60c0-4.4,3.6-8,8-8h36c4.4,0,8,3.6,8,8V91.6z"/>
		<g>
			<rect x="582" y="45.6" fill="none" width="52" height="41.7"/>
			<path d="M611.3,45.6c1.4,0,2.7,0.2,3.8,0.6c1.1,0.4,2.1,1,2.9,1.8s1.5,1.7,1.9,2.8c0.4,1.1,0.7,2.4,0.7,3.8
				c0,1.4-0.2,2.7-0.7,3.8c-0.4,1.1-1.1,2.1-1.9,2.8c-0.8,0.8-1.8,1.4-2.9,1.8c-1.1,0.4-2.4,0.6-3.8,0.6h-11V77h-3V45.6H611.3z
				 M610.6,61c2.1,0,3.8-0.5,5.1-1.6c1.3-1.1,1.9-2.7,1.9-4.8c0-2.2-0.6-3.8-1.9-4.8c-1.3-1.1-3-1.6-5.1-1.6h-10.3V61H610.6z"/>
		</g>
	</g>
	<g>
		<path fill="#848688" d="M154,201.6c0,4.4-3.6,8-8,8h-36c-4.4,0-8-3.6-8-8v-60c0-4.4,3.6-8,8-8h36c4.4,0,8,3.6,8,8V201.6z"/>
		<path fill="#FFFFFF" d="M154,199.6c0,4.4-3.6,8-8,8h-36c-4.4,0-8-3.6-8-8v-60c0-4.4,3.6-8,8-8h36c4.4,0,8,3.6,8,8V199.6z"/>
		<g>
			<rect x="102" y="153.6" fill="none" width="52" height="41.7"/>
			<path d="M119.5,178.7c0.5,1.1,1.3,2,2.2,2.6c0.9,0.6,2,1.1,3.3,1.4c1.3,0.3,2.6,0.4,4,0.4c0.8,0,1.7-0.1,2.7-0.4
				c1-0.2,1.9-0.6,2.7-1.1c0.8-0.5,1.5-1.2,2.1-2s0.8-1.8,0.8-2.9c0-0.9-0.2-1.6-0.6-2.3c-0.4-0.6-0.9-1.2-1.5-1.6
				c-0.6-0.4-1.3-0.8-2.1-1.1c-0.8-0.3-1.5-0.5-2.2-0.7l-7-1.7c-0.9-0.2-1.8-0.5-2.7-0.9c-0.9-0.4-1.6-0.8-2.3-1.4
				c-0.6-0.6-1.2-1.3-1.6-2.2c-0.4-0.8-0.6-1.9-0.6-3.1c0-0.8,0.1-1.7,0.4-2.7c0.3-1,0.8-2,1.6-2.9c0.8-0.9,1.9-1.7,3.3-2.3
				s3.2-0.9,5.4-0.9c1.6,0,3,0.2,4.4,0.6c1.4,0.4,2.6,1,3.7,1.8c1.1,0.8,1.9,1.8,2.5,3.1s0.9,2.6,0.9,4.2h-3
				c-0.1-1.2-0.3-2.3-0.8-3.1c-0.5-0.9-1.1-1.6-1.9-2.2c-0.8-0.6-1.7-1.1-2.7-1.4c-1-0.3-2.1-0.5-3.2-0.5c-1,0-2,0.1-3,0.3
				c-1,0.2-1.8,0.6-2.5,1.1c-0.7,0.5-1.3,1.1-1.7,1.9s-0.7,1.8-0.7,2.9c0,0.7,0.1,1.4,0.4,1.9c0.2,0.5,0.6,1,1,1.4
				c0.4,0.4,0.9,0.7,1.5,0.9c0.6,0.2,1.2,0.4,1.8,0.6l7.7,1.9c1.1,0.3,2.2,0.7,3.1,1.1c1,0.4,1.8,1,2.6,1.6s1.3,1.4,1.8,2.3
				c0.4,0.9,0.6,2,0.6,3.3c0,0.4,0,0.8-0.1,1.4c-0.1,0.6-0.2,1.2-0.5,1.9c-0.3,0.7-0.7,1.3-1.2,2c-0.5,0.7-1.2,1.3-2.1,1.8
				c-0.9,0.5-2,1-3.3,1.3s-2.9,0.5-4.8,0.5s-3.6-0.2-5.1-0.6c-1.6-0.4-2.9-1.1-4-2c-1.1-0.9-2-2-2.6-3.4c-0.6-1.4-0.9-3-0.8-5h3
				C118.7,176.3,118.9,177.6,119.5,178.7z"/>
		</g>
	</g>
	<g>
		<path fill="#848688" d="M90,201.6c0,4.4-3.6,8-8,8H46c-4.4,0-8-3.6-8-8v-60c0-4.4,3.6-8,8-8h36c4.4,0,8,3.6,8,8V201.6z"/>
		<path fill="#FFFFFF" d="M90,199.6c0,4.4-3.6,8-8,8H46c-4.4,0-8-3.6-8-8v-60c0-4.4,3.6-8,8-8h36c4.4,0,8,3.6,8,8V199.6z"/>
		<g>
			<rect x="38" y="153.6" fill="none" width="52" height="41.7"/>
			<path d="M65.8,153.6L78.2,185H75l-3.8-9.8H56.8L53,185h-3.2l12.6-31.4H65.8z M70.1,172.7L64,156.6l-6.3,16.1H70.1z"/>
		</g>
	</g>
	<g>
		<path fill="#848688" d="M218,201.6c0,4.4-3.6,8-8,8h-36c-4.4,0-8-3.6-8-8v-60c0-4.4,3.6-8,8-8h36c4.4,0,8,3.6,8,8V201.6z"/>
		<path fill="#FFFFFF" d="M218,199.6c0,4.4-3.6,8-8,8h-36c-4.4,0-8-3.6-8-8v-60c0-4.4,3.6-8,8-8h36c4.4,0,8,3.6,8,8V199.6z"/>
		<g>
			<rect x="166" y="153.6" fill="none" width="52" height="41.7"/>
			<path d="M191,153.6c4.8,0.1,8.4,1.5,10.8,4s3.6,6.5,3.6,11.7c0,5.2-1.2,9.1-3.6,11.7c-2.4,2.6-6,3.9-10.8,4h-10.9v-31.4H191z
				 M189.5,182.4c2.3,0,4.2-0.2,5.8-0.7c1.6-0.5,3-1.3,4-2.3c1.1-1.1,1.8-2.4,2.3-4.1s0.7-3.7,0.7-6s-0.2-4.4-0.7-6s-1.3-3-2.3-4.1
				c-1.1-1.1-2.4-1.8-4-2.3c-1.6-0.5-3.6-0.7-5.8-0.7h-6.4v26.3H189.5z"/>
		</g>
	</g>
	<g>
		<path fill="#848688" d="M282,201.6c0,4.4-3.6,8-8,8h-36c-4.4,0-8-3.6-8-8v-60c0-4.4,3.6-8,8-8h36c4.4,0,8,3.6,8,8V201.6z"/>
		<path fill="#FFFFFF" d="M282,199.6c0,4.4-3.6,8-8,8h-36c-4.4,0-8-3.6-8-8v-60c0-4.4,3.6-8,8-8h36c4.4,0,8,3.6,8,8V199.6z"/>
		<g>
			<rect x="230" y="153.6" fill="none" width="52" height="41.7"/>
			<path d="M267.3,153.6v2.6h-16.9v11.4h15v2.6h-15v15h-3v-31.4H267.3z"/>
		</g>
	</g>
	<g>
		<path fill="#848688" d="M346,201.6c0,4.4-3.6,8-8,8h-36c-4.4,0-8-3.6-8-8v-60c0-4.4,3.6-8,8-8h36c4.4,0,8,3.6,8,8V201.6z"/>
		<path fill="#FFFFFF" d="M346,199.6c0,4.4-3.6,8-8,8h-36c-4.4,0-8-3.6-8-8v-60c0-4.4,3.6-8,8-8h36c4.4,0,8,3.6,8,8V199.6z"/>
		<g>
			<rect x="294" y="153.6" fill="none" width="52" height="41.7"/>
			<path d="M331.5,185l-0.4-5.7h-0.1c-0.5,1.1-1.2,2.1-2,2.9c-0.8,0.8-1.6,1.5-2.6,2c-0.9,0.5-1.9,0.9-3,1.1
				c-1.1,0.2-2.2,0.4-3.3,0.4c-2.5,0-4.6-0.4-6.5-1.3c-1.9-0.9-3.4-2.1-4.6-3.6c-1.2-1.5-2.2-3.2-2.8-5.2c-0.6-2-0.9-4-0.9-6.2
				s0.3-4.2,0.9-6.2c0.6-2,1.5-3.7,2.8-5.2c1.2-1.5,2.8-2.7,4.6-3.6c1.9-0.9,4-1.3,6.5-1.3c1.6,0,3.2,0.2,4.7,0.7s2.8,1.1,3.9,2
				c1.1,0.9,2.1,2,2.9,3.3s1.3,2.8,1.6,4.5h-3c-0.1-0.9-0.4-1.8-0.9-2.8c-0.5-0.9-1.2-1.8-2.1-2.5c-0.9-0.8-1.9-1.4-3.1-1.9
				c-1.2-0.5-2.6-0.7-4-0.7c-2.1,0-3.9,0.4-5.4,1.2s-2.7,1.8-3.7,3.1c-1,1.3-1.7,2.8-2.1,4.4s-0.7,3.3-0.7,5.1c0,1.7,0.2,3.4,0.7,5
				s1.2,3.1,2.1,4.4c1,1.3,2.2,2.4,3.7,3.1s3.3,1.2,5.4,1.2c1.7,0,3.3-0.3,4.6-0.9c1.4-0.6,2.5-1.4,3.5-2.4c0.9-1,1.6-2.2,2.1-3.7
				c0.5-1.4,0.7-2.9,0.7-4.6h-10.7V169h13.3v16H331.5z"/>
		</g>
	</g>
	<g>
		<path fill="#848688" d="M410,201.6c0,4.4-3.6,8-8,8h-36c-4.4,0-8-3.6-8-8v-60c0-4.4,3.6-8,8-8h36c4.4,0,8,3.6,8,8V201.6z"/>
		<path fill="#FFFFFF" d="M410,199.6c0,4.4-3.6,8-8,8h-36c-4.4,0-8-3.6-8-8v-60c0-4.4,3.6-8,8-8h36c4.4,0,8,3.6,8,8V199.6z"/>
		<g>
			<rect x="358" y="153.6" fill="none" width="52" height="41.7"/>
			<path d="M374.7,153.6v13.6h18.7v-13.6h3V185h-3v-15.2h-18.7V185h-3v-31.4H374.7z"/>
		</g>
	</g>
	<g>
		<path fill="#848688" d="M474,201.6c0,4.4-3.6,8-8,8h-36c-4.4,0-8-3.6-8-8v-60c0-4.4,3.6-8,8-8h36c4.4,0,8,3.6,8,8V201.6z"/>
		<path fill="#FFFFFF" d="M474,199.6c0,4.4-3.6,8-8,8h-36c-4.4,0-8-3.6-8-8v-60c0-4.4,3.6-8,8-8h36c4.4,0,8,3.6,8,8V199.6z"/>
		<g>
			<rect x="422" y="153.6" fill="none" width="52" height="41.7"/>
			<path d="M455.8,153.6v22.7c0,1.6-0.2,3-0.5,4.2c-0.3,1.2-0.8,2.1-1.6,2.9c-0.7,0.8-1.7,1.3-2.8,1.7s-2.6,0.6-4.3,0.6
				c-1.8,0-3.3-0.3-4.4-0.9c-1.1-0.6-2-1.4-2.7-2.4c-0.6-1-1.1-2.1-1.3-3.4c-0.2-1.3-0.4-2.6-0.4-4h3c0,0.7,0.1,1.5,0.1,2.4
				c0.1,0.9,0.3,1.8,0.6,2.7c0.4,0.9,0.9,1.6,1.7,2.2c0.8,0.6,2,0.9,3.5,0.9c1.2,0,2.1-0.2,2.9-0.5c0.8-0.3,1.4-0.8,1.8-1.5
				c0.4-0.7,0.7-1.5,0.9-2.5c0.2-1,0.3-2.3,0.3-3.7v-21.4H455.8z"/>
		</g>
	</g>
	<g>
		<path fill="#848688" d="M538,201.6c0,4.4-3.6,8-8,8h-36c-4.4,0-8-3.6-8-8v-60c0-4.4,3.6-8,8-8h36c4.4,0,8,3.6,8,8V201.6z"/>
		<path fill="#FFFFFF" d="M538,199.6c0,4.4-3.6,8-8,8h-36c-4.4,0-8-3.6-8-8v-60c0-4.4,3.6-8,8-8h36c4.4,0,8,3.6,8,8V199.6z"/>
		<g>
			<rect x="486" y="153.6" fill="none" width="52" height="41.7"/>
			<path d="M503.9,153.6v16.9l18.3-16.9h4l-14,13l14.7,18.4H523l-13.1-16.4l-6,5.6V185h-3v-31.4H503.9z"/>
		</g>
	</g>
	<g>
		<path fill="#848688" d="M602,201.6c0,4.4-3.6,8-8,8h-36c-4.4,0-8-3.6-8-8v-60c0-4.4,3.6-8,8-8h36c4.4,0,8,3.6,8,8V201.6z"/>
		<path fill="#FFFFFF" d="M602,199.6c0,4.4-3.6,8-8,8h-36c-4.4,0-8-3.6-8-8v-60c0-4.4,3.6-8,8-8h36c4.4,0,8,3.6,8,8V199.6z"/>
		<g>
			<rect x="550" y="153.6" fill="none" width="52" height="41.7"/>
			<path d="M570.3,153.6v28.9h17.6v2.6h-20.6v-31.4H570.3z"/>
		</g>
	</g>
	<g>
		<path fill="#848688" d="M154,309.6c0,4.4-3.6,8-8,8h-36c-4.4,0-8-3.6-8-8v-60c0-4.4,3.6-8,8-8h36c4.4,0,8,3.6,8,8V309.6z"/>
		<path fill="#FFFFFF" d="M154,307.6c0,4.4-3.6,8-8,8h-36c-4.4,0-8-3.6-8-8v-60c0-4.4,3.6-8,8-8h36c4.4,0,8,3.6,8,8V307.6z"/>
		<g>
			<rect x="102" y="261.6" fill="none" width="52" height="41.7"/>
			<path d="M139.6,261.6v2.6l-20.7,26.2h21.1v2.6h-24.5v-2.6l20.7-26.2H117v-2.6H139.6z"/>
		</g>
	</g>
	<g>
		<path fill="#848688" d="M218,309.6c0,4.4-3.6,8-8,8h-36c-4.4,0-8-3.6-8-8v-60c0-4.4,3.6-8,8-8h36c4.4,0,8,3.6,8,8V309.6z"/>
		<path fill="#FFFFFF" d="M218,307.6c0,4.4-3.6,8-8,8h-36c-4.4,0-8-3.6-8-8v-60c0-4.4,3.6-8,8-8h36c4.4,0,8,3.6,8,8V307.6z"/>
		<g>
			<rect x="166" y="261.6" fill="none" width="52" height="41.7"/>
			<path d="M183,261.6l8.9,13.2l9.2-13.2h3.3l-10.7,15.3l11.4,16.1h-3.6l-9.5-13.9l-9.7,13.9h-3.3l11.3-16.2l-10.6-15.2H183z"/>
		</g>
	</g>
	<g>
		<path fill="#848688" d="M282,309.6c0,4.4-3.6,8-8,8h-36c-4.4,0-8-3.6-8-8v-60c0-4.4,3.6-8,8-8h36c4.4,0,8,3.6,8,8V309.6z"/>
		<path fill="#FFFFFF" d="M282,307.6c0,4.4-3.6,8-8,8h-36c-4.4,0-8-3.6-8-8v-60c0-4.4,3.6-8,8-8h36c4.4,0,8,3.6,8,8V307.6z"/>
		<g>
			<rect x="230" y="261.6" fill="none" width="52" height="41.7"/>
			<path d="M265.3,267.8c-0.6-1-1.3-1.8-2.2-2.4c-0.9-0.6-1.8-1.1-2.9-1.5c-1-0.3-2.1-0.5-3.3-0.5c-2.1,0-3.9,0.4-5.4,1.2
				s-2.7,1.8-3.7,3.1c-1,1.3-1.7,2.8-2.1,4.4s-0.7,3.3-0.7,5.1c0,1.7,0.2,3.4,0.7,5s1.2,3.1,2.1,4.4c1,1.3,2.2,2.4,3.7,3.1
				s3.3,1.2,5.4,1.2c1.5,0,2.8-0.3,4-0.8c1.2-0.5,2.2-1.2,3-2.2c0.9-0.9,1.5-2,2.1-3.2c0.5-1.2,0.9-2.5,1-3.9h3
				c-0.2,1.9-0.7,3.7-1.4,5.2c-0.7,1.6-1.6,2.9-2.7,4c-1.1,1.1-2.4,1.9-3.9,2.5c-1.5,0.6-3.2,0.9-5,0.9c-2.5,0-4.6-0.4-6.5-1.3
				c-1.9-0.9-3.4-2.1-4.6-3.6c-1.2-1.5-2.2-3.2-2.8-5.2c-0.6-2-0.9-4-0.9-6.2s0.3-4.2,0.9-6.2c0.6-2,1.5-3.7,2.8-5.2
				c1.2-1.5,2.8-2.7,4.6-3.6c1.9-0.9,4-1.3,6.5-1.3c1.5,0,3,0.2,4.4,0.7s2.7,1.1,3.9,2c1.2,0.9,2.1,1.9,2.9,3.2
				c0.8,1.3,1.3,2.7,1.5,4.4h-3C266.4,269.9,266,268.8,265.3,267.8z"/>
		</g>
	</g>
	<g>
		<path fill="#848688" d="M346,309.6c0,4.4-3.6,8-8,8h-36c-4.4,0-8-3.6-8-8v-60c0-4.4,3.6-8,8-8h36c4.4,0,8,3.6,8,8V309.6z"/>
		<path fill="#FFFFFF" d="M346,307.6c0,4.4-3.6,8-8,8h-36c-4.4,0-8-3.6-8-8v-60c0-4.4,3.6-8,8-8h36c4.4,0,8,3.6,8,8V307.6z"/>
		<g>
			<rect x="294" y="261.6" fill="none" width="52" height="41.7"/>
			<path d="M309.9,261.6l10.2,28.1h0.1l10.1-28.1h3.2L321.8,293h-3.5l-11.6-31.4H309.9z"/>
		</g>
	</g>
	<g>
		<path fill="#848688" d="M410,309.6c0,4.4-3.6,8-8,8h-36c-4.4,0-8-3.6-8-8v-60c0-4.4,3.6-8,8-8h36c4.4,0,8,3.6,8,8V309.6z"/>
		<path fill="#FFFFFF" d="M410,307.6c0,4.4-3.6,8-8,8h-36c-4.4,0-8-3.6-8-8v-60c0-4.4,3.6-8,8-8h36c4.4,0,8,3.6,8,8V307.6z"/>
		<g>
			<rect x="358" y="261.6" fill="none" width="52" height="41.7"/>
			<path d="M385.8,261.6c1.3,0,2.6,0.1,3.8,0.4c1.2,0.2,2.3,0.7,3.2,1.3c0.9,0.6,1.7,1.4,2.2,2.4c0.6,1,0.8,2.2,0.8,3.7
				c0,0.8-0.1,1.6-0.4,2.4c-0.3,0.8-0.6,1.5-1.1,2.1c-0.5,0.6-1.1,1.2-1.7,1.6c-0.7,0.4-1.4,0.7-2.2,0.9v0.1c2,0.3,3.6,1.1,4.8,2.5
				c1.2,1.4,1.8,3.1,1.8,5.2c0,0.5,0,1.1-0.1,1.7c-0.1,0.6-0.3,1.3-0.5,1.9c-0.3,0.7-0.6,1.3-1.1,2c-0.5,0.6-1.2,1.2-2,1.7
				c-0.8,0.5-1.9,0.9-3.1,1.2c-1.2,0.3-2.7,0.5-4.4,0.5h-13.3v-31.4H385.8z M385.8,275.4c1.2,0,2.2-0.1,3.1-0.4
				c0.9-0.3,1.6-0.7,2.2-1.1c0.6-0.5,1-1,1.3-1.7c0.3-0.6,0.4-1.3,0.4-2.1c0-3.9-2.4-5.9-7.1-5.9h-10.3v11.2H385.8z M385.8,290.4
				c1.1,0,2.2-0.1,3.2-0.3c1-0.2,1.9-0.5,2.6-1c0.8-0.5,1.4-1.2,1.8-2c0.4-0.8,0.7-1.9,0.7-3.1c0-2-0.7-3.5-2.1-4.6
				c-1.4-1-3.5-1.5-6.1-1.5h-10.3v12.5H385.8z"/>
		</g>
	</g>
	<g>
		<path fill="#848688" d="M474,309.6c0,4.4-3.6,8-8,8h-36c-4.4,0-8-3.6-8-8v-60c0-4.4,3.6-8,8-8h36c4.4,0,8,3.6,8,8V309.6z"/>
		<path fill="#FFFFFF" d="M474,307.6c0,4.4-3.6,8-8,8h-36c-4.4,0-8-3.6-8-8v-60c0-4.4,3.6-8,8-8h36c4.4,0,8,3.6,8,8V307.6z"/>
		<g>
			<rect x="422" y="261.6" fill="none" width="52" height="41.7"/>
			<path d="M439,261.6l18.3,26.6h0.1v-26.6h3V293H457l-18.3-26.6h-0.1V293h-3v-31.4H439z"/>
		</g>
	</g>
	<g>
		<path fill="#848688" d="M538,309.6c0,4.4-3.6,8-8,8h-36c-4.4,0-8-3.6-8-8v-60c0-4.4,3.6-8,8-8h36c4.4,0,8,3.6,8,8V309.6z"/>
		<path fill="#FFFFFF" d="M538,307.6c0,4.4-3.6,8-8,8h-36c-4.4,0-8-3.6-8-8v-60c0-4.4,3.6-8,8-8h36c4.4,0,8,3.6,8,8V307.6z"/>
		<g>
			<rect x="486" y="261.6" fill="none" width="52" height="41.7"/>
			<path d="M501.4,261.6l10.4,27.5l10.8-27.5h4.4V293h-3v-27.1H524L513.3,293h-2.8l-10.3-27.1H500V293h-3v-31.4H501.4z"/>
		</g>
	</g>
	<g>
		<path fill="#848688" d="M78,309.6c0,4.4-3.6,8-8,8H14c-4.4,0-8-3.6-8-8v-60c0-4.4,3.6-8,8-8h56c4.4,0,8,3.6,8,8V309.6z"/>
		<path fill="#C2C5C9" d="M78,307.6c0,4.4-3.6,8-8,8H14c-4.4,0-8-3.6-8-8v-60c0-4.4,3.6-8,8-8h56c4.4,0,8,3.6,8,8V307.6z"/>
		<path d="M61.4,280.6l-19-19H41l-19,19l1,1v1h10v9v2h2h14h2v-2v-9h10V281L61.4,280.6z M49,280.6v1v1v9H35v-9v-1v-1H24.8l16.9-16.9
			l16.9,16.9H49z"/>
	</g>
	<g>
		<path fill="#848688" d="M634,309.6c0,4.4-3.6,8-8,8h-56c-4.4,0-8-3.6-8-8v-60c0-4.4,3.6-8,8-8h56c4.4,0,8,3.6,8,8V309.6z"/>
		<path fill="#C2C5C9" d="M634,307.6c0,4.4-3.6,8-8,8h-56c-4.4,0-8-3.6-8-8v-60c0-4.4,3.6-8,8-8h56c4.4,0,8,3.6,8,8V307.6z"/>
		<g>
			<g>
				<path d="M620,263.6v28h-29.2l-14.3-14l14.3-14H620 M622,261.6h-32l-16.3,16l16.3,16h32V261.6L622,261.6z"/>
			</g>
			<line fill="none" stroke="#000000" stroke-width="2" stroke-miterlimit="10" x1="596.2" y1="270.6" x2="610.3" y2="284.7"/>
			<line fill="none" stroke="#000000" stroke-width="2" stroke-miterlimit="10" x1="610.3" y1="270.6" x2="596.2" y2="284.7"/>
		</g>
	</g>
	<g>
		<path fill="#848688" d="M474,417.6c0,4.4-3.6,8-8,8h-52c-4.4,0-8-3.6-8-8v-60c0-4.4,3.6-8,8-8h52c4.4,0,8,3.6,8,8V417.6z"/>
		<path fill="#FFFFFF" d="M474,415.6c0,4.4-3.6,8-8,8h-52c-4.4,0-8-3.6-8-8v-60c0-4.4,3.6-8,8-8h52c4.4,0,8,3.6,8,8V415.6z"/>
		<g>
			<rect x="406" y="369.6" fill="none" width="68" height="41.7"/>
			<path d="M438.2,396.3h3.7v4.7h-3.7V396.3z"/>
		</g>
	</g>
	<g>
		<path fill="#848688" d="M394,417.6c0,4.4-3.6,8-8,8h-52c-4.4,0-8-3.6-8-8v-60c0-4.4,3.6-8,8-8h52c4.4,0,8,3.6,8,8V417.6z"/>
		<path fill="#FFFFFF" d="M394,415.6c0,4.4-3.6,8-8,8h-52c-4.4,0-8-3.6-8-8v-60c0-4.4,3.6-8,8-8h52c4.4,0,8,3.6,8,8V415.6z"/>
		<g>
			<rect x="326" y="369.6" fill="none" width="68" height="41.7"/>
			<path d="M364.8,391.1c-0.1,0.4-0.1,0.8-0.1,1.2c0,0.3,0.1,0.6,0.3,0.8s0.4,0.3,0.8,0.3c1,0,1.9-0.3,2.8-1s1.7-1.5,2.4-2.6
				c0.7-1.1,1.2-2.2,1.6-3.5c0.4-1.3,0.6-2.6,0.6-3.8c0-1.8-0.3-3.4-1-4.9c-0.7-1.4-1.6-2.6-2.7-3.6c-1.1-1-2.5-1.7-4-2.3
				c-1.5-0.5-3.1-0.8-4.8-0.8c-2.1,0-3.9,0.4-5.6,1.1c-1.7,0.8-3.2,1.8-4.4,3.1c-1.2,1.3-2.2,2.8-2.9,4.6c-0.7,1.8-1,3.7-1,5.7
				c0,2,0.4,3.9,1.1,5.6c0.7,1.7,1.7,3.2,2.9,4.5c1.2,1.3,2.7,2.3,4.4,3s3.6,1.1,5.6,1.1c1.1,0,2.2-0.1,3.2-0.4
				c1.1-0.3,2.1-0.7,3.1-1.2c1-0.5,1.9-1.1,2.8-1.8c0.9-0.7,1.6-1.5,2.2-2.4h2.2c-0.7,1.2-1.5,2.3-2.5,3.3c-1,1-2.1,1.8-3.3,2.5
				c-1.2,0.7-2.4,1.2-3.8,1.5c-1.3,0.4-2.7,0.5-4.1,0.5c-2.4,0-4.6-0.4-6.6-1.3c-2-0.8-3.7-2-5.2-3.5c-1.5-1.5-2.6-3.2-3.4-5.2
				c-0.8-2-1.2-4.2-1.2-6.5c0-2.3,0.4-4.4,1.3-6.4c0.8-2,2-3.7,3.5-5.1c1.5-1.5,3.2-2.6,5.1-3.4c2-0.8,4.1-1.3,6.3-1.3
				c2.1,0,4.1,0.3,5.9,1c1.8,0.7,3.4,1.6,4.7,2.8c1.3,1.2,2.4,2.7,3.1,4.3c0.8,1.7,1.1,3.5,1.1,5.5c0,1.8-0.3,3.4-0.9,5
				c-0.6,1.6-1.4,2.9-2.4,4.1s-2.1,2.1-3.3,2.7s-2.4,1-3.7,1c-0.8,0-1.4-0.2-2-0.7c-0.6-0.5-0.9-1.2-1-2.2h-0.1
				c-0.7,0.7-1.5,1.4-2.5,2c-1,0.6-2,0.9-3.1,0.9c-0.9,0-1.7-0.2-2.4-0.5c-0.7-0.3-1.3-0.8-1.8-1.4c-0.5-0.6-0.9-1.3-1.1-2
				c-0.3-0.8-0.4-1.6-0.4-2.5c0-1.5,0.2-3,0.7-4.6c0.5-1.5,1.2-2.9,2.1-4.1c0.9-1.2,2-2.2,3.3-2.9c1.3-0.7,2.7-1.1,4.3-1.1
				c1,0,1.9,0.3,2.7,0.9s1.5,1.5,2,2.8l1.1-2.9h2.3l-4.2,12.7C365,390.2,364.9,390.7,364.8,391.1z M358.1,379.6
				c-0.9,0.7-1.7,1.5-2.4,2.5c-0.7,1-1.2,2.1-1.5,3.3c-0.4,1.2-0.5,2.3-0.5,3.3c0,1.3,0.3,2.4,1,3.1c0.7,0.8,1.6,1.1,2.6,1.1
				c1,0,2-0.4,2.9-1.1s1.6-1.6,2.3-2.6s1.2-2.2,1.6-3.4c0.4-1.2,0.6-2.3,0.6-3.3c0-0.5-0.1-1-0.3-1.5c-0.2-0.5-0.5-0.9-0.8-1.3
				c-0.3-0.4-0.7-0.7-1.1-0.9c-0.4-0.2-0.8-0.4-1.3-0.4C360,378.6,359,378.9,358.1,379.6z"/>
		</g>
	</g>
	<g>
		<path fill="#848688" d="M314,417.6c0,4.4-3.6,8-8,8H174c-4.4,0-8-3.6-8-8v-60c0-4.4,3.6-8,8-8h132c4.4,0,8,3.6,8,8V417.6z"/>
		<path fill="#FFFFFF" d="M314,415.6c0,4.4-3.6,8-8,8H174c-4.4,0-8-3.6-8-8v-60c0-4.4,3.6-8,8-8h132c4.4,0,8,3.6,8,8V415.6z"/>
		<g>
			<rect x="166" y="371.6" fill="none" width="148" height="41.7"/>
			<path d="M209,381.1c-0.2-0.5-0.5-0.8-0.9-1.1c-0.4-0.3-0.8-0.5-1.4-0.7s-1.1-0.2-1.6-0.2c-0.4,0-0.9,0-1.4,0.1
				c-0.5,0.1-0.9,0.3-1.3,0.5c-0.4,0.2-0.7,0.5-0.9,0.9c-0.2,0.4-0.4,0.8-0.4,1.3c0,0.4,0.1,0.8,0.3,1.1c0.2,0.3,0.5,0.6,0.8,0.8
				c0.3,0.2,0.7,0.4,1.1,0.5s0.8,0.3,1.1,0.3l2.7,0.6c0.6,0.1,1.1,0.2,1.7,0.5c0.6,0.2,1.1,0.5,1.5,0.9c0.4,0.4,0.8,0.8,1.1,1.3
				c0.3,0.5,0.4,1.2,0.4,1.9c0,0.9-0.2,1.7-0.6,2.3c-0.4,0.6-0.9,1.1-1.6,1.5c-0.6,0.4-1.3,0.7-2.1,0.8c-0.8,0.2-1.6,0.3-2.3,0.3
				c-1.9,0-3.5-0.5-4.7-1.4s-1.9-2.4-2.1-4.4h2c0.1,1.4,0.6,2.4,1.5,3.1c0.9,0.7,2,1,3.4,1c0.5,0,1-0.1,1.5-0.2
				c0.5-0.1,1-0.3,1.5-0.5c0.4-0.3,0.8-0.6,1.1-1c0.3-0.4,0.4-0.9,0.4-1.5c0-0.5-0.1-0.9-0.3-1.2c-0.2-0.3-0.5-0.6-0.8-0.8
				c-0.3-0.2-0.7-0.4-1.2-0.6s-0.9-0.3-1.3-0.4l-2.6-0.6c-0.7-0.2-1.3-0.4-1.8-0.6c-0.6-0.2-1-0.5-1.5-0.8c-0.4-0.3-0.7-0.7-1-1.2
				c-0.2-0.5-0.4-1.1-0.4-1.8c0-0.8,0.2-1.5,0.6-2.1c0.4-0.6,0.9-1.1,1.5-1.4c0.6-0.4,1.3-0.6,2-0.8c0.7-0.2,1.5-0.3,2.2-0.3
				c0.8,0,1.6,0.1,2.3,0.3s1.3,0.5,1.9,1c0.5,0.4,1,1,1.3,1.7c0.3,0.7,0.5,1.4,0.5,2.3h-2C209.4,382.1,209.2,381.6,209,381.1z"/>
			<path d="M217.1,377.9v3.1h0.1c0.5-1.2,1.2-2,2.3-2.7s2.3-0.9,3.6-0.9c1.3,0,2.4,0.2,3.3,0.7c0.9,0.5,1.7,1.1,2.3,1.9
				c0.6,0.8,1.1,1.7,1.4,2.8c0.3,1.1,0.4,2.2,0.4,3.3c0,1.2-0.1,2.3-0.4,3.3s-0.8,2-1.4,2.8c-0.6,0.8-1.4,1.4-2.3,1.9
				c-0.9,0.5-2,0.7-3.3,0.7c-0.6,0-1.2-0.1-1.8-0.2c-0.6-0.1-1.2-0.4-1.7-0.7c-0.5-0.3-1-0.7-1.4-1.1c-0.4-0.4-0.7-1-0.9-1.6h-0.1
				v9.2h-2v-22.6H217.1z M228.1,383.6c-0.2-0.8-0.5-1.6-1-2.3c-0.4-0.7-1-1.2-1.7-1.6c-0.7-0.4-1.5-0.6-2.5-0.6
				c-1.1,0-2,0.2-2.8,0.6c-0.7,0.4-1.3,0.9-1.8,1.5c-0.4,0.6-0.8,1.4-0.9,2.2c-0.2,0.9-0.3,1.8-0.3,2.7c0,0.9,0.1,1.7,0.3,2.5
				c0.2,0.8,0.5,1.6,1,2.3c0.5,0.7,1.1,1.2,1.8,1.6c0.7,0.4,1.6,0.6,2.7,0.6c1,0,1.8-0.2,2.5-0.6c0.7-0.4,1.2-1,1.7-1.6
				c0.4-0.7,0.8-1.4,1-2.3c0.2-0.8,0.3-1.7,0.3-2.5S228.3,384.5,228.1,383.6z"/>
			<path d="M234.3,380.5c0.3-0.7,0.8-1.3,1.4-1.7c0.6-0.4,1.3-0.8,2.1-1s1.7-0.3,2.6-0.3c0.7,0,1.5,0.1,2.2,0.2
				c0.7,0.1,1.4,0.4,2,0.8s1,0.9,1.4,1.6c0.4,0.7,0.5,1.6,0.5,2.7v8.8c0,0.8,0.4,1.2,1.2,1.2c0.2,0,0.4,0,0.6-0.1v1.7
				c-0.2,0-0.4,0.1-0.6,0.1c-0.2,0-0.4,0-0.7,0c-0.5,0-0.9-0.1-1.2-0.2c-0.3-0.1-0.5-0.3-0.7-0.6s-0.3-0.6-0.3-0.9
				c-0.1-0.4-0.1-0.7-0.1-1.2h-0.1c-0.4,0.5-0.7,1-1.1,1.4s-0.8,0.8-1.2,1s-1,0.5-1.6,0.6c-0.6,0.1-1.3,0.2-2.1,0.2
				c-0.8,0-1.5-0.1-2.2-0.3c-0.7-0.2-1.3-0.5-1.8-0.9c-0.5-0.4-0.9-0.9-1.2-1.5c-0.3-0.6-0.4-1.3-0.4-2.2c0-1.2,0.3-2.1,0.8-2.7
				s1.2-1.1,2-1.5c0.8-0.3,1.8-0.6,2.8-0.7s2.1-0.3,3.2-0.4c0.4,0,0.8-0.1,1.1-0.2c0.3-0.1,0.6-0.2,0.8-0.3c0.2-0.2,0.4-0.4,0.5-0.7
				c0.1-0.3,0.2-0.6,0.2-1.1c0-0.7-0.1-1.2-0.3-1.7c-0.2-0.4-0.5-0.8-0.9-1s-0.9-0.4-1.4-0.5c-0.5-0.1-1.1-0.1-1.7-0.1
				c-1.3,0-2.3,0.3-3.1,0.9c-0.8,0.6-1.2,1.6-1.3,2.9h-2C233.8,382,234,381.2,234.3,380.5z M244.4,385.4c-0.1,0.2-0.4,0.4-0.7,0.5
				c-0.4,0.1-0.7,0.2-1,0.2c-0.9,0.1-1.7,0.3-2.6,0.4c-0.9,0.1-1.7,0.3-2.5,0.5c-0.7,0.2-1.4,0.6-1.8,1c-0.5,0.4-0.7,1.1-0.7,1.9
				c0,0.5,0.1,1,0.3,1.4c0.2,0.4,0.5,0.7,0.8,1c0.3,0.3,0.7,0.5,1.2,0.7c0.4,0.2,0.9,0.2,1.4,0.2c0.8,0,1.5-0.1,2.2-0.4
				c0.7-0.2,1.3-0.6,1.8-1s0.9-1,1.2-1.6c0.3-0.6,0.5-1.4,0.5-2.2L244.4,385.4L244.4,385.4z"/>
			<path d="M260.9,380.2c-0.7-0.7-1.8-1.1-3.1-1.1c-1,0-1.8,0.2-2.5,0.6c-0.7,0.4-1.3,0.9-1.8,1.6c-0.5,0.7-0.8,1.4-1.1,2.3
				s-0.4,1.7-0.4,2.6s0.1,1.7,0.4,2.6s0.6,1.6,1.1,2.3c0.5,0.7,1.1,1.2,1.8,1.6c0.7,0.4,1.6,0.6,2.5,0.6c0.6,0,1.2-0.1,1.8-0.4
				c0.6-0.2,1-0.6,1.5-1s0.8-0.9,1.1-1.5s0.4-1.2,0.5-1.9h2c-0.3,2-1,3.6-2.2,4.7c-1.2,1.1-2.7,1.7-4.6,1.7c-1.3,0-2.4-0.2-3.3-0.7
				c-1-0.5-1.8-1.1-2.4-1.9c-0.7-0.8-1.2-1.7-1.5-2.8c-0.3-1.1-0.5-2.2-0.5-3.4c0-1.2,0.2-2.3,0.5-3.4c0.3-1.1,0.8-2,1.5-2.8
				c0.7-0.8,1.5-1.4,2.4-1.9c1-0.5,2.1-0.7,3.3-0.7c1.8,0,3.3,0.5,4.5,1.4c1.2,0.9,2,2.4,2.2,4.3h-2
				C262.2,381.9,261.7,380.9,260.9,380.2z"/>
			<path d="M269.2,389c0.2,0.8,0.5,1.5,1,2.1c0.4,0.6,1,1.1,1.7,1.5c0.7,0.4,1.5,0.6,2.5,0.6c1.5,0,2.6-0.4,3.5-1.2
				c0.8-0.8,1.4-1.8,1.7-3.1h2c-0.4,1.9-1.2,3.3-2.4,4.4c-1.1,1-2.8,1.5-4.8,1.5c-1.3,0-2.4-0.2-3.4-0.7c-0.9-0.5-1.7-1.1-2.3-1.9
				c-0.6-0.8-1-1.7-1.3-2.8c-0.3-1.1-0.4-2.2-0.4-3.3c0-1.1,0.1-2.2,0.4-3.2c0.3-1,0.7-2,1.3-2.8c0.6-0.8,1.4-1.5,2.3-2
				c0.9-0.5,2.1-0.8,3.4-0.8c1.3,0,2.5,0.3,3.4,0.8c0.9,0.5,1.7,1.2,2.3,2.1c0.6,0.9,1,1.9,1.3,3s0.4,2.3,0.3,3.4h-12.7
				C268.9,387.4,269,388.2,269.2,389z M279.2,382.8c-0.2-0.7-0.6-1.3-1-1.9c-0.4-0.5-1-1-1.6-1.3c-0.6-0.3-1.4-0.5-2.2-0.5
				c-0.8,0-1.6,0.2-2.2,0.5s-1.2,0.8-1.6,1.3s-0.8,1.2-1.1,1.9s-0.4,1.4-0.5,2.2h10.7C279.6,384.3,279.5,383.5,279.2,382.8z"/>
		</g>
	</g>
	<g>
		<path fill="#848688" d="M74,417.6c0,4.4-3.6,8-8,8H14c-4.4,0-8-3.6-8-8v-60c0-4.4,3.6-8,8-8h52c4.4,0,8,3.6,8,8V417.6z"/>
		<path fill="#C2C5C9" d="M74,415.6c0,4.4-3.6,8-8,8H14c-4.4,0-8-3.6-8-8v-60c0-4.4,3.6-8,8-8h52c4.4,0,8,3.6,8,8V415.6z"/>
		<g>
			<rect x="6" y="374.6" fill="none" width="68" height="28.8"/>
			<path d="M18.8,379.2c0.7-0.1,1.3-0.3,1.9-0.5s1-0.7,1.3-1.3c0.4-0.6,0.6-1.4,0.8-2.4h1.6v22.4h-2v-16.6h-5.9v-1.4
				C17.3,379.3,18.1,379.3,18.8,379.2z"/>
			<path d="M32.3,397.4c0-1.1,0.2-2.1,0.6-2.9c0.4-0.9,0.8-1.6,1.4-2.3c0.6-0.7,1.3-1.3,2-1.9c0.7-0.6,1.5-1.1,2.3-1.6
				c0.8-0.5,1.6-1.1,2.4-1.6c0.8-0.5,1.5-1.1,2.1-1.7c0.6-0.6,1.1-1.3,1.4-1.9c0.3-0.7,0.5-1.4,0.5-2.3c0-0.7-0.1-1.4-0.4-1.9
				s-0.6-1-1.1-1.4c-0.5-0.4-1-0.7-1.6-0.9c-0.6-0.2-1.3-0.3-1.9-0.3c-0.9,0-1.7,0.2-2.4,0.5c-0.7,0.3-1.2,0.8-1.6,1.4
				s-0.7,1.2-0.9,2c-0.2,0.7-0.3,1.5-0.2,2.4h-2c0-1.2,0.1-2.2,0.4-3.2s0.7-1.8,1.3-2.5c0.6-0.7,1.3-1.3,2.3-1.6
				c0.9-0.4,2-0.6,3.2-0.6c1,0,1.9,0.1,2.7,0.4c0.8,0.3,1.6,0.7,2.2,1.2s1.1,1.2,1.5,2c0.4,0.8,0.5,1.7,0.5,2.8
				c0,0.9-0.2,1.8-0.5,2.6c-0.3,0.8-0.7,1.5-1.2,2.1c-0.5,0.6-1.1,1.2-1.8,1.8s-1.4,1.1-2.1,1.5c-0.5,0.4-1.2,0.8-1.9,1.2
				c-0.7,0.4-1.4,0.9-2.1,1.5c-0.7,0.5-1.3,1.1-1.8,1.7c-0.5,0.6-0.8,1.3-1,2.1H47v1.9H32.3z"/>
			<path d="M52.3,392.7c0.2,0.7,0.6,1.3,1.1,1.9c0.5,0.5,1.1,0.9,1.8,1.2c0.7,0.3,1.5,0.4,2.4,0.4c0.7,0,1.5-0.1,2.1-0.3
				c0.7-0.2,1.3-0.5,1.8-1s1-0.9,1.3-1.6c0.3-0.6,0.5-1.3,0.5-2.1c0-0.8-0.1-1.5-0.4-2.1c-0.3-0.6-0.7-1.1-1.2-1.5
				c-0.5-0.4-1.1-0.7-1.7-0.9c-0.7-0.2-1.3-0.3-2.1-0.3h-1.7v-1.7h1.7c0.5,0,1-0.1,1.6-0.2c0.5-0.2,1-0.4,1.5-0.7
				c0.4-0.3,0.8-0.8,1.1-1.3c0.3-0.5,0.4-1.1,0.4-1.8c0-0.7-0.1-1.4-0.4-1.9c-0.3-0.5-0.6-1-1.1-1.3c-0.4-0.4-1-0.6-1.6-0.8
				c-0.6-0.2-1.2-0.2-1.9-0.2c-0.8,0-1.6,0.1-2.2,0.4c-0.6,0.3-1.2,0.7-1.6,1.2c-0.4,0.5-0.8,1.1-1,1.8c-0.2,0.7-0.3,1.5-0.3,2.3h-2
				c0-1.1,0.2-2,0.5-2.9c0.3-0.9,0.8-1.7,1.4-2.3c0.6-0.7,1.3-1.2,2.2-1.5c0.9-0.4,1.9-0.6,2.9-0.6c0.9,0,1.7,0.1,2.6,0.3
				c0.8,0.2,1.6,0.6,2.2,1c0.7,0.5,1.2,1,1.6,1.8c0.4,0.7,0.6,1.6,0.6,2.6c0,1.2-0.3,2.3-1,3.2c-0.7,0.9-1.6,1.5-2.8,1.8v0.1
				c1.5,0.2,2.6,0.8,3.4,1.8s1.2,2.2,1.2,3.7c0,1.1-0.2,2.1-0.6,2.9s-1,1.6-1.7,2.1s-1.5,1-2.5,1.3c-0.9,0.3-1.9,0.4-2.9,0.4
				c-1.2,0-2.2-0.2-3.2-0.5c-1-0.3-1.8-0.8-2.5-1.5c-0.7-0.6-1.2-1.4-1.6-2.4c-0.4-0.9-0.5-2-0.4-3.2h2
				C51.9,391.2,52,392,52.3,392.7z"/>
		</g>
	</g>
	<g>
		<path fill="#848688" d="M154,417.6c0,4.4-3.6,8-8,8H94c-4.4,0-8-3.6-8-8v-60c0-4.4,3.6-8,8-8h52c4.4,0,8,3.6,8,8V417.6z"/>
		<path fill="#C2C5C9" d="M154,415.6c0,4.4-3.6,8-8,8H94c-4.4,0-8-3.6-8-8v-60c0-4.4,3.6-8,8-8h52c4.4,0,8,3.6,8,8V415.6z"/>
		<g id="Rectangle_3_9_">
			<g>
				<path d="M129.3,378.7v7.4c0,5.4-4.4,9.8-9.8,9.8s-9.8-4.4-9.8-9.8v-7.4H108v7.4c0,6,4.7,11,10.6,11.4v6.6h-5.7v1.6H126V404h-5.7
					v-6.6c5.9-0.4,10.6-5.4,10.6-11.4v-7.4H129.3z M119.5,392.6c3.6,0,6.5-2.9,6.5-6.5v-13.9c0-3.6-2.9-6.5-6.5-6.5
					s-6.5,2.9-6.5,6.5V386C112.9,389.6,115.8,392.6,119.5,392.6z"/>
			</g>
		</g>
	</g>
	<g>
		<path fill="#848688" d="M634,417.6c0,4.4-3.6,8-8,8H494c-4.4,0-8-3.6-8-8v-60c0-4.4,3.6-8,8-8h132c4.4,0,8,3.6,8,8V417.6z"/>
		<path fill="#C2C5C9" d="M634,415.6c0,4.4-3.6,8-8,8H494c-4.4,0-8-3.6-8-8v-60c0-4.4,3.6-8,8-8h132c4.4,0,8,3.6,8,8V415.6z"/>
		<g>
			<rect x="486.2" y="371.6" fill="none" width="147.8" height="28.8"/>
			<path d="M523.6,377.9v3.9h0.1c0.5-1.3,1.3-2.4,2.4-3.1c1.1-0.7,2.4-1.1,3.9-1v2c-0.9,0-1.8,0.1-2.5,0.4c-0.7,0.3-1.4,0.7-1.9,1.2
				c-0.5,0.5-1,1.2-1.3,1.9c-0.3,0.7-0.4,1.5-0.4,2.4v8.8h-2v-16.5H523.6z"/>
			<path d="M532.7,389c0.2,0.8,0.5,1.5,1,2.1c0.4,0.6,1,1.1,1.7,1.5c0.7,0.4,1.5,0.6,2.5,0.6c1.5,0,2.6-0.4,3.5-1.2
				c0.8-0.8,1.4-1.8,1.7-3.1h2c-0.4,1.9-1.2,3.3-2.4,4.4c-1.1,1-2.8,1.5-4.8,1.5c-1.3,0-2.4-0.2-3.4-0.7c-0.9-0.5-1.7-1.1-2.3-1.9
				c-0.6-0.8-1-1.7-1.3-2.8c-0.3-1.1-0.4-2.2-0.4-3.3c0-1.1,0.1-2.2,0.4-3.2c0.3-1,0.7-2,1.3-2.8c0.6-0.8,1.4-1.5,2.3-2
				c0.9-0.5,2.1-0.8,3.4-0.8c1.3,0,2.5,0.3,3.4,0.8c0.9,0.5,1.7,1.2,2.3,2.1c0.6,0.9,1,1.9,1.3,3s0.4,2.3,0.3,3.4h-12.7
				C532.4,387.4,532.5,388.2,532.7,389z M542.7,382.8c-0.2-0.7-0.6-1.3-1-1.9c-0.4-0.5-1-1-1.6-1.3c-0.6-0.3-1.4-0.5-2.2-0.5
				c-0.8,0-1.6,0.2-2.2,0.5s-1.2,0.8-1.6,1.3s-0.8,1.2-1.1,1.9s-0.4,1.4-0.5,2.2h10.7C543.1,384.3,542.9,383.5,542.7,382.8z"/>
			<path d="M554.4,377.9v1.7H551v11.1c0,0.7,0.1,1.2,0.3,1.6c0.2,0.4,0.6,0.6,1.4,0.6c0.6,0,1.2,0,1.7-0.1v1.7c-0.3,0-0.6,0-0.9,0
				s-0.6,0-0.9,0c-1.3,0-2.3-0.3-2.8-0.8c-0.5-0.5-0.8-1.5-0.8-2.9v-11.3h-2.9v-1.7h2.9v-5h2v5H554.4z"/>
			<path d="M568.8,394.4v-3h-0.1c-0.5,1.1-1.3,2-2.3,2.5c-1,0.6-2.1,0.9-3.4,0.9c-1,0-1.9-0.1-2.7-0.4c-0.7-0.3-1.3-0.7-1.8-1.2
				s-0.8-1.2-1-2c-0.2-0.8-0.3-1.6-0.3-2.6v-10.7h2v10.8c0,1.5,0.4,2.6,1,3.4c0.7,0.8,1.8,1.2,3.4,1.2c0.9,0,1.6-0.2,2.2-0.6
				c0.6-0.4,1.1-0.9,1.5-1.5s0.7-1.3,0.9-2.1c0.2-0.8,0.3-1.6,0.3-2.4v-8.7h2v16.5H568.8z"/>
			<path d="M576.3,377.9v3.9h0.1c0.5-1.3,1.3-2.4,2.4-3.1c1.1-0.7,2.4-1.1,3.9-1v2c-0.9,0-1.8,0.1-2.5,0.4c-0.7,0.3-1.4,0.7-1.9,1.2
				c-0.5,0.5-1,1.2-1.3,1.9c-0.3,0.7-0.4,1.5-0.4,2.4v8.8h-2v-16.5H576.3z"/>
			<path d="M587.1,377.9v2.8h0.1c0.4-1,1.1-1.8,2-2.4s2.1-0.9,3.2-0.9c1.2,0,2.1,0.1,2.9,0.4c0.8,0.3,1.4,0.7,1.9,1.3
				c0.5,0.5,0.8,1.2,1,2c0.2,0.8,0.3,1.7,0.3,2.7v10.6h-2v-10.3c0-0.7-0.1-1.4-0.2-2c-0.1-0.6-0.4-1.1-0.7-1.6
				c-0.3-0.4-0.8-0.8-1.3-1.1s-1.2-0.4-2-0.4s-1.5,0.1-2.2,0.4s-1.2,0.7-1.6,1.2c-0.4,0.5-0.8,1.1-1,1.8s-0.4,1.4-0.4,2.3v9.6h-2
				v-16.5H587.1z"/>
		</g>
	</g>
</g>
</svg>
