<?xml version="1.0" encoding="utf-8"?>
<!-- Generator: Adobe Illustrator 17.0.0, SVG Export Plug-In . SVG Version: 6.00 Build 0)  -->
<!DOCTYPE svg PUBLIC "-//W3C//DTD SVG 1.1//EN" "http://www.w3.org/Graphics/SVG/1.1/DTD/svg11.dtd">
<svg version="1.1" id="Layer_1" xmlns="http://www.w3.org/2000/svg" xmlns:xlink="http://www.w3.org/1999/xlink" x="0px" y="0px"
	 width="98.5px" height="102.4px" viewBox="0 0 98.5 102.4" enable-background="new 0 0 98.5 102.4" xml:space="preserve">
<g>
	<path fill="#754C24" d="M90.4,1.8H0.1v-90.2c0-4.5-3.1-8.2-7-8.2h-86.6c-3.9,0-7,3.7-7,8.2V1.8h-90.2c-4.5,0-8.2,3.1-8.2,7v86.6
		c0,3.9,3.7,7,8.2,7h90.2v90.2c0,4.5,3.1,8.2,7,8.2h86.6c3.9,0,7-3.7,7-8.2v-90.2h90.2c4.5,0,8.2-3.1,8.2-7V8.8
		C98.6,4.9,94.9,1.8,90.4,1.8z"/>
	<g>
		<path fill="#EFE8D8" d="M-93.6,197.6c-3.1,0-5.6-3-5.6-6.8V99.2h-91.7c-3.7,0-6.8-2.5-6.8-5.6V7c0-3.1,3-5.6,6.8-5.6h91.7v-91.7
			c0-3.7,2.5-6.8,5.6-6.8H-7c3.1,0,5.6,3,5.6,6.8V1.4h91.7C94,1.4,97,3.9,97,7v86.6c0,3.1-3,5.6-6.8,5.6H-1.4v91.7
			c0,3.7-2.5,6.8-5.6,6.8H-93.6z"/>
		<path fill="#754C24" d="M-7-95.6c2.3,0,4.2,2.5,4.2,5.4V0v2.8H0h90.2c2.9,0,5.4,1.9,5.4,4.2v86.6c0,2.3-2.5,4.2-5.4,4.2H0h-2.8
			v2.8v90.2c0,2.9-1.9,5.4-4.2,5.4h-86.6c-2.3,0-4.2-2.5-4.2-5.4v-90.2v-2.8h-2.8h-90.2c-2.9,0-5.4-1.9-5.4-4.2V7
			c0-2.3,2.5-4.2,5.4-4.2h90.2h2.8V0v-90.2c0-2.9,1.9-5.4,4.2-5.4H-7 M-7-98.5h-86.6c-3.9,0-7,3.7-7,8.2V0h-90.2
			c-4.5,0-8.2,3.1-8.2,7v86.6c0,3.9,3.7,7,8.2,7h90.2v90.2c0,4.5,3.1,8.2,7,8.2H-7c3.9,0,7-3.7,7-8.2v-90.2h90.2
			c4.5,0,8.2-3.1,8.2-7V7c0-3.9-3.7-7-8.2-7H0v-90.2C0-94.8-3.1-98.5-7-98.5L-7-98.5z"/>
	</g>
	<circle fill="none" stroke="#EAD8AA" stroke-width="5.6693" stroke-miterlimit="10" cx="-50.3" cy="50.3" r="61.7"/>
	<polyline fill="none" stroke="#754C24" stroke-width="11.3386" stroke-miterlimit="10" points="33.1,48.9 48.1,63.4 76.8,34.7 	"/>
</g>
</svg>
