<?xml version="1.0" encoding="utf-8"?>
<!-- Generator: Adobe Illustrator 17.0.0, SVG Export Plug-In . SVG Version: 6.00 Build 0)  -->
<!DOCTYPE svg PUBLIC "-//W3C//DTD SVG 1.1//EN" "http://www.w3.org/Graphics/SVG/1.1/DTD/svg11.dtd">
<svg version="1.1" id="Layer_1" xmlns="http://www.w3.org/2000/svg" xmlns:xlink="http://www.w3.org/1999/xlink" x="0px" y="0px"
	 width="120px" height="120px" viewBox="0 0 120 120" enable-background="new 0 0 120 120" xml:space="preserve">
<rect fill="#C69C6D" width="120" height="120"/>
<g>
	<rect x="9.8" y="38.4" fill="none" width="100.4" height="43.2"/>
	<path d="M22.1,39.8c1.3-0.2,3.1-0.4,5.3-0.4c2.8,0,4.8,0.6,6,1.8c1.2,1,1.9,2.6,1.9,4.5c0,2-0.6,3.5-1.7,4.6
		c-1.5,1.6-3.9,2.4-6.6,2.4c-0.8,0-1.6,0-2.2-0.2v8.6h-2.8V39.8z M24.9,50.2c0.6,0.2,1.4,0.2,2.3,0.2c3.4,0,5.4-1.6,5.4-4.6
		c0-2.8-2-4.2-5.1-4.2c-1.2,0-2.1,0.1-2.6,0.2V50.2z"/>
	<path d="M52.3,53.2c0,5.7-4,8.2-7.7,8.2c-4.2,0-7.4-3.1-7.4-8c0-5.2,3.4-8.2,7.7-8.2C49.3,45.3,52.3,48.5,52.3,53.2z M40,53.4
		c0,3.4,2,6,4.7,6c2.7,0,4.7-2.5,4.7-6c0-2.6-1.3-6-4.6-6C41.4,47.4,40,50.4,40,53.4z"/>
	<path d="M62.8,51.4v2.1h-7.9v-2.1H62.8z"/>
	<path d="M69.5,41.2v4.4h4v2.1h-4v8.4c0,1.9,0.5,3,2.1,3c0.7,0,1.3-0.1,1.6-0.2l0.1,2.1c-0.5,0.2-1.4,0.4-2.5,0.4
		c-1.3,0-2.4-0.4-3-1.2c-0.8-0.8-1.1-2.2-1.1-4v-8.4h-2.4v-2.1h2.4v-3.7L69.5,41.2z"/>
	<path d="M85.3,61.1l-0.2-2H85c-0.9,1.2-2.5,2.3-4.7,2.3c-3.1,0-4.7-2.2-4.7-4.4c0-3.7,3.3-5.8,9.3-5.8v-0.3c0-1.3-0.4-3.6-3.5-3.6
		c-1.4,0-2.9,0.4-4,1.2l-0.6-1.9c1.3-0.8,3.1-1.4,5.1-1.4c4.7,0,5.9,3.2,5.9,6.3v5.8c0,1.3,0.1,2.7,0.3,3.7H85.3z M84.9,53.2
		c-3.1-0.1-6.6,0.5-6.6,3.5c0,1.8,1.2,2.7,2.7,2.7c2,0,3.3-1.3,3.7-2.6c0.1-0.3,0.2-0.6,0.2-0.9V53.2z"/>
	<path d="M95.4,41.2v4.4h4v2.1h-4v8.4c0,1.9,0.5,3,2.1,3c0.7,0,1.3-0.1,1.6-0.2l0.1,2.1c-0.5,0.2-1.4,0.4-2.5,0.4
		c-1.3,0-2.4-0.4-3-1.2c-0.8-0.8-1.1-2.2-1.1-4v-8.4h-2.4v-2.1h2.4v-3.7L95.4,41.2z"/>
</g>
<g>
</g>
<g>
</g>
<g>
</g>
<g>
</g>
<g>
</g>
<g>
</g>
<g>
</g>
<g>
</g>
<g>
</g>
<g>
</g>
<g>
</g>
</svg>
