<?xml version="1.0" encoding="utf-8"?>
<!-- Generator: Adobe Illustrator 17.0.0, SVG Export Plug-In . SVG Version: 6.00 Build 0)  -->
<!DOCTYPE svg PUBLIC "-//W3C//DTD SVG 1.1//EN" "http://www.w3.org/Graphics/SVG/1.1/DTD/svg11.dtd">
<svg version="1.1" id="Layer_1" xmlns="http://www.w3.org/2000/svg" xmlns:xlink="http://www.w3.org/1999/xlink" x="0px" y="0px"
	 width="120px" height="120px" viewBox="0 0 120 120" enable-background="new 0 0 120 120" xml:space="preserve">
<g>
	<path fill="none" stroke="#000000" stroke-width="0.7087" stroke-miterlimit="10" d="M60,27.8c8.2,0.1,16.4,0.4,24.5,2.3
		c5,1.2,9.8,3,13.9,6.3c5,4.1,7.1,9.5,7.3,15.8c0,1.7-0.5,2.6-2.3,3c-1.5,0.3-2.9,0.9-4.3,1.6c-3.7,2-5.4,5.2-5.8,9.3
		c-0.1,0.7,0,1.3,0,2c0.1,1.4-0.3,2-1.9,1.6c-8.9-1.8-17.9-1.5-26.7,0.5c-4.1,0.9-7.8,0.3-11.7-0.4c-8.2-1.4-16.3-1.7-24.5-0.1
		c-1.3,0.2-1.9,0-1.8-1.4c0-0.2,0-0.4,0-0.7c-0.5-7.2-3-10.3-9.9-12.5c-2.3-0.7-2.3-0.7-2.3-3.1c0-8.1,3.9-13.9,10.7-18
		c5.5-3.3,11.7-4.8,18.1-5.4C48.9,28.3,54.5,28.1,60,27.8z"/>
	<path fill="#FFFFFF" stroke="#5C3318" stroke-width="0.7087" stroke-miterlimit="10" d="M39,75.8c-8.7-1.1-15.1-5.5-18-13.9
		c-2.5-7-3.4-14.3-3.1-21.8c0.3-10,6-16.2,14.4-20.4c4.5-2.2,8.9-0.9,13,1.4c4.5,2.5,7.3,6.5,9.8,10.8c4.2,7.5,7.1,15.4,6.9,24.1
		C61.7,64.7,58,71,49.5,73.8C48.4,74.1,42,76.2,39,75.8z"/>
	<path fill="#FFFFFF" stroke="#5C3318" stroke-width="0.7087" stroke-miterlimit="10" d="M89.5,19.7c8.9,2.4,13,8.5,13.7,17.3
		c0.8,8.9-1.7,17.1-5.5,24.9c-2.2,4.6-4.9,8.8-9.3,11.6c-4.1,2.6-8.5,4.2-13.2,2.2C66.4,72,60.3,66,59.3,55.9
		c-0.7-7.6-0.2-15.1,1.9-22.4c2.5-8.7,8.7-13.6,17.5-15.2C81.7,17.7,88.3,19.4,89.5,19.7z"/>
	<path fill="#FFFFFF" stroke="#000000" stroke-width="0.7087" stroke-miterlimit="10" d="M114.5,69.1c-0.7,6.1-2.1,12.8-4.9,19.2
		c-0.7,1.6-1.6,3.2-2.8,4.4c-1,1-2.6,1.7-3.8,2.2c-7.9,3.2-21.9,7-42.8,7c-20.7,0-38.5-1-47.8-10.3c-1.9-1.9-2.8-4.8-3.5-7.4
		C7.5,79,6.3,73.8,5.6,68.5c-0.9-6.3,3.9-10.9,10.1-10.3c4.4,0.4,7.6,3.9,7.9,8.6c0.1,1.6,0,3.3,0,4.9c0.1,2.7,0.3,2.8,2.9,2.3
		c3.6-0.7,7.3-1.5,11-1.9c6.3-0.6,12.4,0.3,18.6,1.6c2.7,0.6,5.4,0.6,8.1,0c9.9-2.1,19.7-2.6,29.5,0.3c2.3,0.7,2.9,0.1,3-2.4
		c0.1-1.5,0-3.1,0-4.6c0.1-5.3,3.7-8.9,8.9-8.9c5.3,0,9,3.8,9,9.2C114.5,67.6,114.5,68,114.5,69.1z"/>
	<circle fill="#FFFFFF" stroke="#5C3318" stroke-width="0.2835" stroke-miterlimit="10" cx="34.4" cy="40.1" r="3.4"/>
	<path fill="#FFFFFF" stroke="#5C3318" stroke-width="0.2835" stroke-miterlimit="10" d="M48.5,37.3c0.1,1.9-1.3,3.4-3.2,3.4
		s-3.5-1.5-3.7-3.4c-0.1-1.9,1.3-3.4,3.2-3.4S48.4,35.4,48.5,37.3z"/>
	<path fill="#5C3318" stroke="#FFFFFF" stroke-width="0.2835" stroke-miterlimit="10" d="M46.4,38c0.1,0.8-0.5,1.4-1.3,1.4
		c-0.8,0-1.4-0.6-1.5-1.4c-0.1-0.8,0.5-1.4,1.3-1.4C45.7,36.6,46.4,37.2,46.4,38z"/>
	<circle fill="#5C3318" stroke="#FFFFFF" stroke-width="0.2835" stroke-miterlimit="10" cx="34.8" cy="40.7" r="1.4"/>
	<path fill="none" stroke="#42210B" stroke-width="0.2835" stroke-miterlimit="10" d="M52.3,51.4c0.3,2.8-3.3,5.5-8.2,6
		c-4.9,0.6-9.1-1.2-9.4-3.9S52,48.7,52.3,51.4z"/>
	<ellipse fill="#FFFFFF" stroke="#42210B" stroke-width="0.2835" stroke-miterlimit="10" cx="86.5" cy="31.6" rx="3.6" ry="2.9"/>
	<path fill="#FFFFFF" stroke="#42210B" stroke-width="0.2835" stroke-miterlimit="10" d="M78.4,30.7c-0.3,1.6-2.2,2.9-4.3,2.9
		s-3.4-1.3-3-2.9c0.3-1.6,2.2-2.9,4.3-2.9C77.4,27.8,78.7,29.1,78.4,30.7z"/>
	<path fill="#42210B" stroke="#FFFFFF" stroke-width="0.2835" stroke-miterlimit="10" d="M76.5,31.6c-0.2,0.8-1.1,1.4-2,1.4
		c-1,0-1.6-0.6-1.5-1.4c0.2-0.8,1.1-1.4,2-1.4C76,30.2,76.6,30.8,76.5,31.6z"/>
	<ellipse fill="#FFFFFF" stroke="#42210B" stroke-width="0.2835" stroke-miterlimit="10" cx="86.5" cy="31.6" rx="3.6" ry="2.9"/>
	<ellipse fill="#42210B" stroke="#FFFFFF" stroke-width="0.2835" stroke-miterlimit="10" cx="86.5" cy="32.3" rx="1.7" ry="1.4"/>
	<g>
		<path fill="#42210B" d="M74.9,38.8c2.6,0,6.7,0.8,9.5,3.3c4.2,3.7,4.1,7.2,3.3,8.1c-0.1,0.1-0.5,0.2-1,0.2c-2.4,0-8-1.6-10.9-4.5
			c-2.4-2.4-4.3-5.8-3.5-6.6C72.6,39,73.6,38.8,74.9,38.8 M74.9,38.5c-0.5,0-2.3,0-2.8,0.6c-1.1,1.1,1.4,4.9,3.5,7
			c3,3,8.8,4.5,11.1,4.5c0.6,0,1-0.1,1.2-0.3c0.4-0.4,0.6-1,0.5-1.8c0-1-0.5-3.6-3.8-6.6C81.8,39.4,77.8,38.5,74.9,38.5L74.9,38.5z"
			/>
	</g>
	<g>
		<defs>
			<path id="SVGID_1_" d="M84.4,42c-4.2-3.7-11.2-3.6-12.1-2.8c-0.8,0.8,1.1,4.2,3.5,6.6c3.5,3.5,11,5.1,11.9,4.2
				C88.6,49.2,88.6,45.8,84.4,42z"/>
		</defs>
		<clipPath id="SVGID_2_">
			<use xlink:href="#SVGID_1_"  overflow="visible"/>
		</clipPath>
		<path clip-path="url(#SVGID_2_)" fill="none" stroke="#42210B" stroke-width="0.1701" stroke-miterlimit="10" d="M85.5,41.4H69.7
			v-4.3h15.8V41.4z M76.5,50.9h14.1v-3.5H76.5V50.9z"/>
	</g>
	<g>
		<defs>
			<path id="SVGID_3_" d="M52.3,51.4c0.3,2.8-3.3,5.5-8.2,6c-4.9,0.6-9.1-1.2-9.4-3.9S52,48.7,52.3,51.4z"/>
		</defs>
		<clipPath id="SVGID_4_">
			<use xlink:href="#SVGID_3_"  overflow="visible"/>
		</clipPath>
		
			<rect x="33.5" y="47.2" transform="matrix(0.9843 -0.1766 0.1766 0.9843 -8.1109 8.4419)" clip-path="url(#SVGID_4_)" fill="none" stroke="#42210B" stroke-width="0.1701" stroke-miterlimit="10" width="19.7" height="5.2"/>
	</g>
</g>
<g>
	<rect x="15" y="100.7" fill="none" width="85.5" height="24.4"/>
</g>
<g>
</g>
<g>
</g>
<g>
</g>
<g>
</g>
<g>
</g>
<g>
</g>
<g>
</g>
<g>
</g>
<g>
</g>
<g>
</g>
<g>
</g>
</svg>
