<?xml version="1.0" encoding="utf-8"?>
<!-- Generator: Adobe Illustrator 17.0.0, SVG Export Plug-In . SVG Version: 6.00 Build 0)  -->
<!DOCTYPE svg PUBLIC "-//W3C//DTD SVG 1.1//EN" "http://www.w3.org/Graphics/SVG/1.1/DTD/svg11.dtd">
<svg version="1.1" id="Layer_1" xmlns="http://www.w3.org/2000/svg" xmlns:xlink="http://www.w3.org/1999/xlink" x="0px" y="0px"
	 width="120px" height="120px" viewBox="0 0 120 120" enable-background="new 0 0 120 120" xml:space="preserve">
<g>
	<path fill="none" stroke="#000000" stroke-width="0.7087" stroke-miterlimit="10" d="M61.5,32.3c7.1,0,14.1,0.4,21,2
		c4.3,1,8.4,2.6,11.9,5.4c4.3,3.5,6.1,8.2,6.3,13.6c0,1.4-0.4,2.2-1.9,2.6c-1.3,0.3-2.5,0.8-3.7,1.4c-3.2,1.7-4.7,4.5-4.9,8
		c0,0.6,0,1.1,0,1.7c0.1,1.2-0.2,1.7-1.6,1.4c-7.7-1.5-15.4-1.3-22.9,0.4c-3.5,0.8-6.7,0.2-10-0.4c-7-1.2-14-1.4-21-0.1
		c-1.1,0.2-1.6,0-1.6-1.2c0-0.2,0-0.4,0-0.6c-0.4-6.2-2.6-8.9-8.5-10.7c-2-0.6-2-0.6-2-2.7c0-6.9,3.4-12,9.2-15.4
		c4.8-2.9,10.1-4.1,15.5-4.6C52,32.8,56.8,32.6,61.5,32.3z"/>
	<path fill="#FFFFFF" stroke="#5C3318" stroke-width="0.7087" stroke-miterlimit="10" d="M43.5,73.6c-7.4-1-12.9-4.7-15.4-11.9
		c-2.1-6-2.9-12.3-2.7-18.7c0.3-8.5,5.1-13.9,12.3-17.5c3.8-1.9,7.6-0.8,11.2,1.2c3.8,2.2,6.3,5.6,8.4,9.3
		c3.6,6.4,6.1,13.2,5.9,20.7C63,64,59.8,69.4,52.5,71.8C51.6,72.1,46.1,73.9,43.5,73.6z"/>
	<path fill="#FFFFFF" stroke="#5C3318" stroke-width="0.7087" stroke-miterlimit="10" d="M86.8,25.4c7.6,2,11.1,7.3,11.8,14.8
		c0.7,7.6-1.5,14.7-4.8,21.4c-1.9,3.9-4.2,7.5-8,10c-3.5,2.3-7.3,3.6-11.3,1.9c-7.6-3.2-12.8-8.4-13.6-17c-0.6-6.5-0.2-13,1.6-19.2
		c2.1-7.5,7.5-11.6,15-13.1C80.2,23.7,85.9,25.1,86.8,25.4z"/>
	<path fill="#FFFFFF" stroke="#000000" stroke-width="0.7087" stroke-miterlimit="10" d="M108.3,67.8c-0.6,5.2-1.8,11-4.2,16.5
		c-0.6,1.4-1.4,2.7-2.4,3.8c-0.9,0.9-2.2,1.5-3.3,1.9c-6.8,2.8-18.8,6-36.7,6c-17.8,0-33-0.9-41-8.9c-1.6-1.6-2.4-4.1-3-6.3
		c-1.2-4.4-2.2-8.9-2.8-13.5c-0.8-5.4,3.3-9.3,8.7-8.8c3.8,0.4,6.6,3.4,6.8,7.4c0.1,1.4,0,2.8,0,4.2c0.1,2.3,0.3,2.4,2.5,2
		c3.1-0.6,6.3-1.3,9.4-1.6c5.4-0.5,10.7,0.2,15.9,1.3c2.4,0.5,4.6,0.5,7,0c8.5-1.8,16.9-2.2,25.4,0.3c2,0.6,2.5,0.1,2.6-2
		c0-1.3,0-2.6,0-3.9c0.1-4.5,3.2-7.6,7.6-7.7c4.6,0,7.7,3.2,7.7,7.9C108.3,66.6,108.3,66.8,108.3,67.8z"/>
	<circle fill="#FFFFFF" stroke="#5C3318" stroke-width="0.2835" stroke-miterlimit="10" cx="39.6" cy="42.9" r="2.9"/>
	<path fill="#FFFFFF" stroke="#5C3318" stroke-width="0.2835" stroke-miterlimit="10" d="M51.6,40.5c0.1,1.6-1.1,2.9-2.7,2.9
		c-1.6,0-3-1.3-3.2-2.9c-0.1-1.6,1.1-2.9,2.7-2.9C50.1,37.5,51.5,38.9,51.6,40.5z"/>
	<path fill="#5C3318" stroke="#FFFFFF" stroke-width="0.2835" stroke-miterlimit="10" d="M49.9,41.1c0,0.7-0.4,1.2-1.1,1.2
		c-0.7,0-1.2-0.5-1.3-1.2c0-0.7,0.4-1.2,1.1-1.2C49.3,39.9,49.8,40.5,49.9,41.1z"/>
	<circle fill="#5C3318" stroke="#FFFFFF" stroke-width="0.2835" stroke-miterlimit="10" cx="39.9" cy="43.4" r="1.2"/>
	<path fill="none" stroke="#42210B" stroke-width="0.2835" stroke-miterlimit="10" d="M54.9,52.7c0.3,2.4-2.9,4.7-7,5.2
		c-4.2,0.5-7.8-1-8.1-3.4C39.5,52.1,54.6,50.3,54.9,52.7z"/>
	<ellipse fill="#FFFFFF" stroke="#42210B" stroke-width="0.2835" stroke-miterlimit="10" cx="84.3" cy="35.6" rx="3.1" ry="2.5"/>
	<path fill="#FFFFFF" stroke="#42210B" stroke-width="0.2835" stroke-miterlimit="10" d="M77.3,34.8c-0.3,1.4-1.9,2.5-3.7,2.5
		c-1.7,0-2.9-1.1-2.6-2.5c0.3-1.4,1.9-2.5,3.7-2.5S77.6,33.5,77.3,34.8z"/>
	<path fill="#42210B" stroke="#FFFFFF" stroke-width="0.2835" stroke-miterlimit="10" d="M75.7,35.6c-0.1,0.7-0.9,1.2-1.8,1.2
		c-0.8,0-1.4-0.5-1.2-1.2s0.9-1.2,1.8-1.2C75.3,34.4,75.8,35,75.7,35.6z"/>
	<ellipse fill="#FFFFFF" stroke="#42210B" stroke-width="0.2835" stroke-miterlimit="10" cx="84.3" cy="35.6" rx="3.1" ry="2.5"/>
	<ellipse fill="#42210B" stroke="#FFFFFF" stroke-width="0.2835" stroke-miterlimit="10" cx="84.3" cy="36.2" rx="1.5" ry="1.2"/>
	<g>
		<path fill="#42210B" d="M74.3,41.8c2.3,0,5.8,0.7,8.1,2.8c3.6,3.2,3.6,6.2,2.8,6.9c-0.1,0.1-0.4,0.2-0.9,0.2c-2,0-6.9-1.4-9.3-3.8
			c-2.1-2.1-3.7-5-3-5.7C72.4,41.9,73.2,41.8,74.3,41.8 M74.3,41.5c-0.6,0-2,0-2.4,0.5c-0.6,0.6-0.1,1.8,0.4,2.7
			c0.6,1.1,1.6,2.4,2.6,3.4c2.6,2.6,7.6,3.9,9.5,3.9c0.5,0,0.9-0.1,1.1-0.3c0.3-0.3,0.5-0.9,0.5-1.6c0-0.9-0.4-3.1-3.3-5.7
			C80.3,42.2,76.8,41.5,74.3,41.5L74.3,41.5z"/>
	</g>
	<g>
		<defs>
			<path id="SVGID_1_" d="M82.5,44.6c-3.6-3.2-9.6-3.1-10.4-2.4c-0.7,0.7,0.9,3.6,3,5.7c3,3,9.5,4.4,10.2,3.6
				C86,50.8,86.1,47.8,82.5,44.6z"/>
		</defs>
		<clipPath id="SVGID_2_">
			<use xlink:href="#SVGID_1_"  overflow="visible"/>
		</clipPath>
		<path clip-path="url(#SVGID_2_)" fill="none" stroke="#42210B" stroke-width="0.1701" stroke-miterlimit="10" d="M83.4,44H69.9
			v-3.7h13.5V44z M75.7,52.2h12.1v-3H75.7V52.2z"/>
	</g>
	<g>
		<defs>
			<path id="SVGID_3_" d="M54.9,52.7c0.3,2.4-2.9,4.7-7,5.2c-4.2,0.5-7.8-1-8.1-3.4C39.5,52.1,54.6,50.3,54.9,52.7z"/>
		</defs>
		<clipPath id="SVGID_4_">
			<use xlink:href="#SVGID_3_"  overflow="visible"/>
		</clipPath>
		
			<rect x="38.8" y="49" transform="matrix(0.9843 -0.1766 0.1766 0.9843 -8.3054 9.1496)" clip-path="url(#SVGID_4_)" fill="none" stroke="#42210B" stroke-width="0.1701" stroke-miterlimit="10" width="16.9" height="4.5"/>
	</g>
</g>
<g>
	<rect x="15" y="100.7" fill="none" width="85.5" height="24.4"/>
</g>
<g>
</g>
<g>
</g>
<g>
</g>
<g>
</g>
<g>
</g>
<g>
</g>
<g>
</g>
<g>
</g>
<g>
</g>
<g>
</g>
<g>
</g>
</svg>
