<?xml version="1.0" encoding="utf-8"?>
<!-- Generator: Adobe Illustrator 17.0.0, SVG Export Plug-In . SVG Version: 6.00 Build 0)  -->
<!DOCTYPE svg PUBLIC "-//W3C//DTD SVG 1.1//EN" "http://www.w3.org/Graphics/SVG/1.1/DTD/svg11.dtd">
<svg version="1.1" id="Layer_1" xmlns="http://www.w3.org/2000/svg" xmlns:xlink="http://www.w3.org/1999/xlink" x="0px" y="0px"
	 width="200px" height="200px" viewBox="-40 -40 200 200" enable-background="new -40 -40 200 200" xml:space="preserve">
<circle fill="#FFFFFF" stroke="#5C3318" stroke-width="0.9921" stroke-miterlimit="10" cx="60.065" cy="60.023" r="96.904"/>
<g>
	<path fill="none" stroke="#000000" stroke-width="0.7087" stroke-miterlimit="10" d="M60.007,18.698
		c10.512,0.128,21.024,0.513,31.408,2.948c6.41,1.538,12.563,3.846,17.819,8.076c6.41,5.256,9.102,12.178,9.358,20.255
		c0,2.179-0.641,3.333-2.948,3.846c-1.923,0.385-3.718,1.154-5.512,2.051c-4.743,2.564-6.923,6.666-7.435,11.922
		c-0.128,0.897,0,1.667,0,2.564c0.128,1.795-0.385,2.564-2.436,2.051c-11.409-2.308-22.947-1.923-34.228,0.641
		c-5.256,1.154-9.999,0.385-14.999-0.513c-10.512-1.795-20.896-2.179-31.408-0.128c-1.667,0.256-2.436,0-2.308-1.795
		c0-0.256,0-0.513,0-0.897c-0.641-9.23-3.846-13.204-12.691-16.024c-2.948-0.897-2.948-0.897-2.948-3.974
		c0-10.384,5-17.819,13.717-23.075c7.051-4.23,14.999-6.153,23.203-6.923C45.777,19.339,52.956,19.083,60.007,18.698z"/>
	<path fill="#FFFFFF" stroke="#5C3318" stroke-width="0.7087" stroke-miterlimit="10" d="M33.086,80.231
		c-11.153-1.41-19.357-7.051-23.075-17.819c-3.205-8.974-4.359-18.332-3.974-27.946c0.385-12.819,7.692-20.768,18.46-26.152
		c5.769-2.82,11.409-1.154,16.665,1.795c5.769,3.205,9.358,8.333,12.563,13.845c5.384,9.615,9.102,19.742,8.845,30.895
		c-0.385,11.153-5.128,19.229-16.024,22.819C45.136,78.052,36.932,80.744,33.086,80.231z"/>
	<path fill="#FFFFFF" stroke="#5C3318" stroke-width="0.7087" stroke-miterlimit="10" d="M97.824,8.314
		c11.409,3.077,16.665,10.897,17.563,22.178c1.026,11.409-2.179,21.921-7.051,31.92c-2.82,5.897-6.282,11.281-11.922,14.871
		c-5.256,3.333-10.897,5.384-16.922,2.82C68.211,75.36,60.391,67.668,59.109,54.721c-0.897-9.743-0.256-19.357,2.436-28.716
		C64.75,14.852,72.698,8.571,83.979,6.52C87.825,5.75,96.286,7.93,97.824,8.314z"/>
	<path fill="#FFFFFF" stroke="#000000" stroke-width="0.7087" stroke-miterlimit="10" d="M129.873,71.642
		c-0.897,7.82-2.692,16.409-6.282,24.613c-0.897,2.051-2.051,4.102-3.589,5.641c-1.282,1.282-3.333,2.179-4.871,2.82
		c-10.127,4.102-28.075,8.974-54.867,8.974c-26.536,0-49.355-1.282-61.277-13.204C-3.45,98.05-4.603,94.333-5.501,91
		c-1.795-6.666-3.333-13.332-4.23-20.127c-1.154-8.076,5-13.973,12.948-13.204c5.641,0.513,9.743,5,10.127,11.025
		c0.128,2.051,0,4.23,0,6.282c0.128,3.461,0.385,3.589,3.718,2.948c4.615-0.897,9.358-1.923,14.101-2.436
		c8.076-0.769,15.896,0.385,23.844,2.051c3.461,0.769,6.923,0.769,10.384,0c12.691-2.692,25.254-3.333,37.817,0.385
		c2.948,0.897,3.718,0.128,3.846-3.077c0.128-1.923,0-3.974,0-5.897c0.128-6.794,4.743-11.409,11.409-11.409
		c6.794,0,11.538,4.871,11.538,11.794C129.873,69.719,129.873,70.232,129.873,71.642z"/>
	<circle fill="#FFFFFF" stroke="#5C3318" stroke-width="0.2835" stroke-miterlimit="10" cx="27.189" cy="34.466" r="4.359"/>
	<path fill="#FFFFFF" stroke="#5C3318" stroke-width="0.2835" stroke-miterlimit="10" d="M45.264,30.877
		c0.128,2.436-1.667,4.359-4.102,4.359s-4.487-1.923-4.743-4.359c-0.128-2.436,1.667-4.359,4.102-4.359S45.136,28.441,45.264,30.877
		z"/>
	<path fill="#5C3318" stroke="#FFFFFF" stroke-width="0.2835" stroke-miterlimit="10" d="M42.572,31.774
		c0.128,1.026-0.641,1.795-1.667,1.795c-1.026,0-1.795-0.769-1.923-1.795c-0.128-1.026,0.641-1.795,1.667-1.795
		S42.572,30.748,42.572,31.774z"/>
	<circle fill="#5C3318" stroke="#FFFFFF" stroke-width="0.2835" stroke-miterlimit="10" cx="27.702" cy="35.235" r="1.795"/>
	<path fill="none" stroke="#42210B" stroke-width="0.2835" stroke-miterlimit="10" d="M50.136,48.952
		c0.385,3.589-4.23,7.051-10.512,7.692c-6.282,0.769-11.666-1.538-12.05-5S49.751,45.491,50.136,48.952z"/>
	
		<ellipse fill="#FFFFFF" stroke="#42210B" stroke-width="0.2835" stroke-miterlimit="10" cx="93.978" cy="23.569" rx="4.615" ry="3.718"/>
	<path fill="#FFFFFF" stroke="#42210B" stroke-width="0.2835" stroke-miterlimit="10" d="M83.594,22.416
		c-0.385,2.051-2.82,3.718-5.512,3.718s-4.359-1.667-3.846-3.718c0.385-2.051,2.82-3.718,5.512-3.718
		C82.313,18.698,83.979,20.365,83.594,22.416z"/>
	<path fill="#42210B" stroke="#FFFFFF" stroke-width="0.2835" stroke-miterlimit="10" d="M81.159,23.569
		c-0.256,1.026-1.41,1.795-2.564,1.795c-1.282,0-2.051-0.769-1.923-1.795c0.256-1.026,1.41-1.795,2.564-1.795
		C80.518,21.775,81.287,22.544,81.159,23.569z"/>
	
		<ellipse fill="#FFFFFF" stroke="#42210B" stroke-width="0.2835" stroke-miterlimit="10" cx="93.978" cy="23.569" rx="4.615" ry="3.718"/>
	
		<ellipse fill="#42210B" stroke="#FFFFFF" stroke-width="0.2835" stroke-miterlimit="10" cx="93.978" cy="24.467" rx="2.179" ry="1.795"/>
	<g>
		<path fill="#42210B" d="M79.108,32.799c3.333,0,8.589,1.026,12.178,4.23c5.384,4.743,5.256,9.23,4.23,10.384
			c-0.128,0.128-0.641,0.256-1.282,0.256c-3.077,0-10.256-2.051-13.973-5.769c-3.077-3.077-5.512-7.435-4.487-8.461
			C76.159,33.056,77.441,32.799,79.108,32.799 M79.108,32.415c-0.641,0-2.948,0-3.589,0.769c-1.41,1.41,1.795,6.282,4.487,8.974
			c3.846,3.846,11.281,5.769,14.23,5.769c0.769,0,1.282-0.128,1.538-0.385c0.513-0.513,0.769-1.282,0.641-2.307
			c0-1.282-0.641-4.615-4.871-8.461C87.953,33.569,82.825,32.415,79.108,32.415L79.108,32.415z"/>
	</g>
	<g>
		<g>
			<defs>
				<path id="SVGID_1_" d="M91.286,36.902c-5.384-4.743-14.358-4.615-15.512-3.589c-1.026,1.026,1.41,5.384,4.487,8.461
					c4.487,4.487,14.101,6.538,15.255,5.384C96.67,46.132,96.67,41.773,91.286,36.902z"/>
			</defs>
			<clipPath id="SVGID_2_">
				<use xlink:href="#SVGID_1_"  overflow="visible"/>
			</clipPath>
			<path clip-path="url(#SVGID_2_)" fill="none" stroke="#42210B" stroke-width="0.1701" stroke-miterlimit="10" d="M92.696,36.132
				H72.442V30.62h20.255V36.132z M81.159,48.311h18.075v-4.487H81.159V48.311z"/>
		</g>
	</g>
	<g>
		<g>
			<defs>
				<path id="SVGID_3_" d="M50.322,46.899c1.012,3.465-2.919,7.687-8.989,9.427c-6.047,1.866-11.754,0.546-12.744-2.793
					C27.599,50.195,49.332,43.56,50.322,46.899z"/>
			</defs>
			<clipPath id="SVGID_4_">
				<use xlink:href="#SVGID_3_"  overflow="visible"/>
			</clipPath>
			
				<rect x="26.039" y="43.573" transform="matrix(-0.9843 0.1766 -0.1766 -0.9843 85.0086 86.2475)" clip-path="url(#SVGID_4_)" fill="none" stroke="#42210B" stroke-width="0.1701" stroke-miterlimit="10" width="25.255" height="6.666"/>
		</g>
	</g>
</g>
</svg>
