<?xml version="1.0" encoding="utf-8"?>
<!-- Generator: Adobe Illustrator 17.0.0, SVG Export Plug-In . SVG Version: 6.00 Build 0)  -->
<!DOCTYPE svg PUBLIC "-//W3C//DTD SVG 1.1//EN" "http://www.w3.org/Graphics/SVG/1.1/DTD/svg11.dtd">
<svg version="1.1" id="Layer_1" xmlns="http://www.w3.org/2000/svg" xmlns:xlink="http://www.w3.org/1999/xlink" x="0px" y="0px"
	 width="98.6px" height="102.4px" viewBox="0 0 98.6 102.4" enable-background="new 0 0 98.6 102.4" xml:space="preserve">
<g>
	<path fill="#754C24" d="M289.4,1.8h-90.2v-90.2c0-4.5-3.1-8.2-7-8.2h-86.6c-3.9,0-7,3.7-7,8.2V1.8H8.3c-4.5,0-8.2,3.1-8.2,7v86.6
		c0,3.9,3.7,7,8.2,7h90.2v90.2c0,4.5,3.1,8.2,7,8.2h86.6c3.9,0,7-3.7,7-8.2v-90.2h90.2c4.5,0,8.2-3.1,8.2-7V8.8
		C297.6,4.9,294,1.8,289.4,1.8z"/>
	<g>
		<path fill="#EFE8D8" d="M105.5,197.6c-3.1,0-5.6-3-5.6-6.8V99.2H8.2c-3.7,0-6.8-2.5-6.8-5.6V7c0-3.1,3-5.6,6.8-5.6h91.7v-91.7
			c0-3.7,2.5-6.8,5.6-6.8h86.6c3.1,0,5.6,3,5.6,6.8V1.4h91.7c3.7,0,6.8,2.5,6.8,5.6v86.6c0,3.1-3,5.6-6.8,5.6h-91.7v91.7
			c0,3.7-2.5,6.8-5.6,6.8H105.5z"/>
		<path fill="#754C24" d="M192.1-95.6c2.3,0,4.2,2.5,4.2,5.4V0v2.8h2.8h90.2c2.9,0,5.4,1.9,5.4,4.2v86.6c0,2.3-2.5,4.2-5.4,4.2
			h-90.2h-2.8v2.8v90.2c0,2.9-1.9,5.4-4.2,5.4h-86.6c-2.3,0-4.2-2.5-4.2-5.4v-90.2v-2.8h-2.8H8.2c-2.9,0-5.4-1.9-5.4-4.2V7
			c0-2.3,2.5-4.2,5.4-4.2h90.2h2.8V0v-90.2c0-2.9,1.9-5.4,4.2-5.4H192.1 M192.1-98.5h-86.6c-3.9,0-7,3.7-7,8.2V0H8.2
			C3.7,0,0,3.1,0,7v86.6c0,3.9,3.7,7,8.2,7h90.2v90.2c0,4.5,3.1,8.2,7,8.2h86.6c3.9,0,7-3.7,7-8.2v-90.2h90.2c4.5,0,8.2-3.1,8.2-7V7
			c0-3.9-3.7-7-8.2-7h-90.2v-90.2C199.1-94.8,195.9-98.5,192.1-98.5L192.1-98.5z"/>
	</g>
	<circle fill="none" stroke="#EAD8AA" stroke-width="5.6693" stroke-miterlimit="10" cx="148.8" cy="50.3" r="61.7"/>
	<g>
		<line fill="none" stroke="#754C24" stroke-width="11.3386" stroke-miterlimit="10" x1="25.1" y1="29.4" x2="64.4" y2="68.7"/>
		<line fill="none" stroke="#754C24" stroke-width="11.3386" stroke-miterlimit="10" x1="64.4" y1="29.4" x2="25.1" y2="68.7"/>
	</g>
</g>
</svg>
