<?xml version="1.0" encoding="utf-8"?>
<!-- Generator: Adobe Illustrator 17.0.0, SVG Export Plug-In . SVG Version: 6.00 Build 0)  -->
<!DOCTYPE svg PUBLIC "-//W3C//DTD SVG 1.1//EN" "http://www.w3.org/Graphics/SVG/1.1/DTD/svg11.dtd">
<svg version="1.1" id="Layer_1" xmlns="http://www.w3.org/2000/svg" xmlns:xlink="http://www.w3.org/1999/xlink" x="0px" y="0px"
	 width="69.2px" height="69.2px" viewBox="0 0 69.2 69.2" enable-background="new 0 0 69.2 69.2" xml:space="preserve">
<g>
	<g>
		<path fill="#EFE8D8" d="M34.6,67.8c-18.3,0-33.2-14.9-33.2-33.2c0-18.3,14.9-33.2,33.2-33.2c18.3,0,33.2,14.9,33.2,33.2
			C67.8,52.9,52.9,67.8,34.6,67.8z"/>
		<path fill="#754C24" d="M34.6,2.8c17.5,0,31.8,14.2,31.8,31.8c0,17.5-14.2,31.8-31.8,31.8S2.8,52.1,2.8,34.6
			C2.8,17.1,17.1,2.8,34.6,2.8 M34.6,0C15.5,0,0,15.5,0,34.6c0,19.1,15.5,34.6,34.6,34.6c19.1,0,34.6-15.5,34.6-34.6
			C69.2,15.5,53.7,0,34.6,0L34.6,0z"/>
	</g>
	<polygon fill="#754C24" points="22.1,16.2 56.9,34.6 22.1,53 	"/>
</g>
</svg>
