<?xml version="1.0" encoding="utf-8"?>
<!-- Generator: Adobe Illustrator 17.0.0, SVG Export Plug-In . SVG Version: 6.00 Build 0)  -->
<!DOCTYPE svg PUBLIC "-//W3C//DTD SVG 1.1//EN" "http://www.w3.org/Graphics/SVG/1.1/DTD/svg11.dtd">
<svg version="1.1" id="Layer_1" xmlns="http://www.w3.org/2000/svg" xmlns:xlink="http://www.w3.org/1999/xlink" x="0px" y="0px"
	 width="100.6px" height="98.5px" viewBox="0 0 100.6 98.5" enable-background="new 0 0 100.6 98.5" xml:space="preserve">
<g>
	<path fill="#754C24" d="M191,100.2h-90.2V10c0-4.5-3.1-8.2-7-8.2H7.1c-3.9,0-7,3.7-7,8.2v90.2h-90.2c-4.5,0-8.2,3.1-8.2,7v86.6
		c0,3.9,3.7,7,8.2,7H0.1v90.2c0,4.5,3.1,8.2,7,8.2h86.6c3.9,0,7-3.7,7-8.2v-90.2H191c4.5,0,8.2-3.1,8.2-7v-86.6
		C199.2,103.3,195.5,100.2,191,100.2z"/>
	<g>
		<path fill="#EFE8D8" d="M7,296.1c-3.1,0-5.6-3-5.6-6.8v-91.7h-91.7c-3.7,0-6.8-2.5-6.8-5.6v-86.6c0-3.1,3-5.6,6.8-5.6H1.4V8.2
			c0-3.7,2.5-6.8,5.6-6.8h86.6c3.1,0,5.6,3,5.6,6.8v91.7h91.7c3.7,0,6.8,2.5,6.8,5.6v86.6c0,3.1-3,5.6-6.8,5.6H99.2v91.7
			c0,3.7-2.5,6.8-5.6,6.8H7z"/>
		<path fill="#754C24" d="M93.6,2.8c2.3,0,4.2,2.5,4.2,5.4v90.2v2.8h2.8h90.2c2.9,0,5.4,1.9,5.4,4.2v86.6c0,2.3-2.5,4.2-5.4,4.2
			h-90.2h-2.8v2.8v90.2c0,2.9-1.9,5.4-4.2,5.4H7c-2.3,0-4.2-2.5-4.2-5.4v-90.2v-2.8H0h-90.2c-2.9,0-5.4-1.9-5.4-4.2v-86.6
			c0-2.3,2.5-4.2,5.4-4.2H0h2.8v-2.8V8.2c0-2.9,1.9-5.4,4.2-5.4H93.6 M93.6,0H7C3.1,0,0,3.7,0,8.2v90.2h-90.2c-4.5,0-8.2,3.1-8.2,7
			v86.6c0,3.9,3.7,7,8.2,7H0v90.2c0,4.5,3.1,8.2,7,8.2h86.6c3.9,0,7-3.7,7-8.2v-90.2h90.2c4.5,0,8.2-3.1,8.2-7v-86.6
			c0-3.9-3.7-7-8.2-7h-90.2V8.2C100.6,3.7,97.5,0,93.6,0L93.6,0z"/>
	</g>
	<circle fill="none" stroke="#EAD8AA" stroke-width="5.6693" stroke-miterlimit="10" cx="50.3" cy="148.8" r="61.7"/>
	<polygon fill="#754C24" points="33,26.3 67.8,44.7 33,63.1 	"/>
</g>
</svg>
