<?xml version="1.0" encoding="utf-8"?>
<!-- Generator: Adobe Illustrator 17.0.0, SVG Export Plug-In . SVG Version: 6.00 Build 0)  -->
<!DOCTYPE svg PUBLIC "-//W3C//DTD SVG 1.1//EN" "http://www.w3.org/Graphics/SVG/1.1/DTD/svg11.dtd">
<svg version="1.1" id="Layer_1" xmlns="http://www.w3.org/2000/svg" xmlns:xlink="http://www.w3.org/1999/xlink" x="0px" y="0px"
	 width="252.2px" height="258.2px" viewBox="0 0 252.2 258.2" enable-background="new 0 0 252.2 258.2" xml:space="preserve">
<g>
	<circle fill="#603813" cx="126.1" cy="132.1" r="126.1"/>
	<g>
		<path fill="#EFE8D8" d="M126.1,250.8c-68.8,0-124.7-55.9-124.7-124.7S57.4,1.4,126.1,1.4s124.7,55.9,124.7,124.7
			S194.9,250.8,126.1,250.8z"/>
		<path fill="#754C24" d="M126.1,2.8c32.9,0,63.9,12.8,87.2,36.1s36.1,54.2,36.1,87.2s-12.8,63.9-36.1,87.2s-54.2,36.1-87.2,36.1
			s-63.9-12.8-87.2-36.1S2.8,159.1,2.8,126.1s12.8-63.9,36.1-87.2S93.2,2.8,126.1,2.8 M126.1,0C56.5,0,0,56.5,0,126.1
			s56.5,126.1,126.1,126.1s126.1-56.5,126.1-126.1S195.8,0,126.1,0L126.1,0z"/>
	</g>
</g>
<g>
	<g>
		<g id="_x32__13_">
			<g>
				<path fill="#603813" d="M138.5,104.4c2.3,0,4.1-1.8,4.1-4.1V83.8c0-2.3-1.8-4.1-4.1-4.1s-4.1,1.8-4.1,4.1v16.5
					C134.4,102.5,136.2,104.4,138.5,104.4z M175.6,63.1H76.7c-9.1,0-16.5,7.4-16.5,16.5v98.9c0,9.1,7.4,16.5,16.5,16.5h98.9
					c9.1,0,16.5-7.4,16.5-16.5V79.6C192.1,70.5,184.7,63.1,175.6,63.1z M93.1,71.4h66v37.1c0,2.3-1.8,4.1-4.1,4.1H97.3
					c-2.3,0-4.1-1.8-4.1-4.1V71.4z M183.8,178.6c0,4.6-3.7,8.2-8.2,8.2H76.7c-4.6,0-8.2-3.7-8.2-8.2V79.6c0-4.6,3.7-8.2,8.2-8.2h8.2
					v41.2c0,4.6,3.7,8.2,8.2,8.2h66c4.6,0,8.2-3.7,8.2-8.2V71.4h8.2c4.6,0,8.2,3.7,8.2,8.2V178.6z"/>
			</g>
		</g>
	</g>
	
		<line fill="none" stroke="#603813" stroke-width="5.6693" stroke-linecap="round" stroke-miterlimit="10" x1="86.5" y1="143.3" x2="167.7" y2="143.3"/>
	
		<line fill="none" stroke="#603813" stroke-width="5.6693" stroke-linecap="round" stroke-miterlimit="10" x1="85.8" y1="164.2" x2="166.9" y2="164.2"/>
</g>
</svg>
