<?xml version="1.0" encoding="utf-8"?>
<!-- Generator: Adobe Illustrator 17.0.0, SVG Export Plug-In . SVG Version: 6.00 Build 0)  -->
<!DOCTYPE svg PUBLIC "-//W3C//DTD SVG 1.1//EN" "http://www.w3.org/Graphics/SVG/1.1/DTD/svg11.dtd">
<svg version="1.1" id="Layer_1" xmlns="http://www.w3.org/2000/svg" xmlns:xlink="http://www.w3.org/1999/xlink" x="0px" y="0px"
	 width="100.6px" height="98.5px" viewBox="0 0 100.6 98.5" enable-background="new 0 0 100.6 98.5" xml:space="preserve">
<g>
	<path fill="#754C24" d="M190.9-100.6h-90.2v-90.2c0-4.5-3.1-8.2-7-8.2H7c-3.9,0-7,3.7-7,8.2v90.2h-90.2c-4.5,0-8.2,3.1-8.2,7V-7
		c0,3.9,3.7,7,8.2,7H0v90.2c0,4.5,3.1,8.2,7,8.2h86.6c3.9,0,7-3.7,7-8.2V0h90.2c4.5,0,8.2-3.1,8.2-7v-86.6
		C199.1-97.5,195.4-100.6,190.9-100.6z"/>
	<g>
		<path fill="#EFE8D8" d="M6.9,95.3c-3.1,0-5.6-3-5.6-6.8V-3.2h-91.7c-3.7,0-6.8-2.5-6.8-5.6v-86.6c0-3.1,3-5.6,6.8-5.6H1.3v-91.7
			c0-3.7,2.5-6.8,5.6-6.8h86.6c3.1,0,5.6,3,5.6,6.8v91.7h91.7c3.7,0,6.8,2.5,6.8,5.6v86.6c0,3.1-3,5.6-6.8,5.6H99.1v91.7
			c0,3.7-2.5,6.8-5.6,6.8H6.9z"/>
		<path fill="#754C24" d="M93.5-198c2.3,0,4.2,2.5,4.2,5.4v90.2v2.8h2.8h90.2c2.9,0,5.4,1.9,5.4,4.2v86.6c0,2.3-2.5,4.2-5.4,4.2
			h-90.2h-2.8v2.8v90.2c0,2.9-1.9,5.4-4.2,5.4H6.9c-2.3,0-4.2-2.5-4.2-5.4V-1.8v-2.8h-2.8h-90.2c-2.9,0-5.4-1.9-5.4-4.2v-86.6
			c0-2.3,2.5-4.2,5.4-4.2h90.2h2.8v-2.8v-90.2c0-2.9,1.9-5.4,4.2-5.4H93.5 M93.5-200.8H6.9c-3.9,0-7,3.7-7,8.2v90.2h-90.2
			c-4.5,0-8.2,3.1-8.2,7v86.6c0,3.9,3.7,7,8.2,7h90.2v90.2c0,4.5,3.1,8.2,7,8.2h86.6c3.9,0,7-3.7,7-8.2V-1.8h90.2
			c4.5,0,8.2-3.1,8.2-7v-86.6c0-3.9-3.7-7-8.2-7h-90.2v-90.2C100.5-197.1,97.4-200.8,93.5-200.8L93.5-200.8z"/>
	</g>
	<circle fill="none" stroke="#EAD8AA" stroke-width="5.6693" stroke-miterlimit="10" cx="50.2" cy="-52.1" r="61.7"/>
	<g>
		<g>
			<path fill="none" stroke="#754C24" stroke-width="2.8346" stroke-miterlimit="10" d="M54.6,52.4c0,0-9,8.2-20,8.2s-20-8.2-20-8.2
				s9-8.2,20-8.2S54.6,52.4,54.6,52.4z"/>
			<circle fill="#754C24" cx="34.6" cy="52.4" r="8.2"/>
		</g>
		<g>
			<rect x="39.4" y="42.5" fill="none" width="62.6" height="19.8"/>
			<path fill="#754C24" d="M57.2,47.2c-0.3,0-0.6,0-0.8-0.1c-0.3-0.1-0.5-0.2-0.8-0.3c-0.2-0.1-0.4-0.3-0.6-0.6
				c-0.1-0.2-0.2-0.5-0.2-0.9v-3h1.8v2.6c0,0.2,0.1,0.4,0.2,0.5c0.1,0.1,0.3,0.1,0.4,0.1V47.2z"/>
			<path fill="#754C24" d="M65.9,60.2c-0.9,0-1.8-0.2-2.6-0.5c-0.8-0.3-1.5-0.8-2-1.4c-0.6-0.6-1-1.3-1.3-2.1
				c-0.3-0.8-0.5-1.6-0.5-2.5s0.2-1.7,0.5-2.5c0.3-0.8,0.8-1.5,1.3-2.1c0.6-0.6,1.2-1.1,2-1.4c0.8-0.3,1.6-0.5,2.6-0.5
				c0.9,0,1.8,0.2,2.6,0.5c0.8,0.4,1.4,0.8,2,1.4s1,1.3,1.3,2c0.3,0.8,0.4,1.6,0.4,2.4c0,0.2,0,0.3,0,0.5c0,0.1,0,0.3,0,0.3H61.7
				c0,0.6,0.2,1.2,0.4,1.7c0.2,0.5,0.6,1,0.9,1.3s0.8,0.7,1.3,0.9c0.5,0.2,1,0.3,1.5,0.3c0.4,0,0.8-0.1,1.1-0.2
				c0.4-0.1,0.7-0.2,1-0.4c0.3-0.2,0.6-0.4,0.9-0.6c0.2-0.3,0.4-0.5,0.6-0.9l1.8,0.5c-0.2,0.5-0.5,0.9-0.9,1.3
				c-0.4,0.4-0.8,0.7-1.2,1c-0.5,0.3-1,0.5-1.6,0.7S66.5,60.2,65.9,60.2z M70.2,52.9c0-0.6-0.2-1.1-0.4-1.6s-0.6-0.9-0.9-1.3
				c-0.4-0.4-0.8-0.6-1.3-0.8c-0.5-0.2-1-0.3-1.6-0.3c-0.6,0-1.1,0.1-1.6,0.3c-0.5,0.2-0.9,0.5-1.3,0.8c-0.4,0.4-0.7,0.8-0.9,1.3
				c-0.2,0.5-0.4,1-0.4,1.6H70.2z"/>
			<path fill="#754C24" d="M79.6,60.2c-0.9,0-1.7-0.2-2.4-0.5c-0.7-0.4-1.4-0.8-1.9-1.4s-0.9-1.3-1.2-2.1s-0.4-1.6-0.4-2.5
				c0-0.9,0.1-1.7,0.4-2.5c0.3-0.8,0.7-1.5,1.2-2.1c0.5-0.6,1.1-1.1,1.8-1.4c0.7-0.3,1.5-0.5,2.3-0.5c1,0,1.9,0.3,2.7,0.8
				s1.4,1.2,1.9,1.9v-7.5H86v14.9c0,0.5,0.2,0.8,0.7,0.8V60c-0.2,0-0.3,0.1-0.5,0.1c-0.1,0-0.3,0-0.4,0c-0.5,0-0.9-0.1-1.2-0.4
				c-0.3-0.2-0.4-0.5-0.5-0.9l0-1.2c-0.5,0.8-1.2,1.5-2,1.9C81.4,60,80.5,60.2,79.6,60.2z M80.1,58.4c0.4,0,0.8-0.1,1.2-0.2
				c0.4-0.1,0.8-0.3,1.2-0.6c0.4-0.3,0.7-0.6,0.9-0.9s0.4-0.7,0.5-1.1V52c-0.1-0.4-0.4-0.8-0.6-1.1c-0.3-0.4-0.6-0.7-1-0.9
				c-0.4-0.3-0.7-0.5-1.2-0.6c-0.4-0.2-0.8-0.2-1.2-0.2c-0.6,0-1.2,0.1-1.7,0.4c-0.5,0.3-0.9,0.6-1.3,1.1s-0.6,0.9-0.8,1.5
				c-0.2,0.6-0.3,1.1-0.3,1.7c0,0.6,0.1,1.2,0.3,1.8c0.2,0.6,0.5,1.1,0.9,1.5s0.8,0.7,1.4,1C79,58.3,79.5,58.4,80.1,58.4z"/>
		</g>
	</g>
</g>
</svg>
